<svg xmlns="http://www.w3.org/2000/svg" xmlns:xlink="http://www.w3.org/1999/xlink" width="30" height="30" viewBox="0 0 30 30">
  <defs>
    <clipPath id="clip-path">
      <rect id="Rectangle_173824" data-name="Rectangle 173824" width="30" height="30" transform="translate(-22296 -9102)" fill="none"/>
    </clipPath>
  </defs>
  <g id="Mask_Group_373" data-name="Mask Group 373" transform="translate(22296 9102)" clip-path="url(#clip-path)">
    <g id="Artwork_556" data-name="Artwork 556" transform="translate(-22280.824 -9086.848)">
      <g id="Group_119743" data-name="Group 119743" transform="translate(-14.779 -12.815)">
        <g id="Group_119742" data-name="Group 119742" transform="translate(0 4.332)">
          <g id="Group_119739" data-name="Group 119739">
            <g id="Group_119738" data-name="Group 119738">
              <g id="Group_119737" data-name="Group 119737">
                <path id="Path_303842" data-name="Path 303842" d="M36.08,50.533l-.506-1.786a5.744,5.744,0,0,0-3.11-3.647l-1.254-.581a2.8,2.8,0,0,1-1.518-1.779l-.607-2.14.048-.36a1.844,1.844,0,0,0-.857-1.81l-.031-.019" transform="translate(-22.675 -34.603)" fill="none" stroke="#000" stroke-linecap="round" stroke-linejoin="round" stroke-width="0.632"/>
                <path id="Path_303843" data-name="Path 303843" d="M8.733,68.205q-.134.018-.264.03a4.3,4.3,0,0,1-3.739-1.673C2.9,64.214,1.5,65.68,1.5,65.68a30.012,30.012,0,0,1,2.544,3.606A5.437,5.437,0,0,0,7.4,71.892q.132.033.271.062a3.163,3.163,0,0,1,2.154,1.628" transform="translate(-1.5 -55.836)" fill="none" stroke="#000" stroke-linecap="round" stroke-linejoin="round" stroke-width="0.632"/>
                <path id="Path_303844" data-name="Path 303844" d="M5.7,33.068l-.624-2.855L6.91,24.584s1.052.264.78,1.87l-.832,3.662.568,2.315" transform="translate(-4.331 -23.657)" fill="none" stroke="#000" stroke-linecap="round" stroke-linejoin="round" stroke-width="0.632"/>
                <path id="Path_303845" data-name="Path 303845" d="M17.061,21.654l.492-1.52a1.79,1.79,0,0,1,.9,2.314l-.763,3.976.608,2.151" transform="translate(-13.82 -20.134)" fill="none" stroke="#000" stroke-linecap="round" stroke-linejoin="round" stroke-width="0.632"/>
                <path id="Path_303846" data-name="Path 303846" d="M24.2,27.409l.069.051a2.066,2.066,0,0,1,.81,2.047l-.441,2.355.63,2.19" transform="translate(-19.472 -25.894)" fill="none" stroke="#000" stroke-linecap="round" stroke-linejoin="round" stroke-width="0.632"/>
              </g>
              <path id="Path_303847" data-name="Path 303847" d="M42.171,100.352l-4.288,1.32-1.154-2.881L42.8,96.607v1.46" transform="translate(-29.391 -80.679)" fill="none" stroke="#000" stroke-linecap="round" stroke-linejoin="round" stroke-width="0.632"/>
              <line id="Line_2353" data-name="Line 2353" y1="1.968" x2="5.568" transform="translate(7.836 17.389)" fill="none" stroke="#000" stroke-linecap="round" stroke-linejoin="round" stroke-width="0.632"/>
            </g>
          </g>
          <g id="Group_119741" data-name="Group 119741" transform="translate(15.802)">
            <g id="Group_119740" data-name="Group 119740">
              <path id="Path_303848" data-name="Path 303848" d="M77.366,50.533l.505-1.786a5.744,5.744,0,0,1,3.11-3.647l1.254-.581a2.8,2.8,0,0,0,1.518-1.779l.607-2.14-.048-.36a1.844,1.844,0,0,1,.857-1.81l.031-.019" transform="translate(-77.366 -34.603)" fill="none" stroke="#000" stroke-linecap="round" stroke-linejoin="round" stroke-width="0.632"/>
              <path id="Path_303849" data-name="Path 303849" d="M102.838,68.205q.134.018.264.03a4.3,4.3,0,0,0,3.739-1.673c1.834-2.348,3.23-.882,3.23-.882a29.97,29.97,0,0,0-2.544,3.606,5.439,5.439,0,0,1-3.358,2.606c-.088.022-.178.042-.271.062a3.163,3.163,0,0,0-2.154,1.628" transform="translate(-96.666 -55.836)" fill="none" stroke="#000" stroke-linecap="round" stroke-linejoin="round" stroke-width="0.632"/>
              <path id="Path_303850" data-name="Path 303850" d="M127.415,33.068l.624-2.855-1.834-5.629s-1.052.264-.781,1.87l.832,3.662-.568,2.315" transform="translate(-115.38 -23.657)" fill="none" stroke="#000" stroke-linecap="round" stroke-linejoin="round" stroke-width="0.632"/>
              <path id="Path_303851" data-name="Path 303851" d="M120.5,21.654l-.493-1.52a1.789,1.789,0,0,0-.9,2.314l.762,3.976-.609,2.151" transform="translate(-110.338 -20.134)" fill="none" stroke="#000" stroke-linecap="round" stroke-linejoin="round" stroke-width="0.632"/>
              <path id="Path_303852" data-name="Path 303852" d="M114.965,27.409l-.069.051a2.067,2.067,0,0,0-.81,2.047l.441,2.355-.629,2.19" transform="translate(-106.289 -25.894)" fill="none" stroke="#000" stroke-linecap="round" stroke-linejoin="round" stroke-width="0.632"/>
            </g>
            <path id="Path_303853" data-name="Path 303853" d="M77.992,100.352l4.288,1.32,1.154-2.881-6.067-2.184v1.46" transform="translate(-77.367 -80.679)" fill="none" stroke="#000" stroke-linecap="round" stroke-linejoin="round" stroke-width="0.632"/>
            <line id="Line_2354" data-name="Line 2354" x1="5.568" y1="1.968" transform="translate(0 17.389)" fill="none" stroke="#000" stroke-linecap="round" stroke-linejoin="round" stroke-width="0.632"/>
          </g>
        </g>
        <line id="Line_2355" data-name="Line 2355" y2="3.031" transform="translate(16.964 11.17)" fill="none" stroke="#000" stroke-linecap="round" stroke-linejoin="round" stroke-width="0.632"/>
        <line id="Line_2356" data-name="Line 2356" y2="3.031" transform="translate(12.177 11.17)" fill="none" stroke="#000" stroke-linecap="round" stroke-linejoin="round" stroke-width="0.632"/>
        <circle id="Ellipse_9474" data-name="Ellipse 9474" cx="2.222" cy="2.222" r="2.222" transform="translate(11.93 4.325) rotate(-76.718)" fill="none" stroke="#000" stroke-linecap="round" stroke-linejoin="round" stroke-width="0.632"/>
        <path id="Path_303854" data-name="Path 303854" d="M51.3,36.515V30.9a1.445,1.445,0,0,1,1.446-1.445h5.569A1.445,1.445,0,0,1,59.763,30.9v5.071" transform="translate(-40.93 -23.182)" fill="none" stroke="#000" stroke-linecap="round" stroke-linejoin="round" stroke-width="0.632"/>
        <path id="Path_303855" data-name="Path 303855" d="M63.069,35.456H57.5a.2.2,0,0,0-.2.2V37.62h0a3.641,3.641,0,0,1,2.288-.808h1.384a3.642,3.642,0,0,1,2.288.808h0V35.652A.2.2,0,0,0,63.069,35.456Z" transform="translate(-45.681 -27.932)" fill="none" stroke="#000" stroke-width="1"/>
      </g>
    </g>
  </g>
</svg>
