<svg xmlns="http://www.w3.org/2000/svg" xmlns:xlink="http://www.w3.org/1999/xlink" width="30" height="30" viewBox="0 0 30 30">
  <defs>
    <clipPath id="clip-path">
      <rect id="Rectangle_175860" data-name="Rectangle 175860" width="30" height="30" transform="translate(5889.3 -17800)" fill="none"/>
    </clipPath>
    <clipPath id="clip-path-2">
      <rect id="Rectangle_175859" data-name="Rectangle 175859" width="29.829" height="29.829" transform="translate(5947 -17582)" fill="none"/>
    </clipPath>
  </defs>
  <g id="Mask_Group_382" data-name="Mask Group 382" transform="translate(-5889.301 17800)" clip-path="url(#clip-path)">
    <g id="Mask_Group_381" data-name="Mask Group 381" transform="translate(-54.838 -218)" clip-path="url(#clip-path-2)">
      <g id="Artwork_68" data-name="Artwork 68" transform="translate(5949.977 -17581.695)">
        <g id="Group_734881" data-name="Group 734881" transform="translate(0 0)">
          <path id="Path_7937573" data-name="Path 7937573" d="M147.229,48.568a.714.714,0,0,0,1.012.206" transform="translate(-128.008 -42.45)" fill="none" stroke="#000" stroke-linecap="round" stroke-linejoin="round" stroke-width="0.65"/>
          <path id="Path_7937574" data-name="Path 7937574" d="M167.825,40.293a0,0,0,0,0,0,0" transform="translate(-145.869 -35.272)" fill="none" stroke="#000" stroke-linecap="round" stroke-linejoin="round" stroke-width="0.65"/>
          <path id="Path_7937575" data-name="Path 7937575" d="M139.116,34.454h0" transform="translate(-120.973 -30.209)" fill="none" stroke="#000" stroke-linecap="round" stroke-linejoin="round" stroke-width="0.65"/>
          <path id="Path_7937576" data-name="Path 7937576" d="M138.274,40.935a2.609,2.609,0,0,0,.532,1.627s0,.007.008.009a1.849,1.849,0,0,0,.19.2c.024.022.046.042.071.061a1.474,1.474,0,0,0,1.415.288l.089-.029a1.77,1.77,0,0,0,.263-.116,2.621,2.621,0,0,0,1.126-1.29" transform="translate(-120.243 -35.831)" fill="none" stroke="#000" stroke-linecap="round" stroke-linejoin="round" stroke-width="0.65"/>
          <path id="Path_7937577" data-name="Path 7937577" d="M158.962,25.841h0c.012.021.022.042.033.063.655.793.965,2.064.174,4.007-.594.012-1.12.254-1.582.227" transform="translate(-136.991 -22.741)" fill="none" stroke="#000" stroke-linecap="round" stroke-linejoin="round" stroke-width="0.65"/>
          <path id="Path_7937578" data-name="Path 7937578" d="M133.036,21.107h0l-.055.045c-.912.474-1.7,1.523-1.726,3.621.542.243.932.671,1.368.827" transform="translate(-114.156 -18.636)" fill="none" stroke="#000" stroke-linecap="round" stroke-linejoin="round" stroke-width="0.65"/>
          <path id="Path_7937579" data-name="Path 7937579" d="M148.541,3.594,147.676,5.6v0l-3.09-.628v0l-.013-2.184a3.59,3.59,0,0,1,3.968.807Z" transform="translate(-125.705 -2.5)" fill="none" stroke="#000" stroke-linecap="round" stroke-linejoin="round" stroke-width="0.65"/>
          <path id="Path_7937580" data-name="Path 7937580" d="M166.078,40.961a.436.436,0,0,0,.232-.835.043.043,0,0,0-.014,0,.024.024,0,0,1-.01,0c-.018-.005-.034-.01-.054-.014a.049.049,0,0,0-.017,0h0l-.007,0" transform="translate(-144.354 -35.106)" fill="none" stroke="#000" stroke-linecap="round" stroke-linejoin="round" stroke-width="0.65"/>
          <path id="Path_7937581" data-name="Path 7937581" d="M136.12,35.324a.436.436,0,0,1,.113-.859.038.038,0,0,1,.015,0,.051.051,0,0,0,.017,0,.464.464,0,0,1,.048.006.07.07,0,0,1,.018.005h0l.007,0" transform="translate(-118.088 -30.22)" fill="none" stroke="#000" stroke-linecap="round" stroke-linejoin="round" stroke-width="0.65"/>
          <path id="Path_7937582" data-name="Path 7937582" d="M159.288,26.015l-.014,0a.024.024,0,0,1-.01,0,.417.417,0,0,1-.071-.016h0l-.007,0c-1.2-.347-1.2-2.161-1.2-2.161" transform="translate(-137.331 -20.996)" fill="none" stroke="#000" stroke-linecap="round" stroke-linejoin="round" stroke-width="0.65"/>
          <path id="Path_7937583" data-name="Path 7937583" d="M139.124,24.644l.014,0a.051.051,0,0,0,.017,0,.366.366,0,0,0,.066.011h0l.007,0c1.242.151,1.95-1.52,1.95-1.52" transform="translate(-120.98 -20.401)" fill="none" stroke="#000" stroke-linecap="round" stroke-linejoin="round" stroke-width="0.65"/>
          <path id="Path_7937584" data-name="Path 7937584" d="M84.843,54.215l0,0a2.626,2.626,0,0,0,2.113-4.676l0,0,0,0a2.626,2.626,0,0,0-2.113,4.677Z" transform="translate(-72.948 -43.159)" fill="none" stroke="#000" stroke-linecap="round" stroke-linejoin="round" stroke-width="0.65"/>
          <path id="Path_7937585" data-name="Path 7937585" d="M38.572,65.8a4.7,4.7,0,0,1-2.779.345.874.874,0,0,0-1.118.26,1.263,1.263,0,0,0-.2.4,3.329,3.329,0,0,0-3.829,1.62c-1.226,2.368-3.606,5.081-3.485,7.256.134,2.395.951,3.017,2.607,3.154.772.064,1.726.023,2.878.006a.758.758,0,0,1,.769.766L33.4,81.213h4.377" transform="translate(-23.884 -57.391)" fill="none" stroke="#000" stroke-linecap="round" stroke-linejoin="round" stroke-width="0.65"/>
          <path id="Path_7937586" data-name="Path 7937586" d="M81.416,38.112s-.716-2.341-2.163-1.266a1.561,1.561,0,0,0,.43,2.762" transform="translate(-68.464 -32.04)" fill="none" stroke="#000" stroke-linecap="round" stroke-linejoin="round" stroke-width="0.65"/>
          <path id="Path_7937587" data-name="Path 7937587" d="M115.142,141.329c.369-3.76,1.328-3.967,3.519-4.011,1.76.035,2.724.175,3.227,2.178a12.838,12.838,0,0,1,.291,1.833c.033.332.061.69.085,1.08.084,1.38.117,3.136.117,5.372h.98c0-2.234-.028-4.04-.122-5.5q-.032-.5-.074-.953a13.029,13.029,0,0,0-.405-2.349v0c-.608-2.086-1.8-2.594-4.1-2.639-.235.005-.458.014-.671.031h0a7.079,7.079,0,0,0-.746.089" transform="translate(-100.183 -118.564)" fill="none" stroke="#000" stroke-linecap="round" stroke-linejoin="round" stroke-width="0.65"/>
          <path id="Path_7937588" data-name="Path 7937588" d="M107.652,144.287l0,0c-.77.86-1.133,2.377-1.292,4.989-.089,1.441-.116,3.214-.116,5.395h.98c0-2.236.032-3.992.117-5.372" transform="translate(-92.465 -125.457)" fill="none" stroke="#000" stroke-linecap="round" stroke-linejoin="round" stroke-width="0.65"/>
          <path id="Path_7937589" data-name="Path 7937589" d="M12.067,166.346H2.5v-1.237a1.141,1.141,0,0,1,1.14-1.141h7.61a.817.817,0,0,1,.817.817Z" transform="translate(-2.5 -142.524)" fill="none" stroke="#000" stroke-linecap="round" stroke-linejoin="round" stroke-width="0.65"/>
          <path id="Path_7937590" data-name="Path 7937590" d="M0,0H8.56V5.4H0Z" transform="translate(0 23.822)" fill="none" stroke="#000" stroke-linecap="round" stroke-width="0.65"/>
          <path id="Path_7937591" data-name="Path 7937591" d="M142.137,56.658h0a6.5,6.5,0,0,1,1.643,1.261,1.2,1.2,0,0,1,.3,1.113l-1.006,4.216-.85.753-1.134,1-.975,1.417c-1.305.5-1.77.437-1.846-.288l1.494-1.611,1.777-1.956.653-2.8" transform="translate(-120.24 -49.466)" fill="none" stroke="#000" stroke-linecap="round" stroke-linejoin="round" stroke-width="0.65"/>
          <path id="Path_7937592" data-name="Path 7937592" d="M115.932,53.231a8.635,8.635,0,0,1,2.79-.983" transform="translate(-100.868 -45.641)" fill="none" stroke="#000" stroke-linecap="round" stroke-linejoin="round" stroke-width="0.65"/>
          <path id="Path_7937593" data-name="Path 7937593" d="M168.643,117.828v0l-.59-5.878" transform="translate(-146.066 -97.412)" fill="none" stroke="#000" stroke-linecap="round" stroke-linejoin="round" stroke-width="0.65"/>
          <path id="Path_7937594" data-name="Path 7937594" d="M121.5,160.078a11.907,11.907,0,0,0,5.9.005" transform="translate(-105.697 -139.151)" fill="none" stroke="#000" stroke-linecap="round" stroke-linejoin="round" stroke-width="0.65"/>
          <path id="Path_7937595" data-name="Path 7937595" d="M67.6,95.077l1.292,2.244,3.84,1.268,1.275.121A2.562,2.562,0,0,0,76.23,97.55l-2.851-.475-2.338-1.013-.722-.279L69.9,93.745l-.1-2.017" transform="translate(-58.955 -79.878)" fill="none" stroke="#000" stroke-linecap="round" stroke-linejoin="round" stroke-width="0.65"/>
          <path id="Path_7937596" data-name="Path 7937596" d="M56.388,96.976l.535,2.366a.57.57,0,0,0,.915.317A8.47,8.47,0,0,1,60.176,98.3" transform="translate(-49.231 -84.429)" fill="none" stroke="#000" stroke-linecap="round" stroke-linejoin="round" stroke-width="0.65"/>
          <path id="Path_7937597" data-name="Path 7937597" d="M70.767,87.715c-.132-.635-.7-3.389-.653-3.678" transform="translate(-61.131 -73.208)" fill="none" stroke="#000" stroke-linecap="round" stroke-linejoin="round" stroke-width="0.65"/>
          <path id="Path_7937598" data-name="Path 7937598" d="M75,183.111,74.472,186s1.47.041,1.552,1.021-3.675.286-3.838.286" transform="translate(-62.93 -159.125)" fill="none" stroke="#000" stroke-linecap="round" stroke-linejoin="round" stroke-width="0.65"/>
          <path id="Path_7937599" data-name="Path 7937599" d="M75.559,183.111s-1.082,3.349-.255,4.29" transform="translate(-65.365 -159.125)" fill="none" stroke="#000" stroke-linecap="round" stroke-linejoin="round" stroke-width="0.65"/>
          <path id="Path_7937600" data-name="Path 7937600" d="M86.129,204.873s-.815.967-.367,1.545" transform="translate(-74.588 -177.997)" fill="none" stroke="#000" stroke-linecap="round" stroke-linejoin="round" stroke-width="0.65"/>
          <path id="Path_7937601" data-name="Path 7937601" d="M94.058,89.355s1.578,4.984-.559,4.65" transform="translate(-81.414 -77.82)" fill="none" stroke="#000" stroke-linecap="round" stroke-linejoin="round" stroke-width="0.65"/>
          <path id="Path_7937602" data-name="Path 7937602" d="M97.705,89.355l1.648,3.84,3.627,2.11" transform="translate(-85.061 -77.82)" fill="none" stroke="#000" stroke-linecap="round" stroke-linejoin="round" stroke-width="0.65"/>
          <path id="Path_7937603" data-name="Path 7937603" d="M152.859,85.576a1.56,1.56,0,0,1-2.024,1.514" transform="translate(-131.135 -74.543)" fill="none" stroke="#000" stroke-linecap="round" stroke-linejoin="round" stroke-width="0.65"/>
          <path id="Path_7937604" data-name="Path 7937604" d="M115.523,76.811c-2.563,0-1.185-2.686-1.185-2.686l-1.684.447" transform="translate(-98.025 -64.613)" fill="none" stroke="#000" stroke-linecap="round" stroke-linejoin="round" stroke-width="0.65"/>
          <line id="Line_7051" data-name="Line 7051" x1="1.418" y2="3.069" transform="translate(15.064 11.979)" fill="none" stroke="#000" stroke-linecap="round" stroke-linejoin="round" stroke-width="0.65"/>
          <path id="Path_7937605" data-name="Path 7937605" d="M115.142,173.918h7.037" transform="translate(-100.182 -151.153)" fill="none" stroke="#000" stroke-linecap="round" stroke-linejoin="round" stroke-width="0.65"/>
          <path id="Path_7937606" data-name="Path 7937606" d="M114.5,182.047h7.207" transform="translate(-99.627 -158.202)" fill="none" stroke="#000" stroke-linecap="round" stroke-linejoin="round" stroke-width="0.65"/>
          <path id="Path_7937607" data-name="Path 7937607" d="M151.651,164.351c.153-.8.29-1.465.29-1.465" transform="translate(-131.843 -141.586)" fill="none" stroke="#000" stroke-linecap="round" stroke-linejoin="round" stroke-width="0.65"/>
          <path id="Path_7937608" data-name="Path 7937608" d="M138.246,163.966c0,.411,0,.861,0,1.322" transform="translate(-120.215 -142.523)" fill="none" stroke="#000" stroke-linecap="round" stroke-linejoin="round" stroke-width="0.65"/>
          <path id="Path_7937609" data-name="Path 7937609" d="M137.993,182.047c0,.316-.005.626-.008.919-.011,1.19-.023,2.113-.023,2.113h.044c4.267,0,2.818-.357,2.818-.357-.072-.438-1.4-.623-1.464-1.042a10.366,10.366,0,0,1,.218-1.632" transform="translate(-119.972 -158.202)" fill="none" stroke="#000" stroke-linecap="round" stroke-linejoin="round" stroke-width="0.65"/>
          <path id="Path_7937610" data-name="Path 7937610" d="M118.027,182.047c0,.316,0,.626.008.919.009,1.19.021,2.113.021,2.113h-.044c-4.267,0-2.818-.357-2.818-.357.072-.438,1.4-.623,1.464-1.042a10.4,10.4,0,0,0-.218-1.632" transform="translate(-100.022 -158.202)" fill="none" stroke="#000" stroke-linecap="round" stroke-linejoin="round" stroke-width="0.65"/>
          <path id="Path_7937611" data-name="Path 7937611" d="M122.422,162.886s.137.664.289,1.465" transform="translate(-106.496 -141.586)" fill="none" stroke="#000" stroke-linecap="round" stroke-linejoin="round" stroke-width="0.65"/>
          <path id="Path_7937612" data-name="Path 7937612" d="M137.985,165.288c0-.461,0-.911,0-1.322" transform="translate(-119.988 -142.523)" fill="none" stroke="#000" stroke-linecap="round" stroke-linejoin="round" stroke-width="0.65"/>
          <path id="Path_7937613" data-name="Path 7937613" d="M100.016,80.273a.665.665,0,0,0,.462.7" transform="translate(-87.064 -69.944)" fill="none" stroke="#000" stroke-linecap="round" stroke-linejoin="round" stroke-width="0.65"/>
          <path id="Path_7937614" data-name="Path 7937614" d="M88.384,137.5s2.986,1.684,2.767,3.372" transform="translate(-76.978 -119.57)" fill="none" stroke="#000" stroke-linecap="round" stroke-linejoin="round" stroke-width="0.65"/>
        </g>
      </g>
    </g>
  </g>
</svg>
