<svg xmlns="http://www.w3.org/2000/svg" xmlns:xlink="http://www.w3.org/1999/xlink" width="30" height="30" viewBox="0 0 30 30">
  <defs>
    <clipPath id="clip-path">
      <rect id="Rectangle_175868" data-name="Rectangle 175868" width="30" height="30" transform="translate(-17342 -22233)"/>
    </clipPath>
  </defs>
  <g id="Mask_Group_390" data-name="Mask Group 390" transform="translate(17342 22233)" clip-path="url(#clip-path)">
    <g id="Artwork_70" data-name="Artwork 70" transform="translate(-17321.383 -22213.463)">
      <g id="Group_566679" data-name="Group 566679" transform="translate(-17.618 -19.417)">
        <g id="Group_566673" data-name="Group 566673" transform="translate(10.196)">
          <g id="Group_566669" data-name="Group 566669">
            <path id="Path_5771853" data-name="Path 5771853" d="M72.294,24.24a4.809,4.809,0,0,1-4.34-2.759L61.192,7.038A4.794,4.794,0,0,1,63.5.671l.466-.218A4.748,4.748,0,0,1,65.992,0a4.809,4.809,0,0,1,4.34,2.759L77.094,17.2a4.794,4.794,0,0,1-2.306,6.367l-.466.218A4.748,4.748,0,0,1,72.294,24.24ZM65.992.879a3.876,3.876,0,0,0-1.655.37l-.466.218a3.914,3.914,0,0,0-1.883,5.2L68.75,21.108a3.927,3.927,0,0,0,3.544,2.253,3.875,3.875,0,0,0,1.655-.37l.466-.218a3.914,3.914,0,0,0,1.883-5.2L69.536,3.132A3.927,3.927,0,0,0,65.992.879Z" transform="translate(-60.741 0)"/>
          </g>
          <g id="Group_566670" data-name="Group 566670" transform="translate(3.791 9.727)">
            <path id="Path_5771854" data-name="Path 5771854" d="M85.6,63.524a2.273,2.273,0,0,1-2.236-1.045.439.439,0,1,1,.8-.373c.16.341.714.545,1.46.539a8.388,8.388,0,0,0,5.566-2.606c.486-.577.681-1.126.521-1.467a.439.439,0,1,1,.8-.373,2.286,2.286,0,0,1-.645,2.405,9.248,9.248,0,0,1-6.234,2.919Z" transform="translate(-83.324 -57.947)"/>
          </g>
          <g id="Group_566671" data-name="Group 566671" transform="translate(6.708 16.248)">
            <path id="Path_5771855" data-name="Path 5771855" d="M102.65,100.886a.439.439,0,0,1-.4-.253l-1.506-3.217a.439.439,0,0,1,.8-.373l1.506,3.217a.439.439,0,0,1-.4.626Z" transform="translate(-100.704 -96.791)"/>
          </g>
          <g id="Group_566672" data-name="Group 566672" transform="translate(2.076 6.355)">
            <path id="Path_5771856" data-name="Path 5771856" d="M76.619,45.291a.44.44,0,0,1-.4-.253l-3.069-6.555a.439.439,0,1,1,.8-.373l3.069,6.555a.44.44,0,0,1-.4.626Z" transform="translate(-73.11 -37.858)"/>
          </g>
        </g>
        <g id="Group_566678" data-name="Group 566678" transform="translate(0 5.276)">
          <g id="Group_566674" data-name="Group 566674">
            <path id="Path_5771857" data-name="Path 5771857" d="M5.268,55.913a4.763,4.763,0,0,1-1.626-.286l-.484-.176A4.794,4.794,0,0,1,.287,49.319L5.717,34.325a4.781,4.781,0,0,1,2.856-2.866.439.439,0,1,1,.3.825,3.9,3.9,0,0,0-2.332,2.34L1.113,49.618a3.91,3.91,0,0,0,2.344,5.008l.484.176a3.914,3.914,0,0,0,5.007-2.345l4.063-11.217a.439.439,0,0,1,.826.3L9.775,52.755A4.8,4.8,0,0,1,5.268,55.913Z" transform="translate(0 -31.432)"/>
          </g>
          <g id="Group_566675" data-name="Group 566675" transform="translate(2.914 10.1)">
            <path id="Path_5771858" data-name="Path 5771858" d="M24.287,96.6a8.9,8.9,0,0,1-2.971-.574,8.417,8.417,0,0,1-3.01-1.8,2.286,2.286,0,0,1-.859-2.337.439.439,0,1,1,.826.3c-.128.354.115.883.652,1.414A7.538,7.538,0,0,0,21.616,95.2c2.242.812,4.222.58,4.493-.17a.439.439,0,1,1,.826.3C26.634,96.158,25.631,96.6,24.287,96.6Z" transform="translate(-17.359 -91.598)"/>
          </g>
          <g id="Group_566676" data-name="Group 566676" transform="translate(1.98 14.011)">
            <path id="Path_5771859" data-name="Path 5771859" d="M12.236,119.119a.439.439,0,0,1-.413-.589l1.21-3.34a.439.439,0,0,1,.826.3l-1.21,3.34A.439.439,0,0,1,12.236,119.119Z" transform="translate(-11.797 -114.9)"/>
          </g>
          <g id="Group_566677" data-name="Group 566677" transform="translate(4.445 3.741)">
            <path id="Path_5771860" data-name="Path 5771860" d="M26.92,61.4a.44.44,0,0,1-.413-.589l2.465-6.805a.439.439,0,1,1,.826.3L27.334,61.11A.44.44,0,0,1,26.92,61.4Z" transform="translate(-26.481 -53.716)"/>
          </g>
        </g>
      </g>
    </g>
  </g>
</svg>
