<svg xmlns="http://www.w3.org/2000/svg" xmlns:xlink="http://www.w3.org/1999/xlink" width="30" height="30" viewBox="0 0 30 30">
  <defs>
    <clipPath id="clip-path">
      <rect id="Rectangle_187993" data-name="Rectangle 187993" width="30" height="30" transform="translate(-6219 6983)"/>
    </clipPath>
  </defs>
  <g id="Mask_Group_373" data-name="Mask Group 373" transform="translate(6219 -6983)" clip-path="url(#clip-path)">
    <g id="ëÎÓÈ_1" data-name="ëÎÓÈ 1" transform="translate(-6216.39 6983)">
      <g id="Group_768407" data-name="Group 768407">
        <g id="Group_768406" data-name="Group 768406">
          <path id="Path_8276623" data-name="Path 8276623" d="M10.85,106.2H2.719A2.722,2.722,0,0,1,0,103.479V97.216a6.505,6.505,0,0,1,.261-1.828.3.3,0,1,1,.574.167A5.919,5.919,0,0,0,.6,97.216v6.262A2.123,2.123,0,0,0,2.719,105.6H10.85a2.122,2.122,0,0,0,2.119-2.119V97.216a6.036,6.036,0,0,0-.235-1.663.3.3,0,1,1,.576-.165,6.608,6.608,0,0,1,.259,1.828v6.262a2.721,2.721,0,0,1-2.717,2.717Z" transform="translate(0 -76.196)"/>
          <path id="Path_8276624" data-name="Path 8276624" d="M56.079,72.384a.3.3,0,1,1,0-.6,1.175,1.175,0,0,0,1.174-1.174v-.969a1.175,1.175,0,0,0-1.174-1.174.3.3,0,1,1,0-.6,1.775,1.775,0,0,1,1.772,1.772v.969A1.775,1.775,0,0,1,56.079,72.384Z" transform="translate(-44.659 -54.338)"/>
          <path id="Path_8276625" data-name="Path 8276625" d="M6.073,72.384H3.662A1.775,1.775,0,0,1,1.89,70.611v-.969A1.775,1.775,0,0,1,3.662,67.87a.3.3,0,1,1,0,.6,1.175,1.175,0,0,0-1.174,1.174v.969a1.175,1.175,0,0,0,1.174,1.174h2.41a.3.3,0,1,1,0,.6Z" transform="translate(-1.513 -54.338)"/>
          <path id="Path_8276626" data-name="Path 8276626" d="M8.914,52.734H3.662A1.775,1.775,0,0,1,1.89,50.961v-.969A1.775,1.775,0,0,1,3.662,48.22H9.881a.3.3,0,1,1,0,.6H3.662a1.175,1.175,0,0,0-1.174,1.174v.969a1.175,1.175,0,0,0,1.174,1.174H8.914a.3.3,0,0,1,0,.6Z" transform="translate(-1.513 -38.606)"/>
          <path id="Path_8276627" data-name="Path 8276627" d="M52.092,52.734a.3.3,0,0,1,0-.6,1.175,1.175,0,0,0,1.174-1.174v-.969a1.175,1.175,0,0,0-1.174-1.174H51.1a.3.3,0,0,1,0-.6h.993a1.775,1.775,0,0,1,1.772,1.772v.969A1.775,1.775,0,0,1,52.092,52.734Z" transform="translate(-40.672 -38.606)"/>
          <path id="Path_8276628" data-name="Path 8276628" d="M3.269,24.742a.3.3,0,0,1-.3-.3v-.056A3.451,3.451,0,0,1,4.577,21.55l1.81-1.236a.3.3,0,0,1,.337.492l-1.81,1.236a2.861,2.861,0,0,0-1.346,2.343v.056a.3.3,0,0,1-.3.3Z" transform="translate(-2.378 -16.222)"/>
          <path id="Path_8276629" data-name="Path 8276629" d="M49.175,24.744a.3.3,0,0,1-.3-.3v-.054a2.858,2.858,0,0,0-1.346-2.343l-1.812-1.236a.3.3,0,0,1,.337-.492l1.812,1.236a3.451,3.451,0,0,1,1.607,2.837v.054a.3.3,0,0,1-.3.3Z" transform="translate(-36.499 -16.227)"/>
          <path id="Path_8276630" data-name="Path 8276630" d="M26.394,2.588H23.458a.8.8,0,0,1-.8-.8V.8a.8.8,0,0,1,.8-.8h2.937a.8.8,0,0,1,.8.8v.995a.8.8,0,0,1-.8.8ZM23.458.6a.2.2,0,0,0-.2.2v.995a.2.2,0,0,0,.2.2h2.937a.2.2,0,0,0,.2-.2V.8a.2.2,0,0,0-.2-.2Z" transform="translate(-18.142)"/>
        </g>
        <path id="Path_8276631" data-name="Path 8276631" d="M81.025,48.9A2.208,2.208,0,0,1,78.79,46.67c0-1.18,1.422-3.24,2.235-3.24s2.235,2.06,2.235,3.24A2.209,2.209,0,0,1,81.025,48.9Zm0-4.873a4.047,4.047,0,0,0-1.635,2.642,1.637,1.637,0,0,0,3.274,0,4.028,4.028,0,0,0-1.641-2.642Z" transform="translate(-63.081 -34.771)"/>
        <path id="Path_8276632" data-name="Path 8276632" d="M93.571,95.36a3.361,3.361,0,0,1-3.4-3.391c0-1.9,2.289-5.008,3.4-5.008s3.4,3.094,3.4,5.008A3.352,3.352,0,0,1,93.571,95.36Zm0-7.8c-.638,0-2.8,2.735-2.8,4.41a2.8,2.8,0,0,0,5.606,0C96.375,90.292,94.209,87.558,93.571,87.558Z" transform="translate(-72.192 -69.622)"/>
      </g>
    </g>
  </g>
</svg>
