<svg xmlns="http://www.w3.org/2000/svg" xmlns:xlink="http://www.w3.org/1999/xlink" width="30" height="30" viewBox="0 0 30 30">
  <defs>
    <clipPath id="clip-path">
      <rect id="Rectangle_177910" data-name="Rectangle 177910" width="30" height="30" transform="translate(676 9822)" fill="#fff"/>
    </clipPath>
  </defs>
  <g id="Mask_Group_406" data-name="Mask Group 406" transform="translate(-676 -9822)" clip-path="url(#clip-path)">
    <g id="Artwork_144" data-name="Artwork 144" transform="translate(695.878 9840.519)">
      <g id="Group_306117" data-name="Group 306117" transform="translate(-16.325 -18.518)">
        <g id="Group_306116" data-name="Group 306116">
          <path id="Path_2787883" data-name="Path 2787883" d="M601.354,968.459a.211.211,0,0,0-.211-.211h-4.177a.211.211,0,1,0,0,.422h4.177a.211.211,0,0,0,.211-.211Z" transform="translate(-583.318 -946.447)" fill="#76706b"/>
          <path id="Path_2787884" data-name="Path 2787884" d="M478.909,622.344a.215.215,0,0,0-.27.127.2.2,0,0,0-.013.072.21.21,0,0,0,.139.2,4.784,4.784,0,0,1,.735.334.225.225,0,0,0,.1.025.207.207,0,0,0,.186-.106.213.213,0,0,0,.025-.1.2.2,0,0,0-.106-.186,5.218,5.218,0,0,0-.8-.363Z" transform="translate(-467.849 -608.32)" fill="#099143"/>
          <path id="Path_2787885" data-name="Path 2787885" d="M544.08,658.719a0,0,0,0,0,0,0,.221.221,0,0,0-.292.038.226.226,0,0,0-.047.135.246.246,0,0,0,.08.165h0a6.065,6.065,0,0,1,.6.545.236.236,0,0,0,.152.063.216.216,0,0,0,.211-.211.231.231,0,0,0-.059-.152,6.514,6.514,0,0,0-.638-.566l-.013-.013Z" transform="translate(-531.495 -643.846)" fill="#099143"/>
          <path id="Path_2787886" data-name="Path 2787886" d="M405.659,607.433a.21.21,0,0,0-.224.2v0a.207.207,0,0,0,.194.216,7.746,7.746,0,0,1,.794.1s.008,0,.017,0h0a.115.115,0,0,0,.038,0,.216.216,0,0,0,.207-.169v-.042a.213.213,0,0,0-.169-.207,7.216,7.216,0,0,0-.862-.114Z" transform="translate(-396.306 -593.755)" fill="#099143"/>
          <path id="Path_2787887" data-name="Path 2787887" d="M641.98,771.579a.212.212,0,0,0-.088.169.221.221,0,0,0,.038.127c.186.258.338.469.5.685a.217.217,0,0,0,.173.085.212.212,0,0,0,.169-.334c-.152-.2-.308-.418-.5-.681a.215.215,0,0,0-.292-.051Z" transform="translate(-627.439 -754.171)" fill="#099143"/>
          <path id="Path_2787888" data-name="Path 2787888" d="M331.512,606.9c-.275.008-.566.03-.858.063a.206.206,0,0,0-.144.08.2.2,0,0,0-.042.152.21.21,0,0,0,.207.19.055.055,0,0,0,.025,0h0c.287-.03.562-.051.82-.059a.216.216,0,0,0,.207-.22.21.21,0,0,0-.211-.2Z" transform="translate(-323.025 -593.232)" fill="#099143"/>
          <path id="Path_2787889" data-name="Path 2787889" d="M596.743,711.646a.2.2,0,0,0-.08.16.2.2,0,0,0,.051.135c.148.182.308.388.5.646a.021.021,0,0,0,.008.013,0,0,0,0,0,0,0,.208.208,0,0,0,.165.08.2.2,0,0,0,.127-.042.211.211,0,0,0,.042-.3c-.2-.266-.364-.482-.524-.676a.216.216,0,0,0-.3-.025Z" transform="translate(-583.228 -695.577)" fill="#099143"/>
          <path id="Path_2787890" data-name="Path 2787890" d="M2.267,28.3V18.123a.212.212,0,0,0-.087-.171,2.776,2.776,0,0,1-.52-3.984,1.644,1.644,0,0,0,.37-1L3.017,9.3l-.49,4.836a.211.211,0,0,0,.073.182L4.817,16.2V28.3a1.277,1.277,0,0,1-1.27,1.275h0A1.275,1.275,0,0,1,2.267,28.3ZM3.694,6.815A2.2,2.2,0,0,1,6.244,5.258a2.824,2.824,0,0,0,.813.335c.069.017.138.026.207.037L5.337,13.193l-.32-.3.608-4.022A.211.211,0,1,0,5.208,8.8l-.625,4.131a.211.211,0,0,0,.063.185l1.984,1.889a.833.833,0,0,1-1.113,1.238L2.959,14.072l.736-7.257ZM5.66,4.1A2.414,2.414,0,0,1,7.711.423,2.435,2.435,0,0,1,8.276.49,2.412,2.412,0,1,1,7.155,5.183,2.4,2.4,0,0,1,5.66,4.1Zm8.206,20.754a3.782,3.782,0,0,1-1.016-.794,4.566,4.566,0,0,1-1.163-3.037h9.1a4.567,4.567,0,0,1-1.163,3.037,3.793,3.793,0,0,1-1.016.794,1.636,1.636,0,0,0-1.021,1.518v3.207h-2.7V26.371a1.636,1.636,0,0,0-1.021-1.518ZM10.992,20.6a.218.218,0,0,1-.218-.217v-.877a.218.218,0,0,1,.218-.218H21.481a.218.218,0,0,1,.218.218v.877a.218.218,0,0,1-.218.217Zm10.79,1.624a2.386,2.386,0,0,0,2.383-2.383V17.926h.187a2.071,2.071,0,0,0,.612-.1v2.017a3.186,3.186,0,0,1-3.182,3.183h-1a5.067,5.067,0,0,0,.269-.8ZM23.316,17.5V7.929h1.037A1.673,1.673,0,0,1,26.024,9.6v6.232A1.673,1.673,0,0,1,24.353,17.5H23.316ZM.211,30H26.235a.211.211,0,1,0,0-.423H18.009V26.371a1.234,1.234,0,0,1,.792-1.143,4.191,4.191,0,0,0,1.131-.881,4.539,4.539,0,0,0,.645-.9h1.2a3.609,3.609,0,0,0,3.6-3.605v-2.2a2.087,2.087,0,0,0,1.06-1.809V9.6a2.1,2.1,0,0,0-2.094-2.094H23.1a.211.211,0,0,0-.211.211v10a.211.211,0,0,0,.211.211h.638v1.915A1.963,1.963,0,0,1,21.782,21.8h-.642a5.62,5.62,0,0,0,.068-.779h.273a.641.641,0,0,0,.64-.64v-.877a.641.641,0,0,0-.64-.64H10.992a.641.641,0,0,0-.64.64v.877a.641.641,0,0,0,.64.64h.273a4.984,4.984,0,0,0,1.276,3.324,4.19,4.19,0,0,0,1.131.881,1.234,1.234,0,0,1,.793,1.143v3.207H4.65A1.686,1.686,0,0,0,5.239,28.3V16.564l0,0a1.25,1.25,0,0,0,.81.3,1.268,1.268,0,0,0,.242-.024,1.247,1.247,0,0,0,.873-.65A1.261,1.261,0,0,0,6.922,14.7L5.688,13.527l2-7.857h.026A2.84,2.84,0,1,0,5.67,4.795,2.615,2.615,0,0,0,3.25,6.81L1.616,12.884a.214.214,0,0,0-.007.055,1.217,1.217,0,0,1-.276.763,3.2,3.2,0,0,0,.512,4.527V28.3a1.684,1.684,0,0,0,.5,1.2c.027.028.059.047.088.073H.211a.211.211,0,0,0,0,.423Z" transform="translate(0 0)" fill="#76706b"/>
        </g>
      </g>
    </g>
  </g>
</svg>
