<svg xmlns="http://www.w3.org/2000/svg" xmlns:xlink="http://www.w3.org/1999/xlink" width="30" height="30" viewBox="0 0 30 30">
  <defs>
    <clipPath id="clip-path">
      <rect id="Rectangle_187992" data-name="Rectangle 187992" width="30" height="30" transform="translate(-6259 6983)"/>
    </clipPath>
  </defs>
  <g id="Mask_Group_372" data-name="Mask Group 372" transform="translate(6259 -6983)" clip-path="url(#clip-path)">
    <g id="Artwork_64" data-name="Artwork 64" transform="translate(-6243.057 6998.909)">
      <g id="Group_768196" data-name="Group 768196" transform="translate(-15.477 -15.909)">
        <g id="Group_768185" data-name="Group 768185" transform="translate(0 14.418)">
          <g id="Group_768182" data-name="Group 768182" transform="translate(0 2.954)">
            <path id="Path_8276330" data-name="Path 8276330" d="M9.121,115.826a3.8,3.8,0,0,1-1.037-.171,2.323,2.323,0,0,0-.574-.11,2.32,2.32,0,0,0-.574.11,3.456,3.456,0,0,1-1.279.16C2.642,115.806,0,112.89,0,109.567c0-3.562,2.109-6.249,4.906-6.249a5.824,5.824,0,0,1,2.773,1.048.3.3,0,0,1-.338.5,5.085,5.085,0,0,0-2.436-.945c-2.452,0-4.3,2.426-4.3,5.643,0,2.664,2.167,5.643,5.066,5.643l.029,0a2.85,2.85,0,0,0,1.077-.14,2.78,2.78,0,0,1,.733-.131,2.779,2.779,0,0,1,.733.131,2.85,2.85,0,0,0,1.077.14l.029,0c2.9,0,5.066-2.979,5.066-5.643,0-3.217-1.849-5.643-4.3-5.643a2.959,2.959,0,0,0-.941.184.3.3,0,0,1-.2-.572,3.548,3.548,0,0,1,1.138-.217c2.8,0,4.906,2.686,4.906,6.249,0,3.323-2.642,6.239-5.657,6.248C9.28,115.823,9.2,115.826,9.121,115.826Z" transform="translate(0 -103.318)"/>
          </g>
          <g id="Group_768183" data-name="Group 768183" transform="translate(2.283 9.673)">
            <path id="Path_8276331" data-name="Path 8276331" d="M15.086,146.005a.3.3,0,0,1-.206-.081,4.376,4.376,0,0,1-1.3-2.279.3.3,0,0,1,.592-.124,3.767,3.767,0,0,0,1.115,1.961.3.3,0,0,1-.206.524Z" transform="translate(-13.578 -143.28)"/>
          </g>
          <g id="Group_768184" data-name="Group 768184" transform="translate(6.429)">
            <path id="Path_8276332" data-name="Path 8276332" d="M38.549,89.854a.3.3,0,0,1-.3-.28,3.611,3.611,0,0,1,2.314-3.8.3.3,0,1,1,.221.563,2.984,2.984,0,0,0-1.932,3.195.3.3,0,0,1-.279.325Z" transform="translate(-38.233 -85.75)"/>
          </g>
        </g>
        <g id="Group_768194" data-name="Group 768194" transform="translate(3.178)">
          <g id="Group_768190" data-name="Group 768190">
            <g id="Group_768186" data-name="Group 768186" transform="translate(17.198 2.995)">
              <path id="Path_8276333" data-name="Path 8276333" d="M125.76,23.223a.3.3,0,0,1-.3-.3V19.691a1.277,1.277,0,0,0-1.276-1.276h-2.7a.3.3,0,0,1,0-.605h2.7a1.883,1.883,0,0,1,1.881,1.881V22.92A.3.3,0,0,1,125.76,23.223Z" transform="translate(-121.181 -17.81)"/>
            </g>
            <g id="Group_768187" data-name="Group 768187" transform="translate(0 2.995)">
              <path id="Path_8276334" data-name="Path 8276334" d="M19.2,30.9a.3.3,0,0,1-.3-.3V19.691a1.883,1.883,0,0,1,1.881-1.881h4.756a.3.3,0,1,1,0,.605H20.779A1.277,1.277,0,0,0,19.5,19.691V30.6A.3.3,0,0,1,19.2,30.9Z" transform="translate(-18.898 -17.81)"/>
            </g>
            <g id="Group_768188" data-name="Group 768188" transform="translate(11.934 19.919)">
              <path id="Path_8276335" data-name="Path 8276335" d="M98.138,126.961H90.176a.3.3,0,1,1,0-.605h7.962a1.277,1.277,0,0,0,1.276-1.276v-6.312a.3.3,0,0,1,.605,0v6.312A1.883,1.883,0,0,1,98.138,126.961Z" transform="translate(-89.873 -118.466)"/>
            </g>
            <g id="Group_768189" data-name="Group 768189" transform="translate(6.334)">
              <path id="Path_8276336" data-name="Path 8276336" d="M65.123,4.337H57.43a.86.86,0,0,1-.859-.859V1.972a.86.86,0,0,1,.859-.859h.663V.859A.86.86,0,0,1,58.952,0H63.6a.86.86,0,0,1,.859.859v.254h.663a.86.86,0,0,1,.859.859V3.478A.86.86,0,0,1,65.123,4.337ZM57.43,1.718a.254.254,0,0,0-.254.254V3.478a.254.254,0,0,0,.254.254h7.693a.254.254,0,0,0,.254-.254V1.972a.254.254,0,0,0-.254-.254h-.966a.3.3,0,0,1-.3-.3V.859A.254.254,0,0,0,63.6.605H58.952A.254.254,0,0,0,58.7.859v.557a.3.3,0,0,1-.3.3Z" transform="translate(-56.571)"/>
            </g>
          </g>
          <g id="Group_768191" data-name="Group 768191" transform="translate(3.472 8.112)">
            <path id="Path_8276337" data-name="Path 8276337" d="M42.715,48.85H39.853a.3.3,0,1,1,0-.605h2.862a.3.3,0,1,1,0,.605Z" transform="translate(-39.55 -48.245)"/>
          </g>
          <g id="Group_768192" data-name="Group 768192" transform="translate(10.477 8.112)">
            <path id="Path_8276338" data-name="Path 8276338" d="M88.664,48.85H81.51a.3.3,0,1,1,0-.605h7.154a.3.3,0,1,1,0,.605Z" transform="translate(-81.207 -48.245)"/>
          </g>
          <g id="Group_768193" data-name="Group 768193" transform="translate(10.477 14.418)">
            <path id="Path_8276339" data-name="Path 8276339" d="M87.435,86.355H81.51a.3.3,0,1,1,0-.605h5.926a.3.3,0,1,1,0,.605Z" transform="translate(-81.207 -85.75)"/>
          </g>
        </g>
        <g id="Group_768195" data-name="Group 768195" transform="translate(20.298 9.32)">
          <path id="Path_8276340" data-name="Path 8276340" d="M121.648,66.23a.929.929,0,0,1-.923-1.022l.118-1.288a3.474,3.474,0,0,1,.661-1.739l4.571-6.233a1.248,1.248,0,0,1,1.738-.288l1.183.867a1.208,1.208,0,0,1,.484.817,1.268,1.268,0,0,1-.237.927L124.67,64.5a3.478,3.478,0,0,1-1.46,1.152h0l-1.193.5A.954.954,0,0,1,121.648,66.23Zm5.447-10.2a.663.663,0,0,0-.533.274l-4.571,6.233a2.866,2.866,0,0,0-.546,1.436l-.118,1.288a.325.325,0,0,0,.455.334l1.193-.5a2.87,2.87,0,0,0,1.206-.952l4.571-6.233a.663.663,0,0,0,.126-.486.607.607,0,0,0-.243-.411l-1.183-.868A.6.6,0,0,0,127.1,56.032Zm-4,9.345h0Z" transform="translate(-120.721 -55.427)"/>
        </g>
      </g>
    </g>
  </g>
</svg>
