<svg xmlns="http://www.w3.org/2000/svg" xmlns:xlink="http://www.w3.org/1999/xlink" width="35.5" height="35.5" viewBox="0 0 35.5 35.5">
  <defs>
    <clipPath id="clip-path">
      <rect id="Rectangle_177953" data-name="Rectangle 177953" width="35.5" height="35.5" transform="translate(-17912 -22356.25)"/>
    </clipPath>
  </defs>
  <g id="Mask_Group_422" data-name="Mask Group 422" transform="translate(17912 22356.25)" clip-path="url(#clip-path)">
    <g id="Artwork_3" data-name="Artwork 3" transform="translate(-17901.717 -22348.385)">
      <g id="Group_739477" data-name="Group 739477" transform="translate(-5.941 -7.865)">
        <path id="Path_7993019" data-name="Path 7993019" d="M45.877,19.772c-.005,1.26.006,5.264.015,8.7.006,2.207.012,4.177.012,5.022a1.85,1.85,0,0,0,.973,1.664,2.868,2.868,0,0,0,1.4.346,2.99,2.99,0,0,0,1.509-.391,2.039,2.039,0,0,0,.544-.461,2.024,2.024,0,0,0,.544.461,3.07,3.07,0,0,0,2.912.045,1.851,1.851,0,0,0,.973-1.664c0-.839,0-2.789.011-4.978.01-3.446.021-7.485.015-8.752,1.467-.632,2.922-1.567,3.05-2.721.119-1.078.12-4.81.12-4.969A4.742,4.742,0,0,0,54.57,7.538a.336.336,0,0,0-.038-.021l-1.322-.429A4.123,4.123,0,1,0,47.5,7.077l-1.332.431c-.006,0-.012,0-.018,0a4.746,4.746,0,0,0-3.466,4.562c0,.159,0,3.891.12,4.969C42.928,18.2,44.4,19.14,45.877,19.772Zm8.147,8.738c-.006,2.191-.011,4.141-.011,4.98a1.1,1.1,0,0,1-.595,1.014,2.345,2.345,0,0,1-2.16-.037,1.027,1.027,0,0,1-.552-.855c0-.018,0-.035,0-.053.037-2,0-10.484,0-10.57a.374.374,0,0,0-.748,0c0,.086-.037,8.572,0,10.57,0,.018,0,.035,0,.053a1.026,1.026,0,0,1-.552.855,2.34,2.34,0,0,1-2.16.037,1.1,1.1,0,0,1-.595-1.014c0-.846-.005-2.816-.012-5.024-.009-3.2-.019-6.9-.016-8.4a12.171,12.171,0,0,0,2.11.59,6.189,6.189,0,0,0,.859.073,2.051,2.051,0,0,0,.727-.127,2.032,2.032,0,0,0,.723.13,6.213,6.213,0,0,0,.86-.076,12.222,12.222,0,0,0,2.137-.6C54.044,21.57,54.034,25.3,54.024,28.51ZM46.984,4.123a3.375,3.375,0,1,1,5.3,2.771.508.508,0,0,0-.056.032,3.408,3.408,0,0,1-3.764-.013A3.372,3.372,0,0,1,46.984,4.123ZM46.34,8.232c.008,0,.017,0,.025,0l1.847-.6a4.075,4.075,0,0,0,2.146.616,4.016,4.016,0,0,0,2.133-.606l1.772.575c.01,0,.017.011.028.014a4,4,0,0,1,2.918,3.841c0,.038,0,3.849-.116,4.887-.091.822-1.434,1.642-2.818,2.215l-.023.009a11.427,11.427,0,0,1-2.455.735,2.643,2.643,0,0,1-1.243-.009.37.37,0,0,0-.125-.061.888.888,0,0,1-.292-.4,1.252,1.252,0,0,1-.08-.977.714.714,0,0,1,.465-.389h0s.008,0,.012,0L50.793,18c1.964-.594,3.972-1.361,3.972-2.549V12.962a.374.374,0,1,0-.748,0v2.486c0,.3-.447.928-3.441,1.833l-.258.08-.258-.08c-2.994-.906-3.441-1.537-3.441-1.833V12.962a.374.374,0,0,0-.748,0v2.486c0,1.132,1.823,1.879,3.693,2.461a1.358,1.358,0,0,0-.191.26,1.971,1.971,0,0,0,.083,1.584,1.836,1.836,0,0,0,.141.225,5.386,5.386,0,0,1-.76-.063,11.392,11.392,0,0,1-2.433-.725l-.011,0c-1.4-.574-2.761-1.4-2.852-2.229-.114-1.038-.115-4.849-.115-4.887A4,4,0,0,1,46.34,8.232Z" transform="translate(-36.911)"/>
        <path id="Path_7993020" data-name="Path 7993020" d="M0,47.673a.372.372,0,0,0,.147.247l1.761,1.312-.7,2.087a.373.373,0,0,0,.263.481l2.148.542.408,2.183a.374.374,0,0,0,.367.3.333.333,0,0,0,.069-.007.374.374,0,0,0,.3-.436l-.453-2.418a.373.373,0,0,0-.276-.293l-1.988-.5.658-1.961a.374.374,0,0,0-.131-.419L.9,47.545l1.263-1.67a.375.375,0,0,0,0-.45L.911,43.747l1.683-1.241a.373.373,0,0,0,.133-.419L2.072,40.12l1.99-.512a.374.374,0,0,0,.275-.3l.414-2.425a.375.375,0,0,0-.306-.432.383.383,0,0,0-.431.306l-.373,2.187L1.5,39.5a.373.373,0,0,0-.261.48l.7,2.09-1.768,1.3a.374.374,0,0,0-.077.525L1.4,45.648.075,47.395A.376.376,0,0,0,0,47.673Z" transform="translate(0 -31.521)"/>
        <path id="Path_7993021" data-name="Path 7993021" d="M163.532,51.97l-.453,2.418a.373.373,0,0,0,.3.436.339.339,0,0,0,.069.007.373.373,0,0,0,.367-.3l.409-2.183,2.148-.542a.373.373,0,0,0,.263-.481l-.7-2.087,1.76-1.312a.374.374,0,0,0,.075-.526l-1.321-1.747,1.311-1.755a.374.374,0,0,0-.078-.525l-1.767-1.3.7-2.09a.374.374,0,0,0-.261-.48l-2.144-.552-.373-2.187a.374.374,0,0,0-.738.127l.414,2.425a.376.376,0,0,0,.275.3l1.991.512-.655,1.967a.373.373,0,0,0,.132.419l1.683,1.241-1.253,1.679a.375.375,0,0,0,0,.45l1.263,1.67L165.27,48.8a.374.374,0,0,0-.131.419l.657,1.961-1.988.5A.372.372,0,0,0,163.532,51.97Z" transform="translate(-141.03 -31.522)"/>
        <path id="Path_7993022" data-name="Path 7993022" d="M145.35,223.37v-2.09a.374.374,0,1,0-.748,0v2.09a.374.374,0,0,0,.748,0Z" transform="translate(-125.055 -191.046)"/>
        <path id="Path_7993023" data-name="Path 7993023" d="M145.35,159.293a.374.374,0,1,0-.748,0v5.664a.374.374,0,0,0,.748,0Z" transform="translate(-125.055 -137.437)"/>
      </g>
    </g>
  </g>
</svg>
