<svg xmlns="http://www.w3.org/2000/svg" xmlns:xlink="http://www.w3.org/1999/xlink" width="30" height="30" viewBox="0 0 30 30">
  <defs>
    <clipPath id="clip-path">
      <rect id="Rectangle_175867" data-name="Rectangle 175867" width="30" height="30" transform="translate(-17270 -22184)"/>
    </clipPath>
  </defs>
  <g id="Mask_Group_389" data-name="Mask Group 389" transform="translate(17270 22184)" clip-path="url(#clip-path)">
    <g id="Insurance" transform="translate(-17198.277 -22105.291)">
      <g id="Group_734981" data-name="Group 734981" transform="translate(-67.421 -78.71)">
        <path id="Path_7937654" data-name="Path 7937654" d="M20.907,81.325a.3.3,0,0,1-.3-.3V79.532H19.114a.3.3,0,1,1,0-.6h1.494V77.441a.3.3,0,1,1,.6,0v1.494H22.7a.3.3,0,1,1,0,.6H21.205v1.494A.3.3,0,0,1,20.907,81.325Z" transform="translate(-15.229 -62.441)"/>
        <path id="Path_7937655" data-name="Path 7937655" d="M75.559,58.924a.3.3,0,1,1,0-.6H82.73a.3.3,0,1,1,0,.6Z" transform="translate(-60.918 -47.212)"/>
        <path id="Path_7937656" data-name="Path 7937656" d="M75.559,77.74a.3.3,0,0,1,0-.6H82.73a.3.3,0,0,1,0,.6Z" transform="translate(-60.918 -62.441)"/>
        <path id="Path_7937657" data-name="Path 7937657" d="M75.559,96.555a.3.3,0,1,1,0-.6H82.73a.3.3,0,1,1,0,.6Z" transform="translate(-60.918 -77.67)"/>
        <path id="Path_7937658" data-name="Path 7937658" d="M75.559,115.37a.3.3,0,0,1,0-.6H82.73a.3.3,0,0,1,0,.6Z" transform="translate(-60.918 -92.9)"/>
        <path id="Path_7937659" data-name="Path 7937659" d="M81.831,154.881a.3.3,0,1,1,.3-.3A.3.3,0,0,1,81.831,154.881Z" transform="translate(-65.994 -124.881)"/>
        <path id="Path_7937660" data-name="Path 7937660" d="M18.526,30a.3.3,0,1,1,0-.6H25.1V5.976H20.02a.3.3,0,0,1-.3-.3V.6H5.976V9.323H7.47a.3.3,0,0,1,.267.165,2.927,2.927,0,0,0,2.633,1.628h.685a.3.3,0,0,1,.3.3V16.5a8.153,8.153,0,0,1-5.189,7.6l-.19.074V29.4h7.171a.3.3,0,0,1,0,.6H5.677a.3.3,0,0,1-.3-.3V24.178l-.19-.074A8.154,8.154,0,0,1,0,16.5V11.414a.3.3,0,0,1,.3-.3H.984A2.928,2.928,0,0,0,3.617,9.488a.3.3,0,0,1,.267-.165H5.379V.3a.3.3,0,0,1,.3-.3H20.02a.309.309,0,0,1,.211.087l5.379,5.379a.3.3,0,0,1,.087.211V29.7a.3.3,0,0,1-.3.3ZM.6,16.5a7.589,7.589,0,0,0,4.977,7.11l.1.037.1-.037a7.589,7.589,0,0,0,4.977-7.11V11.713h-.386a3.516,3.516,0,0,1-3-1.653l-.088-.14H4.068l-.088.14a3.516,3.516,0,0,1-3,1.653H.6ZM20.319,5.379h4.358L20.319,1.02Z"/>
      </g>
    </g>
  </g>
</svg>
