<svg xmlns="http://www.w3.org/2000/svg" width="30" height="30" viewBox="0 0 30 30">
  <g id="Emergency" transform="translate(19.689 19.689)">
    <g id="Group_607289" data-name="Group 607289" transform="translate(-19.69 -19.69)">
      <path id="Path_6257776" data-name="Path 6257776" d="M133.886,77.74a.3.3,0,1,1,0-.6h3.944a.3.3,0,0,1,0,.6Z" transform="translate(-108.129 -62.441)"/>
      <path id="Path_6257777" data-name="Path 6257777" d="M.3,77.74a.3.3,0,1,1,0-.6H4.243a.3.3,0,1,1,0,.6Z" transform="translate(0 -62.441)"/>
      <path id="Path_6257778" data-name="Path 6257778" d="M77.441,4.542a.3.3,0,0,1-.3-.3V.3a.3.3,0,0,1,.6,0V4.243A.3.3,0,0,1,77.441,4.542Z" transform="translate(-62.441 0)"/>
      <path id="Path_6257779" data-name="Path 6257779" d="M26.758,27.056a.3.3,0,0,1-.211-.087l-2.536-2.536a.3.3,0,0,1,.423-.423l2.536,2.536a.3.3,0,0,1-.211.51Z" transform="translate(-19.365 -19.364)"/>
      <path id="Path_6257780" data-name="Path 6257780" d="M117.354,27.056a.3.3,0,0,1-.211-.51l2.536-2.536a.3.3,0,0,1,.423.423l-2.536,2.536a.3.3,0,0,1-.211.087Z" transform="translate(-94.748 -19.364)"/>
      <path id="Path_6257781" data-name="Path 6257781" d="M77.441,154.881a.3.3,0,1,1,.3-.3A.3.3,0,0,1,77.441,154.881Z" transform="translate(-62.441 -124.881)"/>
      <path id="Path_6257782" data-name="Path 6257782" d="M26.827,61.982a.3.3,0,0,1,0-.6H32.8V59.89A1.5,1.5,0,0,0,31.309,58.4H16.966a1.5,1.5,0,0,0-1.494,1.494v1.494h5.976a.3.3,0,0,1,0,.6H11.588a.3.3,0,0,1,0-.6h3.287V59.89a2.092,2.092,0,0,1,1.569-2.026l.224-.058V46.982a7.47,7.47,0,1,1,14.94,0V57.807l.224.058A2.092,2.092,0,0,1,33.4,59.89v1.494h3.287a.3.3,0,1,1,0,.6ZM24.138,44.89a2.092,2.092,0,0,1,.523,4.117l-.224.058V57.8H31.01V46.982a6.872,6.872,0,1,0-13.745,0V57.8h6.574V49.065l-.224-.058a2.092,2.092,0,0,1,.523-4.117Zm0,.6a1.494,1.494,0,1,0,1.494,1.494A1.5,1.5,0,0,0,24.138,45.488Z" transform="translate(-9.138 -31.982)"/>
    </g>
  </g>
</svg>
