<svg xmlns="http://www.w3.org/2000/svg" xmlns:xlink="http://www.w3.org/1999/xlink" width="30" height="30" viewBox="0 0 30 30">
  <defs>
    <clipPath id="clip-path">
      <rect id="Rectangle_177911" data-name="Rectangle 177911" width="30" height="30" transform="translate(676 9870)" fill="#fff"/>
    </clipPath>
  </defs>
  <g id="Mask_Group_407" data-name="Mask Group 407" transform="translate(-676 -9870)" clip-path="url(#clip-path)">
    <g id="Artwork_1" data-name="Artwork 1" transform="translate(696.333 9888.722)">
      <g id="Group_6145" data-name="Group 6145" transform="translate(-16.108 -18.793)">
        <path id="Path_5923" data-name="Path 5923" d="M105.546,173.036a.314.314,0,0,0-.173.411,5.419,5.419,0,0,0,4.589,3.645.321.321,0,0,0,.062.006.316.316,0,0,0,.062-.626c-2.544-.505-3.44-1.58-4.129-3.264A.314.314,0,0,0,105.546,173.036Z" transform="translate(-93.328 -153.269)" fill="#099143"/>
        <path id="Path_5924" data-name="Path 5924" d="M191.086,36.134h2.07a.316.316,0,1,0,0-.631h-2.07a.316.316,0,0,0,0,.631Z" transform="translate(-169.001 -31.452)" fill="#099143"/>
        <path id="Path_5925" data-name="Path 5925" d="M2.24,25.2A2.019,2.019,0,0,0,.269,26.669a1.981,1.981,0,0,0,.353,1.71,1.957,1.957,0,0,0,1.551.757H3.982A3.074,3.074,0,0,0,2.8,31.546V43.207a2.259,2.259,0,0,0,4.517,0V32.983H9.535v1.923a6.765,6.765,0,0,0,6,6.712l-.421,2.66a1.024,1.024,0,0,0,1.012,1.183h5.52a.316.316,0,0,0,0-.631h-5.52a.393.393,0,0,1-.389-.454l.429-2.713h9.158v3.167h-1.28a.316.316,0,0,0,0,.631h1.6a.316.316,0,0,0,.316-.316V23.714a2.655,2.655,0,0,0-5.31,0v8.634H15.789a4.3,4.3,0,0,0,2.086-3.671V24.384a7.02,7.02,0,0,0-7.009-7.011h-.519a1.4,1.4,0,0,0-1.4,1.4v5.071A1.363,1.363,0,0,1,7.587,25.2Zm19.04-1.49a2.024,2.024,0,1,1,4.047,0v8.634H21.279Zm-.316,9.265h4.363v8.054H16.293a6.133,6.133,0,0,1-6.126-6.126V32.983h3.4c.017,0,.032,0,.049,0ZM9.58,23.842V18.771A.768.768,0,0,1,10.348,18h.519a6.388,6.388,0,0,1,6.378,6.38v4.292a3.677,3.677,0,0,1-3.627,3.671H9.851c-.009,0-.016,0-.024,0H7a.316.316,0,0,0-.316.316V43.207a1.627,1.627,0,0,1-3.255,0V31.546A2.453,2.453,0,0,1,5.52,29.137l4.634,0a2.773,2.773,0,0,0,2.77-2.77V21.956a.316.316,0,0,0-.631,0v4.408A2.141,2.141,0,0,1,10.154,28.5l-4.665,0H2.173a1.329,1.329,0,0,1-1.054-.515,1.352,1.352,0,0,1-.238-1.169,1.381,1.381,0,0,1,1.358-.987H7.587A2,2,0,0,0,9.58,23.842Z" transform="translate(-0.183 -15.391)" fill="#76706b"/>
        <path id="Path_5926" data-name="Path 5926" d="M3.771,7.542A3.771,3.771,0,1,0,0,3.771,3.775,3.775,0,0,0,3.771,7.542Zm0-6.911a3.14,3.14,0,1,1-3.14,3.14A3.144,3.144,0,0,1,3.771.631Z" fill="#099143"/>
      </g>
    </g>
  </g>
</svg>
