<svg xmlns="http://www.w3.org/2000/svg" xmlns:xlink="http://www.w3.org/1999/xlink" width="30" height="30" viewBox="0 0 30 30">
  <defs>
    <clipPath id="clip-path">
      <rect id="Rectangle_175863" data-name="Rectangle 175863" width="30" height="30" transform="translate(-22081 -9147)"/>
    </clipPath>
  </defs>
  <g id="Mask_Group_385" data-name="Mask Group 385" transform="translate(22081 9147)" clip-path="url(#clip-path)">
    <g id="Artwork_175" data-name="Artwork 175" transform="translate(-22063.652 -9130.747)">
      <g id="Group_734972" data-name="Group 734972" transform="translate(-14.958 -16.253)">
        <path id="Path_7937651" data-name="Path 7937651" d="M.3,30a.3.3,0,0,1-.3-.3V22.557a4.955,4.955,0,0,1,3.706-4.794l7.133-1.856V14.865l-.138-.088A5.768,5.768,0,0,1,8.019,9.9V5.705A5.712,5.712,0,0,1,13.724,0h.162a5.712,5.712,0,0,1,5.705,5.705V9.9a5.771,5.771,0,0,1-2.65,4.86l-.136.088v1.062l7.1,1.854a4.956,4.956,0,0,1,3.7,4.794V22.8a.3.3,0,0,1-.6,0v-.245a4.358,4.358,0,0,0-3.256-4.215l-3.454-.9.591.714A5.9,5.9,0,0,1,22.252,21.9v2.6l.2.07a1.527,1.527,0,1,1-1,0l.2-.07V21.9a5.313,5.313,0,0,0-3.441-4.955l-.258-.1-3.831,8.193V29.4H27.012V28.177a.3.3,0,0,1,.6,0V29.7a.3.3,0,0,1-.3.3ZM3.857,18.341A4.358,4.358,0,0,0,.6,22.557V29.4H13.526V25.058l-3.84-8.214-.257.094A5.307,5.307,0,0,0,5.956,21.9v.522l.234.052a2.48,2.48,0,0,1,1.931,2.406v2.362a.3.3,0,0,1-.3.3H6.909a.3.3,0,1,1,0-.6h.615V24.884a1.867,1.867,0,1,0-3.734,0v2.063h.53a.3.3,0,1,1,0,.6H3.491a.3.3,0,0,1-.3-.3V24.884a2.48,2.48,0,0,1,1.931-2.406l.234-.052V21.9a5.9,5.9,0,0,1,1.353-3.748l.588-.712Zm18.1,6.748a.929.929,0,1,0,.929.929A.93.93,0,0,0,21.953,25.089ZM11.437,16.137a.3.3,0,0,1-.224.289l-.941.26,3.55,7.593,3.544-7.58-.936-.274a.3.3,0,0,1-.223-.289v-.96l-.4.149a5.789,5.789,0,0,1-3.967.012l-.4-.145ZM8.616,9.9a5.189,5.189,0,0,0,10.377,0V7.419l-.255-.038a3.751,3.751,0,0,1-2.19-1.156l-.232-.25-.217.263a3.248,3.248,0,0,1-2.511,1.186H8.616Zm7.929-6.027a.3.3,0,0,1,.3.3,3.239,3.239,0,0,1-.177,1.056l-.055.161.285.334a3.162,3.162,0,0,0,1.736,1.037l.361.077V5.705A5.113,5.113,0,0,0,13.886.6h-.162A5.113,5.113,0,0,0,8.616,5.705v1.12h4.972a2.661,2.661,0,0,0,2.658-2.658A.3.3,0,0,1,16.545,3.869Z"/>
        <path id="Path_7937652" data-name="Path 7937652" d="M84.756,138.732a.3.3,0,0,1-.211-.51.306.306,0,0,1,.211-.088.3.3,0,0,1,.212.509A.306.306,0,0,1,84.756,138.732Z" transform="translate(-68.362 -111.809)"/>
        <path id="Path_7937653" data-name="Path 7937653" d="M142.039,132.774a.3.3,0,1,1,.211-.088A.3.3,0,0,1,142.039,132.774Z" transform="translate(-114.728 -106.987)"/>
      </g>
    </g>
  </g>
</svg>
