<svg xmlns="http://www.w3.org/2000/svg" xmlns:xlink="http://www.w3.org/1999/xlink" width="30" height="30" viewBox="0 0 30 30">
  <defs>
    <clipPath id="clip-path">
      <rect id="Rectangle_186990" data-name="Rectangle 186990" width="30" height="30" transform="translate(-19511 -22114)" fill="#fff"/>
    </clipPath>
  </defs>
  <g id="Mask_Group_450" data-name="Mask Group 450" transform="translate(19511 22114)" clip-path="url(#clip-path)">
    <g id="Artwork_151" data-name="Artwork 151" transform="translate(-19428.51 -22039.375)">
      <g id="Group_769011" data-name="Group 769011" transform="translate(-82.491 -72.877)">
        <g id="Group_768999" data-name="Group 768999">
          <g id="Group_768998" data-name="Group 768998">
            <g id="Group_768995" data-name="Group 768995" transform="translate(3.145 10.008)">
              <path id="Path_8276929" data-name="Path 8276929" d="M25.271,58.579H18.109a.816.816,0,1,1,.024-1.632,2.659,2.659,0,0,0,1.681-.453.806.806,0,0,0,.25-.624,2.063,2.063,0,0,1,.057-.484.455.455,0,1,1,.884.213,1.134,1.134,0,0,0-.031.27,1.725,1.725,0,0,1-.534,1.285,2.378,2.378,0,0,1-.912.515h4.131a2.281,2.281,0,0,1-.8-.458,1.762,1.762,0,0,1-.567-1.343,1.314,1.314,0,0,0-.029-.281.455.455,0,0,1,.889-.192,2.239,2.239,0,0,1,.05.473.844.844,0,0,0,.27.67,2.687,2.687,0,0,0,1.763.409l.042,0a.816.816,0,0,1,0,1.632Z" transform="translate(-17.293 -55.038)"/>
            </g>
            <g id="Group_768996" data-name="Group 768996">
              <path id="Path_8276930" data-name="Path 8276930" d="M13.77,10.918H8.553a.455.455,0,1,1,0-.909H13.77a.253.253,0,0,0,.253-.253V1.162A.253.253,0,0,0,13.77.909H1.162a.253.253,0,0,0-.253.253V9.755a.253.253,0,0,0,.253.253h5.1a.455.455,0,0,1,0,.909h-5.1A1.164,1.164,0,0,1,0,9.755V1.162A1.163,1.163,0,0,1,1.162,0H13.77a1.163,1.163,0,0,1,1.162,1.162V9.755A1.164,1.164,0,0,1,13.77,10.918Z"/>
            </g>
            <g id="Group_768997" data-name="Group 768997" transform="translate(1.637 1.547)">
              <path id="Path_8276931" data-name="Path 8276931" d="M20.2,15.659H9.456A.455.455,0,0,1,9,15.2V8.965a.455.455,0,0,1,.455-.455H20.2a.455.455,0,0,1,.455.455V15.2A.455.455,0,0,1,20.2,15.659ZM9.91,14.749h9.84V9.419H9.91Z" transform="translate(-9.001 -8.51)"/>
            </g>
          </g>
        </g>
        <g id="Group_769004" data-name="Group 769004" transform="translate(15.068 12.955)">
          <g id="Group_769003" data-name="Group 769003">
            <g id="Group_769000" data-name="Group 769000" transform="translate(3.145 10.008)">
              <path id="Path_8276932" data-name="Path 8276932" d="M108.136,129.822h-7.162a.816.816,0,1,1,0-1.632H101a2.66,2.66,0,0,0,1.682-.454.8.8,0,0,0,.249-.624,2.07,2.07,0,0,1,.057-.483.455.455,0,0,1,.884.212,1.163,1.163,0,0,0-.032.271,1.725,1.725,0,0,1-.534,1.285,2.377,2.377,0,0,1-.912.515h4.129a2.28,2.28,0,0,1-.8-.458,1.762,1.762,0,0,1-.567-1.343,1.317,1.317,0,0,0-.029-.281.455.455,0,1,1,.889-.192,2.227,2.227,0,0,1,.05.473.844.844,0,0,0,.27.67,2.687,2.687,0,0,0,1.763.409l.042,0a.816.816,0,1,1,0,1.632Z" transform="translate(-100.158 -126.281)"/>
            </g>
            <g id="Group_769001" data-name="Group 769001">
              <path id="Path_8276933" data-name="Path 8276933" d="M96.635,82.16H91.418a.455.455,0,1,1,0-.909h5.216A.253.253,0,0,0,96.888,81V72.4a.253.253,0,0,0-.253-.253H84.027a.253.253,0,0,0-.253.253V81a.253.253,0,0,0,.253.253h5.1a.455.455,0,1,1,0,.909h-5.1A1.163,1.163,0,0,1,82.865,81V72.4a1.164,1.164,0,0,1,1.162-1.163H96.635A1.164,1.164,0,0,1,97.8,72.4V81A1.164,1.164,0,0,1,96.635,82.16Z" transform="translate(-82.865 -71.242)"/>
            </g>
            <g id="Group_769002" data-name="Group 769002" transform="translate(1.637 1.548)">
              <path id="Path_8276934" data-name="Path 8276934" d="M103.07,86.9H92.321a.455.455,0,0,1-.455-.455V80.209a.455.455,0,0,1,.455-.455h10.75a.455.455,0,0,1,.455.455v6.239A.455.455,0,0,1,103.07,86.9Zm-10.295-.909h9.84v-5.33h-9.84Z" transform="translate(-91.866 -79.754)"/>
            </g>
          </g>
        </g>
        <g id="Group_769007" data-name="Group 769007" transform="translate(14.023 1.114)">
          <g id="Group_769005" data-name="Group 769005">
            <path id="Path_8276935" data-name="Path 8276935" d="M86.5,10.916a.454.454,0,0,1-.365-.183c-.109-.146-.224-.291-.342-.43a9.206,9.206,0,0,0-8.172-3.2.455.455,0,1,1-.111-.9,10.115,10.115,0,0,1,8.977,3.515c.13.154.257.313.377.473a.455.455,0,0,1-.364.727Z" transform="translate(-77.115 -6.124)"/>
          </g>
          <g id="Group_769006" data-name="Group 769006" transform="translate(7.237 3.034)">
            <path id="Path_8276936" data-name="Path 8276936" d="M120.533,27.414a.454.454,0,0,1-.235-.066l-3.165-1.912a.455.455,0,0,1,.016-.787l3.239-1.785a.455.455,0,0,1,.674.407l-.074,3.7a.455.455,0,0,1-.455.446Zm-2.256-2.349,1.817,1.1.043-2.122Z" transform="translate(-116.913 -22.808)"/>
          </g>
        </g>
        <g id="Group_769010" data-name="Group 769010" transform="translate(4.576 15.262)">
          <g id="Group_769008" data-name="Group 769008" transform="translate(1.541 2.848)">
            <path id="Path_8276937" data-name="Path 8276937" d="M41.831,104.386h-.108a10.118,10.118,0,0,1-7.62-3.591c-.129-.153-.256-.312-.376-.473a.455.455,0,0,1,.728-.545c.11.147.225.291.343.43a9.208,9.208,0,0,0,8.172,3.2.454.454,0,1,1,.112.9A10.172,10.172,0,0,1,41.831,104.386Z" transform="translate(-33.636 -99.594)"/>
          </g>
          <g id="Group_769009" data-name="Group 769009">
            <path id="Path_8276938" data-name="Path 8276938" d="M25.617,88.536a.455.455,0,0,1-.454-.464l.074-3.7a.455.455,0,0,1,.69-.38l3.165,1.912a.455.455,0,0,1-.016.787l-3.239,1.785A.455.455,0,0,1,25.617,88.536Zm.513-3.355L26.087,87.3l1.859-1.024Z" transform="translate(-25.162 -83.93)"/>
          </g>
        </g>
      </g>
    </g>
  </g>
</svg>
