<svg xmlns="http://www.w3.org/2000/svg" xmlns:xlink="http://www.w3.org/1999/xlink" width="30" height="30" viewBox="0 0 30 30">
  <defs>
    <clipPath id="clip-path">
      <rect id="Rectangle_182553" data-name="Rectangle 182553" width="30" height="30" transform="translate(-17541 -22185)" fill="#fff"/>
    </clipPath>
  </defs>
  <g id="Mask_Group_430" data-name="Mask Group 430" transform="translate(17541.001 22184.999)" clip-path="url(#clip-path)">
    <g id="Layer_2" data-name="Layer 2" transform="translate(-17540.998 -22181)">
      <g id="ëÎÓÈ_1" data-name="ëÎÓÈ 1" transform="translate(-0.002)">
        <path id="Path_8157835" data-name="Path 8157835" d="M39.51,34.422h-.676v-2.7a2.964,2.964,0,0,0-3.16-3.042H33.206a2.971,2.971,0,0,0-3.16,3.042v2.7H29.37v-2.7A3.653,3.653,0,0,1,33.206,28h2.461A3.657,3.657,0,0,1,39.5,31.718Z" transform="translate(-19.442 -18.536)"/>
        <path id="Path_8157836" data-name="Path 8157836" d="M40.236,15.979a2.212,2.212,0,0,1-2.126-2.491,2.154,2.154,0,1,1,4.256,0A2.214,2.214,0,0,1,40.236,15.979Zm0-4.3c-1.068,0-1.45.936-1.45,1.812s.382,1.815,1.45,1.815,1.453-.936,1.453-1.815S41.308,11.676,40.236,11.676Z" transform="translate(-25.228 -7.282)"/>
        <path id="Path_8157837" data-name="Path 8157837" d="M40.9,39.612H35.21V38.578l-.291-2.326a.811.811,0,0,1,.193-.625.8.8,0,0,1,.595-.267H40.4a.8.8,0,0,1,.595.267.811.811,0,0,1,.193.625L40.9,38.588Zm-5.013-.676h4.337v-.423l.294-2.366a.116.116,0,0,0-.115-.132H35.707a.116.116,0,0,0-.115.132l.294,2.4Z" transform="translate(-23.112 -23.408)"/>
        <path id="Path_8157838" data-name="Path 8157838" d="M38.524,46.676H27.708a.338.338,0,1,1,0-.676H38.524a.338.338,0,0,1,0,.676Z" transform="translate(-18.118 -30.451)"/>
        <path id="Path_8157839" data-name="Path 8157839" d="M21.43,25a.338.338,0,0,1-.162-.041,9.464,9.464,0,0,1,0-16.6.342.342,0,1,1,.338.595,8.788,8.788,0,0,0,0,15.407A.338.338,0,0,1,21.44,25Z" transform="translate(-10.826 -5.506)"/>
        <path id="Path_8157840" data-name="Path 8157840" d="M13.06,3.38a1.69,1.69,0,1,1,1.69-1.69A1.69,1.69,0,0,1,13.06,3.38Zm0-2.7A1.014,1.014,0,1,0,14.074,1.69,1.014,1.014,0,0,0,13.06.676Z" transform="translate(-7.526 0)"/>
        <path id="Path_8157841" data-name="Path 8157841" d="M20.635,9.6a.338.338,0,0,1-.24-.1L18.437,7.541a.338.338,0,1,1,.48-.477L20.871,9a.338.338,0,0,1-.237.578Z" transform="translate(-12.14 -4.61)"/>
        <path id="Path_8157842" data-name="Path 8157842" d="M1.689,31.38a1.69,1.69,0,1,1,1.193-2.887h0A1.69,1.69,0,0,1,1.689,31.38Zm0-2.7a1.014,1.014,0,1,0,1,.815A1.014,1.014,0,0,0,1.689,28.676Z" transform="translate(0.002 -18.536)"/>
        <path id="Path_8157843" data-name="Path 8157843" d="M11.293,32.676H8.528a.338.338,0,1,1,0-.676h2.765a.338.338,0,1,1,0,.676Z" transform="translate(-5.421 -21.184)"/>
        <path id="Path_8157844" data-name="Path 8157844" d="M13.12,59.38a1.69,1.69,0,1,1,1.69-1.69,1.69,1.69,0,0,1-1.69,1.69Zm0-2.7a1.014,1.014,0,1,0,1.014,1.014A1.014,1.014,0,0,0,13.12,56.676Z" transform="translate(-7.566 -37.071)"/>
        <path id="Path_8157845" data-name="Path 8157845" d="M18.731,53.846a.338.338,0,0,1-.237-.578l1.954-1.954a.338.338,0,1,1,.48.477l-1.957,1.95a.338.338,0,0,1-.24.1Z" transform="translate(-12.176 -33.903)"/>
        <path id="Path_8157846" data-name="Path 8157846" d="M56.719,25.056a.338.338,0,0,1-.166-.632,8.788,8.788,0,0,0,0-15.41.341.341,0,0,1,.338-.592,9.464,9.464,0,0,1,0,16.593.338.338,0,0,1-.172.041Z" transform="translate(-37.324 -5.546)"/>
        <path id="Path_8157847" data-name="Path 8157847" d="M69.06,3.43a1.69,1.69,0,1,1,1.69-1.69A1.69,1.69,0,0,1,69.06,3.43Zm0-2.7A1.014,1.014,0,1,0,70.074,1.74,1.014,1.014,0,0,0,69.06.726Z" transform="translate(-44.598 -0.033)"/>
        <path id="Path_8157848" data-name="Path 8157848" d="M62.961,9.65a.338.338,0,0,1-.237-.578l1.954-1.957a.339.339,0,0,1,.48.48L63.2,9.549A.338.338,0,0,1,62.961,9.65Z" transform="translate(-41.456 -4.644)"/>
        <path id="Path_8157849" data-name="Path 8157849" d="M80.441,31.43a1.69,1.69,0,0,1-1.2-2.883h0a1.69,1.69,0,1,1,1.2,2.883Zm-.717-2.407a1.015,1.015,0,1,0,1.435,0,1.015,1.015,0,0,0-1.435,0Z" transform="translate(-52.132 -18.569)"/>
        <path id="Path_8157850" data-name="Path 8157850" d="M73.476,32.726H70.708a.338.338,0,1,1,0-.676h2.768a.338.338,0,1,1,0,.676Z" transform="translate(-46.583 -21.217)"/>
        <path id="Path_8157851" data-name="Path 8157851" d="M69.01,59.38a1.69,1.69,0,1,1,1.69-1.69A1.69,1.69,0,0,1,69.01,59.38Zm0-2.7a1.014,1.014,0,1,0,1.014,1.014A1.014,1.014,0,0,0,69.01,56.676Z" transform="translate(-44.564 -37.071)"/>
        <path id="Path_8157852" data-name="Path 8157852" d="M64.858,53.9a.338.338,0,0,1-.237-.1l-1.957-1.93a.338.338,0,0,1,.477-.48L65.1,53.345a.315.315,0,0,1-.24.551Z" transform="translate(-41.416 -33.953)"/>
      </g>
    </g>
  </g>
</svg>
