<svg xmlns="http://www.w3.org/2000/svg" xmlns:xlink="http://www.w3.org/1999/xlink" width="30" height="30" viewBox="0 0 30 30">
  <defs>
    <clipPath id="clip-path">
      <rect id="Rectangle_177907" data-name="Rectangle 177907" width="30" height="30" transform="translate(674 9659)" fill="#fff"/>
    </clipPath>
  </defs>
  <g id="Mask_Group_403" data-name="Mask Group 403" transform="translate(-674 -9659)" clip-path="url(#clip-path)">
    <g id="Artwork_108" data-name="Artwork 108" transform="translate(694.963 9678.174)">
      <g id="Group_306260" data-name="Group 306260" transform="translate(-15.733 -18.764)">
        <g id="Group_306258" data-name="Group 306258">
          <path id="Path_2788241" data-name="Path 2788241" d="M40.457,138.6c.118,1.176,1.162,2.114,1.687,3.125a3.933,3.933,0,0,1,.578,1.655,2.361,2.361,0,1,1-4.721.042,4.667,4.667,0,0,1,.671-1.955" transform="translate(-32.368 -117.445)" fill="none" stroke="#099143" stroke-linecap="round" stroke-linejoin="round" stroke-width="0.595"/>
          <g id="Group_306257" data-name="Group 306257">
            <path id="Path_2788242" data-name="Path 2788242" d="M5.574,15.346a3.759,3.759,0,0,0-3.152,1.12A3.342,3.342,0,0,0,4.37,22.092c2.077.281,3.812-1.82,5.442-1.421.558.137,1.267.37,1.267.37l.067.019a5.629,5.629,0,0,0,4.466-.646c1.683-1.032,3.681-2.976.947-5.511,0,0-7.927-7.023-7.384-13.4" transform="translate(-1.5 -1.5)" fill="none" stroke="#76706b" stroke-linecap="round" stroke-linejoin="round" stroke-width="0.595"/>
          </g>
        </g>
        <g id="Group_306259" data-name="Group 306259" transform="translate(11.584 15.771)">
          <path id="Path_2788243" data-name="Path 2788243" d="M78.36,114.32a3.051,3.051,0,0,1-1.719-2.07,2.281,2.281,0,0,1-.029-.926c.206-1.1,1.277-1.782,2.249-2.333l7.072-4.008a14.882,14.882,0,0,1,1.553-.8c.362-.152,1.347-.612,1.739-.429.347.163.216,1.254.188,1.625-.057.763-.287,2.582-1.18,2.857a.421.421,0,0,1-.061-.171.617.617,0,0,0-.223-.411c-.832-.5-.678,1.965-.686,2.289q-.041,1.687.021,3.375a6.21,6.21,0,0,1-.064,1.54c-.086.4-.612,1.632-1.19,1.214a.792.792,0,0,1-.27-.481,3.949,3.949,0,0,0-.228-.791c-.287.234-.517,2.217-.016,2.322A46.366,46.366,0,0,1,78.36,114.32Z" transform="translate(-76.578 -103.712)" fill="none" stroke="#76706b" stroke-linecap="round" stroke-linejoin="round" stroke-width="0.595"/>
          <line id="Line_3852" data-name="Line 3852" x1="4.701" y1="1.07" transform="translate(4.253 10.017)" fill="none" stroke="#76706b" stroke-linecap="round" stroke-linejoin="round" stroke-width="0.595"/>
          <line id="Line_3853" data-name="Line 3853" x1="3.762" y2="2.073" transform="translate(7.176 4.008)" fill="none" stroke="#76706b" stroke-linecap="round" stroke-linejoin="round" stroke-width="0.595"/>
        </g>
      </g>
    </g>
  </g>
</svg>
