<svg xmlns="http://www.w3.org/2000/svg" xmlns:xlink="http://www.w3.org/1999/xlink" width="30" height="30" viewBox="0 0 30 30">
  <defs>
    <clipPath id="clip-path">
      <rect id="Rectangle_177906" data-name="Rectangle 177906" width="30" height="30" transform="translate(676 9778)" fill="#fff"/>
    </clipPath>
  </defs>
  <g id="Mask_Group_405" data-name="Mask Group 405" transform="translate(-676 -9778)" clip-path="url(#clip-path)">
    <g id="Artwork_112" data-name="Artwork 112" transform="translate(696.756 9798.449)">
      <g id="Group_306241" data-name="Group 306241" transform="translate(-20.405 -19.318)">
        <g id="Group_306240" data-name="Group 306240" transform="translate(8.823)">
          <path id="Path_2788159" data-name="Path 2788159" d="M74.908,7.9s.1,6.311-3.454,9.05a4.339,4.339,0,0,1-5.325,0c-3.555-2.739-3.454-9.05-3.454-9.05a6.123,6.123,0,1,1,12.233,0Z" transform="translate(-62.673 -1.5)" fill="none" stroke="#76706b" stroke-linecap="round" stroke-linejoin="round" stroke-width="0.603"/>
          <path id="Path_2788160" data-name="Path 2788160" d="M99.233,82.9c0,.447-.532.81-1.188.81s-1.188-.363-1.188-.81.532-.81,1.188-.81S99.233,82.455,99.233,82.9Z" transform="translate(-91.926 -70.468)" fill="none" stroke="#099143" stroke-linecap="round" stroke-linejoin="round" stroke-width="0.603"/>
          <g id="Group_306239" data-name="Group 306239" transform="translate(2.303 6.304)">
            <path id="Path_2788161" data-name="Path 2788161" d="M78.638,46l2.195-.79.306.79" transform="translate(-78.638 -45.211)" fill="none" stroke="#76706b" stroke-linecap="round" stroke-linejoin="round" stroke-width="0.603"/>
            <path id="Path_2788162" data-name="Path 2788162" d="M116.718,46l-2.195-.79-.306.79" transform="translate(-109.086 -45.211)" fill="none" stroke="#76706b" stroke-linecap="round" stroke-linejoin="round" stroke-width="0.603"/>
          </g>
        </g>
        <path id="Path_2788163" data-name="Path 2788163" d="M85.165,117.045l.786-.207,1.968-1.163a.529.529,0,0,0-.428-.964l-2.239.95-1.211.387a4.6,4.6,0,0,1-2.162.154l-1.359-.228a.936.936,0,0,1-.753-.7h0a1.326,1.326,0,0,1-.019-.55l.043-.241" transform="translate(-68.444 -98.19)" fill="none" stroke="#76706b" stroke-linecap="round" stroke-linejoin="round" stroke-width="0.603"/>
        <path id="Path_2788164" data-name="Path 2788164" d="M121.858,121.046a.564.564,0,0,1,.7.221.556.556,0,0,1-.054.616l-2.2,1.774-1.184.362" transform="translate(-102.154 -103.767)" fill="none" stroke="#76706b" stroke-linecap="round" stroke-linejoin="round" stroke-width="0.603"/>
        <path id="Path_2788165" data-name="Path 2788165" d="M121.5,130.42a.521.521,0,0,1,.431.206.5.5,0,0,1,.018.531l-1.565,1.626-1.814.688" transform="translate(-101.684 -111.826)" fill="none" stroke="#76706b" stroke-linecap="round" stroke-linejoin="round" stroke-width="0.603"/>
        <path id="Path_2788166" data-name="Path 2788166" d="M74.574,140.2a.537.537,0,0,1,.518.567.542.542,0,0,1-.114.3l-.959,1.054-2.461.973a.838.838,0,0,1-.317.059l-4.224-.018-3.05.731" transform="translate(-54.957 -120.197)" fill="none" stroke="#76706b" stroke-linecap="round" stroke-linejoin="round" stroke-width="0.603"/>
        <path id="Path_2788167" data-name="Path 2788167" d="M11.989,108.244l-.248.308a2.077,2.077,0,0,0-.455,1.185l-.036.651A1.831,1.831,0,0,1,10.078,112c-.538.206-3.739.944-6.073,1.471A3.212,3.212,0,0,0,1.5,116.6v2.521a1.465,1.465,0,0,0,1.465,1.465H29.333a1.465,1.465,0,0,0,1.465-1.465v-3.556a2.306,2.306,0,0,0-1.715-2.229l-6.212-1.516" transform="translate(-1.5 -92.848)" fill="none" stroke="#76706b" stroke-linecap="round" stroke-linejoin="round" stroke-width="0.603"/>
        <line id="Line_3828" data-name="Line 3828" x1="0.942" y1="1.014" transform="translate(8.068 12.844)" fill="none" stroke="#099143" stroke-linecap="round" stroke-linejoin="round" stroke-width="0.603"/>
        <line id="Line_3829" data-name="Line 3829" x1="2.093" y1="0.417" transform="translate(6.079 14.925)" fill="none" stroke="#099143" stroke-linecap="round" stroke-linejoin="round" stroke-width="0.603"/>
        <line id="Line_3830" data-name="Line 3830" x1="1.074" y2="0.523" transform="translate(6.866 16.836)" fill="none" stroke="#099143" stroke-linecap="round" stroke-linejoin="round" stroke-width="0.603"/>
        <line id="Line_3831" data-name="Line 3831" y1="1.014" x2="0.942" transform="translate(20.731 12.844)" fill="none" stroke="#099143" stroke-linecap="round" stroke-linejoin="round" stroke-width="0.603"/>
        <line id="Line_3832" data-name="Line 3832" y1="0.417" x2="2.093" transform="translate(21.568 14.925)" fill="none" stroke="#099143" stroke-linecap="round" stroke-linejoin="round" stroke-width="0.603"/>
        <line id="Line_3833" data-name="Line 3833" x2="1.074" y2="0.523" transform="translate(21.8 16.836)" fill="none" stroke="#099143" stroke-linecap="round" stroke-linejoin="round" stroke-width="0.603"/>
      </g>
    </g>
  </g>
</svg>
