<svg xmlns="http://www.w3.org/2000/svg" xmlns:xlink="http://www.w3.org/1999/xlink" width="30" height="30" viewBox="0 0 30 30">
  <defs>
    <clipPath id="clip-path">
      <rect id="Rectangle_182561" data-name="Rectangle 182561" width="30" height="30" transform="translate(672 9552)"/>
    </clipPath>
  </defs>
  <g id="Mask_Group_438" data-name="Mask Group 438" transform="translate(-672 -9552)" clip-path="url(#clip-path)">
    <g id="Layer_2" data-name="Layer 2" transform="translate(677.108 9552.014)">
      <g id="Ñëîé_1" data-name="Ñëîé 1" transform="translate(-0.01 -0.014)">
        <path id="Path_8157908" data-name="Path 8157908" d="M5.043,13.482a.377.377,0,0,1-.4-.242c0-.485,0-.808,0-1.023a2.261,2.261,0,0,1,0-.511c0-.377.458-1,1.4-1.884a.4.4,0,1,1,.538.592A6.111,6.111,0,0,0,5.42,11.732a2.369,2.369,0,0,1,0,.377q0,.323,0,1.05a.4.4,0,0,1-.377.431Z" transform="translate(7.853 16.411)"/>
        <path id="Path_8157909" data-name="Path 8157909" d="M4.9,13.547h0a.4.4,0,0,1-.35-.431V11.689A6.622,6.622,0,0,0,3.34,10.316a.39.39,0,1,1,.538-.565c.673.619,1.454,1.454,1.454,1.938a2.261,2.261,0,0,1,0,.511c0,.215,0,.565,0,1.023a.377.377,0,0,1-.431.323Z" transform="translate(5.464 16.346)"/>
        <path id="Path_8157910" data-name="Path 8157910" d="M3.374,8.471A1.911,1.911,0,0,0,3.885,9.6a4.63,4.63,0,0,0,2.988,1.1s-1.158.35-1.319,1.238A2.934,2.934,0,0,1,4.8,13.586a8.4,8.4,0,0,0-1.534-1.481,1.481,1.481,0,0,1-.538-1.831l.646-1.8m0-.808A.835.835,0,0,0,2.62,8.2L2.109,9.979a2.261,2.261,0,0,0,.754,2.692,7.888,7.888,0,0,1,1.373,1.292.727.727,0,0,0,.565.35h0a.727.727,0,0,0,.511-.215,3.823,3.823,0,0,0,1.05-2.073c0-.323.511-.565.754-.646a.8.8,0,0,0-.242-1.561,3.8,3.8,0,0,1-2.4-.835,1.292,1.292,0,0,1-.323-.619.727.727,0,0,0-.646-.754Z" transform="translate(3.304 12.914)"/>
        <path id="Path_8157911" data-name="Path 8157911" d="M8.748,8.438l.646,1.8a1.481,1.481,0,0,1-.538,1.831,9.987,9.987,0,0,0-1.534,1.481,2.934,2.934,0,0,1-.754-1.642c-.162-.888-1.319-1.238-1.319-1.238a4.63,4.63,0,0,0,3.1-1.1,1.911,1.911,0,0,0,.511-1.131m0-.808H8.613a.727.727,0,0,0-.646.754A1.292,1.292,0,0,1,7.644,9a3.8,3.8,0,0,1-2.4.835.808.808,0,0,0-.242,1.481.975.975,0,0,1,.754.619,3.823,3.823,0,0,0,1.05,2.1.727.727,0,0,0,.511.215h0a.727.727,0,0,0,.673-.242,9.4,9.4,0,0,1,1.373-1.292,2.261,2.261,0,0,0,.754-2.692L9.5,8.249a.835.835,0,0,0-.754-.538Z" transform="translate(7.836 12.948)"/>
        <path id="Path_8157912" data-name="Path 8157912" d="M.422,11.257a.4.4,0,0,1-.4-.269.377.377,0,0,1,.269-.511L2.36,9.615,4.783,8.7a.4.4,0,0,1,.619.323.458.458,0,0,1-.35.592l-2.342.808L.556,11.23Z" transform="translate(0.01 14.652)"/>
        <path id="Path_8157913" data-name="Path 8157913" d="M11.54,11.13h-.135l-2.1-.808-2.4-.835a.458.458,0,0,1-.242-.511.4.4,0,0,1,.511-.242L9.6,9.649l2.073.781a.377.377,0,0,1,.242.511A.4.4,0,0,1,11.54,11.13Z" transform="translate(11.29 14.778)"/>
        <path id="Path_8157914" data-name="Path 8157914" d="M5.758,9.4H4.3a.4.4,0,1,1,0-.808H5.758a.4.4,0,1,1,0,.808Z" transform="translate(6.627 14.573)"/>
        <path id="Path_8157915" data-name="Path 8157915" d="M9.318,17.287A4.926,4.926,0,0,1,4.365,13.68c-.727-1.75-1.373-2.692-1.911-2.692-1-.269-1.1-3.9-1.1-3.93,0-1.158.4-2.046,1-2.181s.673,0,1.05.646a.377.377,0,0,1-.188.538A.35.35,0,0,1,2.7,5.873l-.162-.215a1.938,1.938,0,0,0-.377,1.4A8.561,8.561,0,0,0,2.7,10.234c.835.242,1.534,1.238,2.4,3.284a4.2,4.2,0,0,0,4.226,2.988,4.2,4.2,0,0,0,4.226-3.123c.861-2.046,1.561-3.042,2.4-3.284a8.561,8.561,0,0,0,.619-3.177,1.911,1.911,0,0,0-.4-1.4l-.162.215c-.4.808-.592,1.184-.969,1.1s-.4-.511-.4-1.158V3.154a.4.4,0,1,1,.808,0V5.173a.781.781,0,0,1,.915-.431c.592,0,1,1.023,1,2.181,0,0,0,3.661-1.1,3.93-.538,0-1.184,1.077-1.911,2.692a4.926,4.926,0,0,1-5.007,3.742Z" transform="translate(2.312 4.691)"/>
        <path id="Path_8157916" data-name="Path 8157916" d="M14.932,11.519h0c-.4,0-.4-.511-.4-1.158V8.611a7.3,7.3,0,0,1-3.5.781,7.107,7.107,0,0,1-2.181-.323.431.431,0,0,1-.511-.511.4.4,0,0,1,.511-.242,6.488,6.488,0,0,0,1.938.269,5.384,5.384,0,0,0,3.742-1.023.431.431,0,0,1,.7.269V9.85a.942.942,0,0,1,.565-.431h0a9.772,9.772,0,0,0,.215-2.342,6.192,6.192,0,0,0-1.7-4.711,1.8,1.8,0,0,0-1.7-.188.377.377,0,0,1-.511-.188C11.755,1.208,10.759.831,9.171.831A6.622,6.622,0,0,0,2.225,7.05a11.387,11.387,0,0,0,.215,2.342h0a1,1,0,0,1,.538.377,2.692,2.692,0,0,1,.646-2.046.4.4,0,1,1,.538.592c-.3.269-.4.727-.4,1.615s0,1.4-.377,1.508-.431-.162-.835-1.023L2.387,10.2a.538.538,0,0,1-.35,0,.377.377,0,0,1-.269-.269A10.041,10.041,0,0,1,1.445,7,7.4,7.4,0,0,1,9.171.024a3.85,3.85,0,0,1,3.473,1.319,2.477,2.477,0,0,1,2.127.377A6.972,6.972,0,0,1,16.924,7.1a9.934,9.934,0,0,1-.35,2.88.4.4,0,0,1-.162.269.377.377,0,0,1-.377,0l-.162.215C15.443,11.142,15.255,11.519,14.932,11.519Z" transform="translate(2.46 0.014)"/>
        <path id="Path_8157917" data-name="Path 8157917" d="M6.478,6.683h0a3.419,3.419,0,0,1-1.7-.592.377.377,0,0,1,0-.377.35.35,0,0,1,.269-.269A3.365,3.365,0,0,0,6.828,4.53a.4.4,0,1,1,.592.538A3.876,3.876,0,0,1,6.209,5.9h.4a.4.4,0,0,1,0,.781Z" transform="translate(8.034 7.407)"/>
        <path id="Path_8157918" data-name="Path 8157918" d="M3.889,6.683a.377.377,0,0,1-.377-.323A.4.4,0,0,1,3.835,5.9h.4A4.011,4.011,0,0,1,3,5.068a.4.4,0,1,1,.592-.538,3.365,3.365,0,0,0,1.777.915.35.35,0,0,1,.269.269.377.377,0,0,1,0,.377,3.419,3.419,0,0,1-1.615.673Z" transform="translate(4.862 7.407)"/>
        <path id="Path_8157919" data-name="Path 8157919" d="M4.346,6.343a1.7,1.7,0,0,1-1.7-1.588A3.58,3.58,0,0,1,4.1,2.063a.377.377,0,0,1,.511,0A3.58,3.58,0,0,1,6.069,4.755,1.723,1.723,0,0,1,4.346,6.343Zm0-3.365a2.692,2.692,0,0,0-.754,1.777.915.915,0,1,0,1.8,0,2.4,2.4,0,0,0-1.05-1.777Z" transform="translate(4.512 3.359)"/>
        <path id="Path_8157920" data-name="Path 8157920" d="M8.717,13.322a.4.4,0,0,1-.377-.4V3.254a.391.391,0,1,1,.781,0v9.664a.4.4,0,0,1-.4.4Z" transform="translate(14.14 4.86)"/>
        <path id="Path_8157921" data-name="Path 8157921" d="M8.92,7.73a.7.7,0,1,1,.7-.7.673.673,0,0,1-.7.7Zm0-.781Z" transform="translate(13.937 10.749)"/>
        <path id="Path_8157922" data-name="Path 8157922" d="M9.749,15.91A2.046,2.046,0,0,1,7.73,13.864a1.938,1.938,0,0,1,.35-1.131V4.2a1.7,1.7,0,1,1,3.365,0v8.534a2.154,2.154,0,0,1,.35,1.131A2.046,2.046,0,0,1,9.749,15.91Zm0-12.518a.861.861,0,0,0-.861.808v8.668a.485.485,0,0,1,0,.242,1.292,1.292,0,0,0-.269.754A1.238,1.238,0,0,0,9.857,15.1,1.211,1.211,0,0,0,11.1,13.864a1.131,1.131,0,0,0-.269-.754.431.431,0,0,1,0-.242V4.2a.888.888,0,0,0-1.077-.808Z" transform="translate(13.108 3.914)"/>
      </g>
    </g>
  </g>
</svg>
