<svg xmlns="http://www.w3.org/2000/svg" xmlns:xlink="http://www.w3.org/1999/xlink" width="35.5" height="35.5" viewBox="0 0 35.5 35.5">
  <defs>
    <clipPath id="clip-path">
      <rect id="Rectangle_177951" data-name="Rectangle 177951" width="35.5" height="35.5" transform="translate(-17912 -22416)" fill="#fff"/>
    </clipPath>
  </defs>
  <g id="Mask_Group_421" data-name="Mask Group 421" transform="translate(17912 22416)" clip-path="url(#clip-path)">
    <g id="Group_739476" data-name="Group 739476" transform="translate(-17911.727 -22415.707)">
      <path id="Path_7993005" data-name="Path 7993005" d="M13.725,173.185c-.911,1.06-2.912,1.795-5.232,1.795-3.181,0-5.76-1.381-5.76-3.085s2.579-3.084,5.76-3.084c2.322,0,4.323.736,5.232,1.795" transform="translate(-2.693 -140.063)" stroke="#000" stroke-linecap="round" stroke-linejoin="round" stroke-width="0.317"/>
      <rect id="Rectangle_177945" data-name="Rectangle 177945" width="2.71" height="2.926" transform="translate(11.032 30.369)" fill="none" stroke="#000" stroke-linecap="round" stroke-linejoin="round" stroke-width="0.317"/>
      <path id="Path_7993006" data-name="Path 7993006" d="M134.709,49.636a7.325,7.325,0,0,0,3.891-1.119,4.291,4.291,0,0,0,2.012-3.636V32.45a1.819,1.819,0,0,0-1.819-1.819h-9.76a1.819,1.819,0,0,0-1.819,1.819V44.881a4.291,4.291,0,0,0,2.012,3.636,7.324,7.324,0,0,0,3.891,1.119Z" transform="translate(-105.657 -25.768)" fill="none" stroke="#000" stroke-linecap="round" stroke-linejoin="round" stroke-width="0.317"/>
      <rect id="Rectangle_177946" data-name="Rectangle 177946" width="9.773" height="10.969" transform="translate(23.37 7.124)" fill="none" stroke="#000" stroke-linecap="round" stroke-linejoin="round" stroke-width="0.317"/>
      <path id="Path_7993007" data-name="Path 7993007" d="M159.482,118.463a1.355,1.355,0,1,0-1.355-1.355A1.355,1.355,0,0,0,159.482,118.463Z" transform="translate(-131.226 -96.176)" fill="none" stroke="#000" stroke-linecap="round" stroke-linejoin="round" stroke-width="0.317"/>
      <path id="Path_7993008" data-name="Path 7993008" d="M156.773,83.605a2.514,2.514,0,0,1,3.668,0" transform="translate(-130.106 -68.929)" fill="none" stroke="#000" stroke-linecap="round" stroke-linejoin="round" stroke-width="0.317"/>
      <line id="Line_7190" data-name="Line 7190" y1="2.906" transform="translate(28.501 9.227)" fill="none" stroke="#000" stroke-linecap="round" stroke-linejoin="round" stroke-width="0.317"/>
      <path id="Path_7993009" data-name="Path 7993009" d="M177.991,59.626l-1.251,2.625h0" transform="translate(-146.62 -49.751)" fill="none" stroke="#000" stroke-linecap="round" stroke-linejoin="round" stroke-width="0.317"/>
      <path id="Path_7993010" data-name="Path 7993010" d="M150.782,59.626l1.251,2.625h0" transform="translate(-125.151 -49.751)" fill="none" stroke="#000" stroke-linecap="round" stroke-linejoin="round" stroke-width="0.317"/>
      <line id="Line_7191" data-name="Line 7191" y1="1.269" x2="0.613" transform="translate(28.501 15.391)" fill="none" stroke="#000" stroke-linecap="round" stroke-linejoin="round" stroke-width="0.317"/>
      <path id="Path_7993011" data-name="Path 7993011" d="M18.427,123.687c0,.963-3.564,1.746-7.962,1.746s-7.96-.783-7.96-1.746c0-.817,2.552-1.5,6-1.692" transform="translate(-2.503 -101.34)" fill="none" stroke="#000" stroke-linecap="round" stroke-linejoin="round" stroke-width="0.317"/>
      <path id="Path_7993012" data-name="Path 7993012" d="M7.9,39.97h0C4.762,40.2,2.5,40.854,2.5,41.622" transform="translate(-2.503 -33.493)" fill="none" stroke="#000" stroke-linecap="round" stroke-linejoin="round" stroke-width="0.317"/>
      <line id="Line_7192" data-name="Line 7192" y2="14.218" transform="translate(0 8.129)" fill="none" stroke="#000" stroke-linecap="round" stroke-linejoin="round" stroke-width="0.317"/>
      <path id="Path_7993013" data-name="Path 7993013" d="M26.191,50.336a1.375,1.375,0,0,0,1.269.644c8.688-.651,8.8,1.282,8.8,1.282V38.043s1.313-2.663-9.351-2.378a1.377,1.377,0,0,0-1.182.737A13.9,13.9,0,0,0,26.191,50.336Z" transform="translate(-20.337 -29.915)" fill="none" stroke="#000" stroke-linecap="round" stroke-linejoin="round" stroke-width="0.317"/>
      <path id="Path_7993014" data-name="Path 7993014" d="M42.231,46.121c-1.149-.422-3.482-.776-8.159-.678a1.434,1.434,0,0,0-1.163.565,8.7,8.7,0,0,0,.455,10.7,1.5,1.5,0,0,0,1.249.5c4.384-.257,6.547.01,7.611.33" transform="translate(-26.301 -38.007)" stroke="#000" stroke-linecap="round" stroke-linejoin="round" stroke-width="0.317"/>
      <path id="Path_7993015" data-name="Path 7993015" d="M2.5,53.557A5.267,5.267,0,0,1,6.956,52.4" transform="translate(-2.5 -43.682)" fill="none" stroke="#000" stroke-linecap="round" stroke-linejoin="round" stroke-width="0.317"/>
      <path id="Path_7993016" data-name="Path 7993016" d="M2.5,111.937a7.706,7.706,0,0,1,4.974-1.012" transform="translate(-2.5 -92.13)" fill="none" stroke="#000" stroke-linecap="round" stroke-linejoin="round" stroke-width="0.317"/>
      <path id="Path_7993017" data-name="Path 7993017" d="M45.951,8.232V7.154A4.654,4.654,0,0,1,50.6,2.5H62.043A4.654,4.654,0,0,1,66.7,7.154v.209" transform="translate(-38.44 -2.5)" fill="none" stroke="#000" stroke-linecap="round" stroke-linejoin="round" stroke-width="0.317"/>
      <path id="Path_7993018" data-name="Path 7993018" d="M96.512,140.579V142.8a5.739,5.739,0,0,1-5.739,5.739H82" transform="translate(-68.256 -116.711)" fill="none" stroke="#000" stroke-linecap="round" stroke-linejoin="round" stroke-width="0.317"/>
    </g>
  </g>
</svg>
