<svg xmlns="http://www.w3.org/2000/svg" xmlns:xlink="http://www.w3.org/1999/xlink" width="30" height="30" viewBox="0 0 30 30">
  <defs>
    <clipPath id="clip-path">
      <rect id="Rectangle_166450" data-name="Rectangle 166450" width="30" height="30" transform="translate(1050.17 21405)" fill="#fff"/>
    </clipPath>
    <radialGradient id="radial-gradient" cx="0.377" cy="0.565" r="1.694" gradientTransform="translate(0)" gradientUnits="objectBoundingBox">
      <stop offset="0" stop-color="#ef4136"/>
      <stop offset="0" stop-color="#099143"/>
      <stop offset="1" stop-color="#fff"/>
    </radialGradient>
  </defs>
  <g id="Mask_Group_409" data-name="Mask Group 409" transform="translate(-1050.17 -21405)" clip-path="url(#clip-path)">
    <g id="Artwork_748" data-name="Artwork 748" transform="translate(1069.998 21424.445)">
      <g id="Group_637570" data-name="Group 637570" transform="translate(-19.828 -18.255)">
        <g id="Group_637538" data-name="Group 637538" transform="translate(9.261 15.366)">
          <g id="Group_637536" data-name="Group 637536" transform="translate(0)">
            <g id="Group_637528" data-name="Group 637528" transform="translate(4.233 4.233)">
              <path id="Path_6689915" data-name="Path 6689915" d="M51.257,75.391a1.728,1.728,0,1,1,1.728-1.728A1.73,1.73,0,0,1,51.257,75.391Zm0-2.931a1.2,1.2,0,1,0,1.2,1.2A1.2,1.2,0,0,0,51.257,72.46Z" transform="translate(-49.529 -71.934)" fill="url(#radial-gradient)"/>
            </g>
            <g id="Group_637529" data-name="Group 637529" transform="translate(3.628 3.628)">
              <path id="Path_6689916" data-name="Path 6689916" d="M49.642,74.38a2.333,2.333,0,1,1,2.333-2.333A2.336,2.336,0,0,1,49.642,74.38Zm0-4.185a1.852,1.852,0,1,0,1.852,1.852A1.854,1.854,0,0,0,49.642,70.2Z" transform="translate(-47.309 -69.714)" fill="url(#radial-gradient)"/>
            </g>
            <g id="Group_637530" data-name="Group 637530" transform="translate(3.024 3.024)">
              <path id="Path_6689917" data-name="Path 6689917" d="M48.028,73.371a2.938,2.938,0,1,1,2.938-2.938A2.941,2.941,0,0,1,48.028,73.371Zm0-5.44a2.5,2.5,0,1,0,2.5,2.5A2.5,2.5,0,0,0,48.028,67.931Z" transform="translate(-45.09 -67.495)" fill="url(#radial-gradient)"/>
            </g>
            <g id="Group_637531" data-name="Group 637531" transform="translate(2.419 2.419)">
              <path id="Path_6689918" data-name="Path 6689918" d="M46.413,72.36a3.543,3.543,0,1,1,3.543-3.543A3.547,3.547,0,0,1,46.413,72.36Zm0-6.694a3.152,3.152,0,1,0,3.152,3.152A3.155,3.155,0,0,0,46.413,65.666Z" transform="translate(-42.87 -65.275)" fill="url(#radial-gradient)"/>
            </g>
            <g id="Group_637532" data-name="Group 637532" transform="translate(1.814 1.814)">
              <path id="Path_6689919" data-name="Path 6689919" d="M44.8,71.351A4.147,4.147,0,1,1,48.945,67.2,4.152,4.152,0,0,1,44.8,71.351Zm0-7.949a3.8,3.8,0,1,0,3.8,3.8A3.806,3.806,0,0,0,44.8,63.4Z" transform="translate(-40.65 -63.056)" fill="url(#radial-gradient)"/>
            </g>
            <g id="Group_637533" data-name="Group 637533" transform="translate(1.209 1.209)">
              <path id="Path_6689920" data-name="Path 6689920" d="M43.183,70.34a4.752,4.752,0,1,1,4.752-4.752A4.757,4.757,0,0,1,43.183,70.34Zm0-9.2a4.452,4.452,0,1,0,4.451,4.451A4.457,4.457,0,0,0,43.183,61.137Z" transform="translate(-38.431 -60.836)" fill="url(#radial-gradient)"/>
            </g>
            <g id="Group_637534" data-name="Group 637534" transform="translate(0.605 0.605)">
              <path id="Path_6689921" data-name="Path 6689921" d="M41.568,69.33a5.357,5.357,0,1,1,5.357-5.357A5.363,5.363,0,0,1,41.568,69.33Zm0-10.458a5.1,5.1,0,1,0,5.1,5.1A5.107,5.107,0,0,0,41.568,58.872Z" transform="translate(-36.211 -58.617)" fill="url(#radial-gradient)"/>
            </g>
            <g id="Group_637535" data-name="Group 637535">
              <path id="Path_6689922" data-name="Path 6689922" d="M39.953,68.32a5.962,5.962,0,1,1,5.962-5.962A5.968,5.968,0,0,1,39.953,68.32Zm0-11.713A5.751,5.751,0,1,0,45.7,62.358,5.758,5.758,0,0,0,39.953,56.607Z" transform="translate(-33.992 -56.397)" fill="url(#radial-gradient)"/>
            </g>
          </g>
          <g id="Group_637537" data-name="Group 637537" transform="translate(4.932 4.933)">
            <ellipse id="Ellipse_39617" data-name="Ellipse 39617" cx="1.029" cy="1.029" rx="1.029" ry="1.029" fill="url(#radial-gradient)"/>
          </g>
        </g>
        <g id="Group_637569" data-name="Group 637569">
          <g id="Group_637539" data-name="Group 637539" transform="translate(3.202 16.863)">
            <path id="Path_6689923" data-name="Path 6689923" d="M23.978,70.287s.023-.031.085-.061a1.69,1.69,0,0,1,.281-.1,9.279,9.279,0,0,1,1.077-.215c.226-.04.473-.1.735-.172a6.57,6.57,0,0,0,.82-.277c.035-.015.067-.032.1-.049s.064-.039.1-.06a.809.809,0,0,0,.165-.145.252.252,0,0,0,.07-.17.262.262,0,0,0-.09-.165.282.282,0,0,0-.178-.087,1.129,1.129,0,0,0-.239.009c-.17.022-.347.052-.528.076a10.264,10.264,0,0,1-1.116.09A6.965,6.965,0,0,1,24.09,68.9a3.9,3.9,0,0,1-.585-.127,2.921,2.921,0,0,1-.286-.1c-.047-.02-.09-.038-.139-.061s-.091-.046-.135-.069c-.088-.047-.173-.1-.258-.144l-.137-.076c-.021-.012-.07-.037-.11-.058s-.1-.04-.132-.063l-.046-.034c-.01-.006-.009-.01-.014-.016l-.01-.015a.106.106,0,0,1-.013-.024.1.1,0,0,1-.008-.055.124.124,0,0,1,.012-.035.162.162,0,0,1,.044-.052.507.507,0,0,1,.211-.074c.043-.008.093-.016.134-.022l.085-.011c.1-.012.2-.021.294-.029s.2-.012.295-.015c.194-.005.381-.008.563-.026a2.611,2.611,0,0,0,.526-.105,1.073,1.073,0,0,0,.222-.1.714.714,0,0,0,.172-.153.493.493,0,0,0,.1-.191.3.3,0,0,0-.009-.186l-.008-.019-.009-.013,0-.007-.005,0-.01-.01a.2.2,0,0,0-.07-.029.935.935,0,0,0-.224-.013,3.759,3.759,0,0,1-.517,0l-.12-.012c-.038,0-.077-.006-.115-.007-.076,0-.152,0-.228,0-.305.01-.64.034-.988.044l-.264.008c-.045,0-.087,0-.13.006s-.086,0-.129.009a2.626,2.626,0,0,0-.517.1,2.766,2.766,0,0,0-.5.211,5.668,5.668,0,0,0-.489.3c-.163.109-.332.224-.511.326a3.531,3.531,0,0,1-.569.268,2.17,2.17,0,0,1-.635.132,1.742,1.742,0,0,1-.33-.018c-.055-.006-.109-.021-.163-.032-.027-.007-.053-.015-.08-.023a.672.672,0,0,1-.081-.027,1.4,1.4,0,0,1-.293-.169c-.088-.063-.17-.132-.25-.2-.16-.14-.309-.287-.454-.436a20.171,20.171,0,0,1-1.556-1.868c-.466-.625-.884-1.236-1.247-1.8a5.583,5.583,0,0,0-1.137-1.332,2.574,2.574,0,0,0-.564-.357l-.132-.054c-.043-.017-.086-.026-.126-.039l-.059-.018-.058-.011c-.038-.006-.074-.015-.108-.018a1.279,1.279,0,0,0-.318,0,1.089,1.089,0,0,1-.111.019s.033-.025.105-.044a1.093,1.093,0,0,1,.327-.028c.036,0,.073.008.113.013l.061.008.062.015c.042.011.087.019.132.035l.139.05a2.553,2.553,0,0,1,.6.349,5.53,5.53,0,0,1,1.195,1.332c.373.555.8,1.157,1.272,1.771a20.618,20.618,0,0,0,1.563,1.829c.144.145.291.287.445.419.077.065.156.129.236.186a1.211,1.211,0,0,0,.244.14.543.543,0,0,0,.066.021c.023.006.046.014.07.019.047.009.094.022.142.026a1.51,1.51,0,0,0,.287.013,1.959,1.959,0,0,0,.566-.123,3.357,3.357,0,0,0,.529-.254c.17-.1.331-.21.5-.322s.332-.221.508-.316a3,3,0,0,1,.547-.232,2.866,2.866,0,0,1,.565-.114c.047-.007.093-.007.14-.01s.094-.006.137-.007l.262-.008c.346-.011.672-.034.99-.045.08,0,.162,0,.245,0l.126.008.123.013a3.673,3.673,0,0,0,.484,0,1.156,1.156,0,0,1,.289.02.44.44,0,0,1,.167.076.449.449,0,0,1,.037.035l.018.019.014.021.027.042.018.041a.549.549,0,0,1,.02.337.736.736,0,0,1-.144.288.962.962,0,0,1-.235.208,1.317,1.317,0,0,1-.281.127,2.828,2.828,0,0,1-.576.112c-.2.018-.39.019-.58.023-.1,0-.189,0-.283.012s-.19.015-.284.026l-.067.008-.013,0-.007,0s0,0,0,0l.011.006.4.227a3.149,3.149,0,0,0,1.07.348,6.8,6.8,0,0,0,1.129.069,10.339,10.339,0,0,0,1.1-.072c.178-.021.353-.048.531-.068a1.235,1.235,0,0,1,.281,0,.443.443,0,0,1,.271.138.531.531,0,0,1,.089.119.347.347,0,0,1,.03.073.392.392,0,0,1,.01.039l0,.041a.366.366,0,0,1-.007.081.415.415,0,0,1-.025.073l-.016.034-.02.031a.521.521,0,0,1-.043.056.954.954,0,0,1-.2.169c-.035.023-.07.044-.106.064s-.075.038-.112.053a6.548,6.548,0,0,1-.846.264,7.546,7.546,0,0,1-.751.152c-.462.055-.829.113-1.079.168a2.453,2.453,0,0,0-.284.075C24.01,70.271,23.982,70.291,23.978,70.287Z" transform="translate(-11.751 -61.89)" fill="#76706b"/>
          </g>
          <g id="Group_637540" data-name="Group 637540" transform="translate(15.605 24.281)">
            <path id="Path_6689924" data-name="Path 6689924" d="M57.275,90.84s.011-.026.048-.044a.866.866,0,0,1,.16-.057c.137-.037.329-.072.543-.11.107-.019.218-.039.33-.064l.344-.075c.113-.025.225-.049.324-.078.024-.007.048-.015.069-.023l.028-.012.035-.017.135-.064c.171-.08.384-.175.608-.276l.338-.154a1.474,1.474,0,0,0,.3-.174.4.4,0,0,0,.16-.227.238.238,0,0,0-.011-.119.327.327,0,0,0-.047-.1.254.254,0,0,0-.129-.091c-.038-.012-.062-.014-.062-.021s.023-.017.068-.017a.264.264,0,0,1,.179.079.38.38,0,0,1,.077.116.327.327,0,0,1,.032.161.387.387,0,0,1-.058.174.684.684,0,0,1-.12.144,1.507,1.507,0,0,1-.316.213c-.11.059-.223.117-.333.172-.221.11-.433.211-.6.29l-.132.062-.035.017-.044.019c-.029.011-.057.019-.085.026-.111.03-.225.05-.341.071l-.347.057c-.117.02-.233.032-.342.043l-.548.05c-.069.007-.123.014-.161.02S57.281,90.845,57.275,90.84Z" transform="translate(-57.274 -89.118)" fill="#76706b"/>
          </g>
          <g id="Group_637541" data-name="Group 637541" transform="translate(14.672 25.15)">
            <path id="Path_6689925" data-name="Path 6689925" d="M53.85,94.084c0-.005.015-.022.053-.04a1.167,1.167,0,0,1,.164-.062c.141-.044.339-.092.562-.138.112-.023.229-.047.35-.069s.247-.038.368-.053a3.346,3.346,0,0,0,.643-.117.99.99,0,0,0,.131-.054l.152-.076.332-.164c.229-.114.466-.235.671-.36a1.625,1.625,0,0,0,.267-.193.521.521,0,0,0,.141-.211.363.363,0,0,0,.012-.171c-.007-.042-.016-.065-.01-.068s.026.014.047.057a.34.34,0,0,1,.023.2.564.564,0,0,1-.135.267,1.553,1.553,0,0,1-.27.232,6.8,6.8,0,0,1-.664.4c-.113.062-.225.12-.329.175l-.151.079a1.134,1.134,0,0,1-.156.065,2.954,2.954,0,0,1-.686.111c-.122.01-.244.02-.362.035l-.351.046c-.225.029-.425.056-.568.077A1.138,1.138,0,0,1,53.85,94.084Z" transform="translate(-53.85 -92.306)" fill="#76706b"/>
          </g>
          <g id="Group_637542" data-name="Group 637542" transform="translate(0 1.517)">
            <path id="Path_6689926" data-name="Path 6689926" d="M11.148,5.569a.71.71,0,0,1-.09.128,2.417,2.417,0,0,1-.308.331l-.12.1-.065.054-.073.05-.156.106-.177.1a4.933,4.933,0,0,1-.884.363,11.555,11.555,0,0,1-1.127.27L6.84,7.314a9.977,9.977,0,0,0-1.419.364l-.179.065c-.059.023-.117.05-.177.075-.12.047-.232.111-.349.169-.057.031-.112.067-.168.1l-.084.051c-.028.017-.054.038-.081.057l-.161.116c-.051.042-.1.086-.152.129l-.076.065-.071.072-.142.144-.13.157-.065.079c-.02.027-.039.056-.059.084l-.118.169c-.038.057-.071.119-.107.178l-.053.09a.908.908,0,0,0-.05.092l-.093.189a6.822,6.822,0,0,0-.313.793c-.046.136-.082.276-.123.414s-.07.281-.1.423a13.01,13.01,0,0,0-.218,1.745c-.023.3-.045.594-.088.893a3.082,3.082,0,0,1-.25.882c-.016.037-.032.069-.048.1l-.049.1-.1.2q-.1.2-.185.394c-.119.263-.231.528-.33.793a8.005,8.005,0,0,0-.433,1.6c-.041.271-.085.544-.137.808s-.109.522-.164.774c-.111.5-.2.988-.257,1.452a8.472,8.472,0,0,0-.048,1.477c.007.129.016.26.029.392.007.066.014.132.023.2l0,.023v0l.018.042.04.092.079.185.093.182c.032.06.06.123.1.182l.106.179.053.09c.019.03.039.059.058.088l.118.176c.079.118.168.231.253.347s.18.227.275.338.19.224.294.33A12.634,12.634,0,0,0,3.13,26.688c.239.193.485.381.74.555s.521.336.79.5c.54.317,1.094.619,1.637.934.272.158.541.319.8.489.132.083.262.174.389.259s.254.168.384.246a9.1,9.1,0,0,0,1.618.756c.275.1.551.183.826.258s.549.166.812.254c.526.176,1.029.36,1.512.5a2.271,2.271,0,0,0,.356.083,2.6,2.6,0,0,0,.356.016c.237,0,.469-.024.692-.047s.439-.05.647-.075.407-.048.6-.076c.378-.054.718-.116,1.011-.188a2.064,2.064,0,0,0,.395-.131,3.1,3.1,0,0,0,.31-.168c.09-.055.17-.108.235-.154a.251.251,0,0,0,.079-.172c.01-.11,0-.169,0-.169s.007.014.013.042a.575.575,0,0,1,.01.129.4.4,0,0,1-.016.1.222.222,0,0,1-.065.1c-.066.053-.142.108-.232.168a2.913,2.913,0,0,1-.31.182,2.1,2.1,0,0,1-.4.147,10.2,10.2,0,0,1-1.015.213c-.19.032-.39.059-.6.087s-.423.059-.648.086-.459.051-.7.058a2.771,2.771,0,0,1-.375-.012,2.422,2.422,0,0,1-.378-.082c-.493-.14-1-.318-1.524-.487-.263-.085-.532-.171-.805-.243s-.561-.156-.842-.254a9.2,9.2,0,0,1-1.659-.757c-.134-.079-.266-.162-.4-.249s-.255-.171-.387-.253c-.26-.165-.529-.323-.8-.478-.543-.31-1.1-.608-1.645-.923-.273-.159-.544-.322-.807-.5s-.514-.367-.758-.562a12.778,12.778,0,0,1-1.357-1.253A8.6,8.6,0,0,1,.541,24.211L.43,24.025c-.038-.061-.068-.127-.1-.19l-.1-.189-.084-.195-.041-.1L.083,23.3a.149.149,0,0,1-.011-.047l0-.027c-.009-.069-.017-.138-.024-.206-.014-.136-.024-.271-.031-.4A8.675,8.675,0,0,1,.061,21.1c.059-.475.151-.969.263-1.475.055-.253.113-.509.164-.769s.1-.524.138-.8a8.2,8.2,0,0,1,.452-1.651c.1-.272.218-.541.34-.807q.092-.2.19-.4l.1-.2.05-.1c.017-.033.034-.066.047-.1a2.863,2.863,0,0,0,.235-.815c.043-.287.066-.581.092-.876a13.078,13.078,0,0,1,.234-1.771c.032-.145.07-.289.106-.433s.082-.284.13-.423a6.975,6.975,0,0,1,.329-.814l.1-.2a.982.982,0,0,1,.053-.1l.056-.093c.038-.062.072-.125.113-.185l.125-.176c.021-.029.041-.059.063-.087l.069-.082L3.644,8.6l.151-.15.075-.075L3.951,8.3c.054-.045.107-.09.162-.134l.17-.12c.029-.019.056-.041.086-.059l.089-.052c.059-.034.117-.071.177-.1.122-.059.24-.124.365-.172.062-.025.122-.052.184-.075l.185-.065a9.951,9.951,0,0,1,1.445-.351c.463-.084.9-.151,1.311-.224S8.91,6.8,9.246,6.7a4.988,4.988,0,0,0,.877-.335l.177-.093.156-.1.073-.046.065-.05.122-.093a2.972,2.972,0,0,0,.322-.309A.735.735,0,0,1,11.148,5.569Z" transform="translate(0 -5.569)" fill="#76706b"/>
          </g>
          <g id="Group_637543" data-name="Group 637543" transform="translate(11.094)">
            <path id="Path_6689927" data-name="Path 6689927" d="M40.735,2.4c-.013,0-.018-.051-.017-.128s0-.183,0-.3c0-.238.007-.529.014-.735s.025-.514.045-.771A1.41,1.41,0,0,1,40.849,0a1.284,1.284,0,0,1,.066.465c.015.259.018.569.011.777a6.532,6.532,0,0,1-.071.739,2.64,2.64,0,0,1-.063.3C40.767,2.358,40.748,2.4,40.735,2.4Z" transform="translate(-40.717 0)" fill="#76706b"/>
          </g>
          <g id="Group_637544" data-name="Group 637544" transform="translate(6.077 9.817)">
            <path id="Path_6689928" data-name="Path 6689928" d="M22.305,36.034c0-.007.033,0,.077.035a.807.807,0,0,1,.152.166,3.3,3.3,0,0,1,.341.655c.027.067.054.137.08.209l.074.216c.05.143.1.287.164.423a2.092,2.092,0,0,0,.1.193c.037.068.073.134.106.2.067.128.13.245.189.351a4.446,4.446,0,0,0,.479.7,2.958,2.958,0,0,0,.7.611,3.252,3.252,0,0,0,.7.313.91.91,0,0,1,.307.1.853.853,0,0,1-.329-.008,2.633,2.633,0,0,1-.763-.252,2.862,2.862,0,0,1-.791-.612,3.927,3.927,0,0,1-.524-.735c-.061-.11-.126-.233-.189-.362l-.1-.195a2.219,2.219,0,0,1-.1-.219c-.059-.148-.106-.3-.149-.45-.022-.074-.041-.151-.06-.22s-.041-.14-.062-.207a4.889,4.889,0,0,0-.257-.665,1.548,1.548,0,0,0-.1-.183C22.317,36.065,22.3,36.041,22.305,36.034Z" transform="translate(-22.304 -36.032)" fill="#76706b"/>
          </g>
          <g id="Group_637545" data-name="Group 637545" transform="translate(4.527 11.136)">
            <path id="Path_6689929" data-name="Path 6689929" d="M16.635,46.987c-.008,0-.017-.032-.019-.095a.863.863,0,0,1,.053-.253,5.335,5.335,0,0,1,.366-.76l.5-.917c.168-.31.325-.612.455-.863a7.931,7.931,0,0,0,.391-.911,7.6,7.6,0,0,0,.284-1.062,8.674,8.674,0,0,0,.122-.886,1.557,1.557,0,0,1,.044-.371.905.905,0,0,1,.055.372,5.532,5.532,0,0,1-.043.912,6.263,6.263,0,0,1-.627,2.061c-.132.254-.3.556-.477.862s-.376.616-.554.893-.337.522-.429.706a1.4,1.4,0,0,0-.093.223C16.653,46.954,16.645,46.987,16.635,46.987Z" transform="translate(-16.616 -40.871)" fill="#76706b"/>
          </g>
          <g id="Group_637546" data-name="Group 637546" transform="translate(6.626 12.608)">
            <path id="Path_6689930" data-name="Path 6689930" d="M25.194,54.7a1.222,1.222,0,0,1-.041-.444c0-.277.021-.659.048-1.085s.06-.9.074-1.353a12.391,12.391,0,0,0-.013-1.257,4.3,4.3,0,0,0-.242-1.248,12.964,12.964,0,0,1-.422-1.4,7.124,7.124,0,0,1-.27-1.638c.034-.006.181.714.444,1.591.129.439.291.915.468,1.36.022.054.044.115.065.173s.037.117.056.175l.044.174.035.17a5.337,5.337,0,0,1,.076.622,9.979,9.979,0,0,1-.007,1.286c-.028.461-.079.934-.129,1.359s-.1.8-.128,1.074A2.311,2.311,0,0,1,25.194,54.7Z" transform="translate(-24.321 -46.276)" fill="#76706b"/>
          </g>
          <g id="Group_637547" data-name="Group 637547" transform="translate(16.816 0.099)">
            <path id="Path_6689931" data-name="Path 6689931" d="M62.007,2.5a3.991,3.991,0,0,1-.224-1.023A4.622,4.622,0,0,1,61.74.364a4.615,4.615,0,0,1,.232,1.087A3.968,3.968,0,0,1,62.007,2.5Z" transform="translate(-61.718 -0.364)" fill="#76706b"/>
          </g>
          <g id="Group_637548" data-name="Group 637548" transform="translate(11.535 1.222)">
            <path id="Path_6689932" data-name="Path 6689932" d="M42.853,22.883s-.054,0-.152.019a.618.618,0,0,0-.172.06.344.344,0,0,0-.087.07.238.238,0,0,0-.05.111.315.315,0,0,0,.111.263.881.881,0,0,0,.314.192,6.551,6.551,0,0,0,.9.256q.255.058.535.111l.142.027.036.006a.142.142,0,0,0,.031,0l.074,0,.3.016c.2.014.418.014.636.019.11,0,.221,0,.333,0s.227,0,.343-.006c.463-.016.949-.054,1.451-.122a15.616,15.616,0,0,0,1.545-.292c.264-.061.53-.131.8-.2a7.052,7.052,0,0,1,.838-.17c.573-.065,1.153-.076,1.736-.087,1.166-.02,2.352-.015,3.51-.093.577-.041,1.152-.1,1.707-.2a6.076,6.076,0,0,0,1.57-.456A2.475,2.475,0,0,0,59.942,22a2.017,2.017,0,0,0,.247-.276,1.315,1.315,0,0,0,.1-.152c.015-.026.033-.051.047-.077l.039-.078a2.174,2.174,0,0,0,.158-.689,4.739,4.739,0,0,0,0-.7,10.228,10.228,0,0,0-.222-1.452q-.083-.379-.187-.772c-.07-.262-.14-.529-.229-.789s-.194-.526-.31-.788-.24-.527-.376-.789a12.72,12.72,0,0,0-.921-1.542c-.043-.062-.089-.122-.135-.181l-.142-.185c-.1-.125-.184-.257-.269-.391a4.288,4.288,0,0,1-.414-.863c-.026-.076-.049-.154-.069-.233a1.264,1.264,0,0,1-.025-.126l-.017-.115c-.022-.153-.042-.308-.07-.459l-.039-.229-.046-.227c-.016-.075-.029-.151-.048-.226l-.054-.225a8.522,8.522,0,0,0-.609-1.717c-.031-.069-.067-.134-.1-.2s-.069-.132-.107-.2c-.077-.127-.15-.256-.235-.376a5.906,5.906,0,0,0-.536-.689L55.225,7.1c-.048-.053-.1-.1-.153-.15a2.913,2.913,0,0,0-.316-.275,2.517,2.517,0,0,0-.346-.218,2.578,2.578,0,0,0-.37-.161A4.892,4.892,0,0,0,52.5,6.071c-.5-.009-.982,0-1.432-.029a4.48,4.48,0,0,1-1.229-.251,5.552,5.552,0,0,1-.932-.439,6.3,6.3,0,0,1-.644-.432c-.169-.129-.294-.236-.377-.312a.715.715,0,0,1-.119-.123,1.105,1.105,0,0,1,.135.1c.087.069.217.169.39.29a6.872,6.872,0,0,0,.651.407,5.652,5.652,0,0,0,.927.411,4.429,4.429,0,0,0,1.2.224c.443.025.92.005,1.426.008a7.677,7.677,0,0,1,.781.039,3.82,3.82,0,0,1,.806.173,2.734,2.734,0,0,1,.394.166,2.686,2.686,0,0,1,.371.229,3.1,3.1,0,0,1,.335.285c.053.051.108.1.159.153l.153.16a6.036,6.036,0,0,1,.559.7c.089.123.165.255.245.385.04.065.074.134.112.2s.075.134.107.2a8.69,8.69,0,0,1,.637,1.753l.057.228c.019.076.033.153.05.23l.048.231.042.232c.029.154.051.31.074.465l.017.116c0,.031.013.068.022.1.018.072.039.144.064.214a4.054,4.054,0,0,0,.4.813c.081.128.167.253.259.372l.141.181c.049.062.1.124.141.188a12.875,12.875,0,0,1,.947,1.568c.139.265.266.533.386.8s.228.536.321.807l.035.1.032.1c.021.068.042.136.06.2l.109.4q.106.4.192.782a10.354,10.354,0,0,1,.229,1.489,4.955,4.955,0,0,1,0,.739,2.415,2.415,0,0,1-.18.772l-.047.094c-.016.031-.036.059-.053.088a1.49,1.49,0,0,1-.115.171,2.273,2.273,0,0,1-.279.31,2.723,2.723,0,0,1-.7.462,6.275,6.275,0,0,1-1.637.47,17.278,17.278,0,0,1-1.732.193c-1.171.072-2.359.059-3.523.07-.581.007-1.159.013-1.715.071a6.958,6.958,0,0,0-.817.158c-.27.064-.538.131-.8.19a15.559,15.559,0,0,1-1.565.277c-.508.061-1,.094-1.468.1-.117,0-.232,0-.346,0s-.226,0-.336,0c-.221-.009-.435-.012-.641-.03l-.3-.022-.074-.005-.021,0-.022,0-.036-.007-.142-.029q-.281-.06-.536-.123a6.3,6.3,0,0,1-.9-.283l-.094-.044-.088-.05a.793.793,0,0,1-.149-.123.488.488,0,0,1-.1-.15.291.291,0,0,1-.017-.165A.281.281,0,0,1,42.408,23a.369.369,0,0,1,.1-.075.6.6,0,0,1,.186-.052A.314.314,0,0,1,42.853,22.883Z" transform="translate(-42.335 -4.484)" fill="#76706b"/>
          </g>
          <g id="Group_637549" data-name="Group 637549" transform="translate(10.259 18.265)">
            <path id="Path_6689933" data-name="Path 6689933" d="M40.4,67.551a1.549,1.549,0,0,1-.4-.024c-.245-.029-.583-.073-.962-.143-.095-.018-.192-.037-.292-.063s-.192-.056-.29-.077a1.467,1.467,0,0,0-.289-.038.4.4,0,0,0-.242.058.247.247,0,0,0-.086.2.315.315,0,0,0,.063.215.608.608,0,0,0,.186.148,1.849,1.849,0,0,0,.225.1c.149.057.326.109.516.168l.6.187c.205.063.416.122.627.17s.421.085.623.114c.409.056.774.12,1.037.173a1.84,1.84,0,0,1,.42.107,2.206,2.206,0,0,1-.432-.034c-.266-.03-.632-.074-1.041-.113-.207-.02-.423-.05-.64-.093s-.434-.1-.644-.156-.412-.121-.6-.177-.369-.108-.529-.168A1.951,1.951,0,0,1,38,67.993a.776.776,0,0,1-.244-.2.357.357,0,0,1-.046-.075l-.019-.041a.332.332,0,0,1-.013-.043l-.011-.044a.351.351,0,0,1,0-.044.4.4,0,0,1,0-.089.521.521,0,0,1,.04-.177.324.324,0,0,1,.051-.085.342.342,0,0,1,.034-.038l.04-.031a.182.182,0,0,1,.042-.026l.044-.022A.742.742,0,0,1,38,67.05a.773.773,0,0,1,.174-.011,1.575,1.575,0,0,1,.322.051c.1.025.2.06.295.089s.187.051.279.073c.371.086.706.151.946.2A1.842,1.842,0,0,1,40.4,67.551Z" transform="translate(-37.654 -67.038)" fill="#76706b"/>
          </g>
          <g id="Group_637550" data-name="Group 637550" transform="translate(9.772 17.054)">
            <path id="Path_6689934" data-name="Path 6689934" d="M39.856,63.343s-.013,0-.032,0l-.09-.011-.334-.038c-.284-.032-.678-.071-1.12-.132a13.581,13.581,0,0,1-1.389-.3,3.114,3.114,0,0,0-.337-.069.911.911,0,0,0-.308,0,.224.224,0,0,0-.106.048.2.2,0,0,0-.053.095.545.545,0,0,0-.027.126.324.324,0,0,0,.012.112.4.4,0,0,0,.146.193,1.192,1.192,0,0,0,.268.15c.215.089.438.2.665.291a2.706,2.706,0,0,0,.35.116q.09.022.181.038l.189.031c.253.046.5.1.732.154.467.106.885.21,1.186.288a2.648,2.648,0,0,1,.481.147,2.724,2.724,0,0,1-.5-.074l-1.2-.229c-.235-.044-.481-.091-.73-.129l-.189-.026q-.1-.015-.194-.036a2.868,2.868,0,0,1-.374-.115c-.24-.093-.46-.2-.672-.282a1.362,1.362,0,0,1-.314-.173.7.7,0,0,1-.128-.126.533.533,0,0,1-.083-.161.513.513,0,0,1-.019-.18.744.744,0,0,1,.037-.174.391.391,0,0,1,.109-.175.4.4,0,0,1,.19-.089.8.8,0,0,1,.19-.015,1.408,1.408,0,0,1,.183.017,3.266,3.266,0,0,1,.355.079c.462.126.933.261,1.366.338s.829.137,1.11.191c.141.027.253.051.33.073a.7.7,0,0,1,.088.03C39.849,63.333,39.858,63.34,39.856,63.343Z" transform="translate(-35.868 -62.594)" fill="#76706b"/>
          </g>
          <g id="Group_637551" data-name="Group 637551" transform="translate(10.02 15.822)">
            <path id="Path_6689935" data-name="Path 6689935" d="M42.968,58.164c.005.011-.171.12-.452.313-.036.024-.071.05-.111.076l-.065.038c-.022.013-.047.021-.071.032a1.8,1.8,0,0,1-.316.1,4.816,4.816,0,0,1-.748.1c-.134.009-.272.013-.412.013a3.7,3.7,0,0,1-.432-.019c-.147-.019-.288-.047-.43-.076s-.283-.06-.422-.092l-.812-.188-.378-.086-.179-.039c-.057-.011-.114-.024-.169-.032a2.058,2.058,0,0,0-.723-.014.747.747,0,0,0-.175.059.33.33,0,0,0-.069.046.1.1,0,0,0-.034.051.266.266,0,0,0,0,.161.277.277,0,0,0,.036.076.166.166,0,0,0,.026.031.278.278,0,0,0,.028.017c.028.016.061.031.094.045s.068.028.1.043c.069.028.14.054.211.08.142.053.286.1.429.153l.842.286c.542.183,1.032.347,1.375.5a3.481,3.481,0,0,1,.4.2c.09.053.134.094.129.1a1.2,1.2,0,0,1-.147-.065c-.094-.042-.232-.1-.406-.161-.347-.128-.84-.271-1.388-.438-.274-.083-.561-.172-.851-.265-.145-.047-.291-.094-.436-.145-.072-.025-.145-.051-.217-.078-.036-.014-.072-.027-.108-.043s-.072-.031-.11-.051a.28.28,0,0,1-.113-.1.458.458,0,0,1-.065-.4.282.282,0,0,1,.032-.07.187.187,0,0,1,.025-.032.182.182,0,0,1,.026-.026.512.512,0,0,1,.107-.075.934.934,0,0,1,.221-.078,2.184,2.184,0,0,1,.794.009c.058.009.117.023.178.034l.181.04.38.089.809.2c.139.034.278.068.417.1s.28.063.416.083a3.646,3.646,0,0,0,.413.029c.138,0,.273,0,.4,0a5.1,5.1,0,0,0,.733-.067,1.8,1.8,0,0,0,.3-.078c.022-.009.046-.016.066-.026l.06-.031c.04-.022.078-.047.115-.068A2.179,2.179,0,0,1,42.968,58.164Z" transform="translate(-36.776 -58.07)" fill="#76706b"/>
          </g>
          <g id="Group_637552" data-name="Group 637552" transform="translate(12.966 14.442)">
            <path id="Path_6689936" data-name="Path 6689936" d="M61.855,53.268a1.014,1.014,0,0,1-.238.1c-.078.029-.174.061-.284.105s-.237.088-.372.149a5.065,5.065,0,0,0-.92.488c-.164.109-.326.238-.5.37a3.945,3.945,0,0,1-.589.363,6.54,6.54,0,0,1-1.4.475,9.15,9.15,0,0,1-1.512.2,9.548,9.548,0,0,1-1.477-.04c-.119-.014-.233-.028-.353-.051a1.286,1.286,0,0,1-.344-.142,5.171,5.171,0,0,1-.54-.358c-.174-.128-.354-.27-.542-.419l-.287-.227-.148-.115c-.025-.02-.049-.036-.074-.053s-.047-.035-.074-.049a3.535,3.535,0,0,0-.707-.3c-.255-.083-.522-.153-.794-.218l-.412-.1c-.137-.03-.281-.068-.411-.093a6.624,6.624,0,0,0-.831-.085c-.28-.016-.559-.025-.837-.056l-.1-.014c-.035,0-.061-.007-.092-.01a.372.372,0,0,0-.154.022.15.15,0,0,0-.082.093.259.259,0,0,0-.014.072.369.369,0,0,0,0,.075v.006a.634.634,0,0,0,.328.465,1.907,1.907,0,0,0,.548.208c.372.087.718.114,1.006.157a1.469,1.469,0,0,1,.658.214.354.354,0,0,1,.122.148c.015.042.01.067.006.066s-.007-.022-.028-.056a.39.39,0,0,0-.127-.119,1.549,1.549,0,0,0-.642-.162,9.517,9.517,0,0,1-1.024-.118,2.013,2.013,0,0,1-.6-.207.9.9,0,0,1-.271-.228.741.741,0,0,1-.148-.345v.006a.536.536,0,0,1-.009-.119.451.451,0,0,1,.021-.12.352.352,0,0,1,.063-.116.581.581,0,0,1,.05-.047c.019-.012.038-.025.057-.036a.538.538,0,0,1,.239-.044c.037,0,.078.006.111.01l.1.011c.266.025.545.028.827.039a6.673,6.673,0,0,1,.861.074c.149.027.281.06.421.089l.416.09c.276.063.55.131.815.214a3.714,3.714,0,0,1,.762.319c.03.016.059.038.087.057s.059.039.083.059l.151.116.289.227c.187.148.366.287.536.413a5.151,5.151,0,0,0,.512.341,1.084,1.084,0,0,0,.272.117c.1.021.217.037.331.05a9.655,9.655,0,0,0,1.439.054,9.211,9.211,0,0,0,1.478-.173,6.547,6.547,0,0,0,1.364-.431,3.924,3.924,0,0,0,.573-.333c.177-.123.347-.251.52-.357a4.77,4.77,0,0,1,.962-.461c.14-.055.271-.092.384-.129s.212-.062.293-.083A1.006,1.006,0,0,1,61.855,53.268Z" transform="translate(-47.587 -53.006)" fill="#76706b"/>
          </g>
          <g id="Group_637553" data-name="Group 637553" transform="translate(22.19 10.454)">
            <path id="Path_6689937" data-name="Path 6689937" d="M81.448,38.369c.04-.009.161.453.4,1l.092.211c.033.071.071.141.107.213.069.145.154.284.233.422a6.88,6.88,0,0,0,.507.726c.077.1.173.211.273.329l.161.177c.056.06.115.119.173.181L83.76,42l.092.093.089.1c.03.031.057.069.085.1a1.147,1.147,0,0,1,.076.105,2.147,2.147,0,0,1,.327.789c.039.215.023.351.005.35a2.571,2.571,0,0,1-.1-.326,2.411,2.411,0,0,0-.378-.709.93.93,0,0,0-.075-.091c-.027-.029-.051-.059-.082-.087l-.09-.087-.095-.086c-.128-.116-.26-.234-.386-.353-.062-.06-.125-.119-.184-.179l-.171-.178c-.106-.12-.207-.231-.288-.338a5.519,5.519,0,0,1-.51-.767c-.077-.147-.158-.3-.221-.449-.033-.076-.068-.151-.1-.226l-.08-.223A3.254,3.254,0,0,1,81.448,38.369Z" transform="translate(-81.441 -38.369)" fill="#76706b"/>
          </g>
          <g id="Group_637554" data-name="Group 637554" transform="translate(20.358 9.699)">
            <path id="Path_6689938" data-name="Path 6689938" d="M74.72,39.861c-.018-.037.345-.2.689-.547a2.858,2.858,0,0,0,.465-.608,3.682,3.682,0,0,0,.291-.656,4.821,4.821,0,0,0,.181-.724c.024-.136.042-.277.055-.417.007-.071.012-.139.018-.21a1.6,1.6,0,0,1,.033-.217,2.309,2.309,0,0,1,.266-.654c.091-.153.162-.237.177-.229s-.026.11-.087.272a2.961,2.961,0,0,0-.178.643,1.519,1.519,0,0,0-.014.193c0,.069,0,.143,0,.215,0,.146-.016.294-.034.438a3.98,3.98,0,0,1-.172.771,3.214,3.214,0,0,1-.332.7,2.656,2.656,0,0,1-.544.619,2.307,2.307,0,0,1-.554.343,1.14,1.14,0,0,1-.183.065C74.749,39.866,74.724,39.869,74.72,39.861Z" transform="translate(-74.72 -35.599)" fill="#76706b"/>
          </g>
          <g id="Group_637555" data-name="Group 637555" transform="translate(21.359 20.029)">
            <path id="Path_6689939" data-name="Path 6689939" d="M78.518,76.573a6.028,6.028,0,0,1-.125-1.485,7.015,7.015,0,0,1,.129-1.577,7.015,7.015,0,0,1,.125,1.578A6.053,6.053,0,0,1,78.518,76.573Z" transform="translate(-78.393 -73.511)" fill="#76706b"/>
          </g>
          <g id="Group_637556" data-name="Group 637556" transform="translate(21.53 11.465)">
            <path id="Path_6689940" data-name="Path 6689940" d="M79.057,47.427a3.751,3.751,0,0,1-.026-.976,8.307,8.307,0,0,1,.214-1.681c.016-.059.034-.12.056-.185l.065-.192c.044-.132.089-.274.133-.42.089-.292.175-.6.25-.882a6.765,6.765,0,0,1,.292-1.013,3.991,3.991,0,0,1-.116,1.053c-.053.289-.122.606-.2.906-.039.15-.08.3-.122.432l-.062.2c-.019.059-.036.117-.051.172a13.017,13.017,0,0,0-.28,1.629A4.853,4.853,0,0,1,79.057,47.427Z" transform="translate(-79.02 -42.078)" fill="#76706b"/>
          </g>
          <g id="Group_637557" data-name="Group 637557" transform="translate(13.158 14.453)">
            <path id="Path_6689941" data-name="Path 6689941" d="M48.363,53.625c-.016,0-.045-.059-.061-.162a.619.619,0,0,1,0-.185.432.432,0,0,1,.031-.111.258.258,0,0,1,.107-.122l.05,0,.04,0,.058.005c.038,0,.076.01.113.018a.885.885,0,0,1,.207.066.427.427,0,0,1,.142.106.255.255,0,0,1,.053.108.24.24,0,0,1-.078.231.346.346,0,0,1-.094.057.628.628,0,0,1-.179.04,1.058,1.058,0,0,1-.278-.015c-.069-.013-.11-.031-.109-.044s.044-.021.111-.031a2.414,2.414,0,0,0,.255-.044.567.567,0,0,0,.134-.05.117.117,0,0,0,.064-.07.068.068,0,0,0-.02-.062.3.3,0,0,0-.084-.056.97.97,0,0,0-.165-.059l-.1-.024-.051-.01-.013,0h0l0,0c-.007,0-.007,0-.025.023a.331.331,0,0,0-.034.072.77.77,0,0,0-.033.154C48.384,53.556,48.381,53.622,48.363,53.625Z" transform="translate(-48.294 -53.045)" fill="#76706b"/>
          </g>
          <g id="Group_637558" data-name="Group 637558" transform="translate(10.208 16.042)">
            <path id="Path_6689942" data-name="Path 6689942" d="M37.524,58.894c.007-.024.093-.028.2.017a.454.454,0,0,1,.15.1.308.308,0,0,1,.083.178.2.2,0,0,1,0,.05.213.213,0,0,1-.01.053.227.227,0,0,1-.071.11.243.243,0,0,1-.115.049.345.345,0,0,1-.1,0c-.12-.02-.194-.075-.187-.1s.1-.02.188-.036a.287.287,0,0,0,.063-.017.085.085,0,0,0,.034-.025.089.089,0,0,0,.008-.028.072.072,0,0,0,0-.02.064.064,0,0,0,0-.018.2.2,0,0,0-.031-.087.534.534,0,0,0-.085-.1C37.582,58.962,37.516,58.92,37.524,58.894Z" transform="translate(-37.467 -58.876)" fill="#76706b"/>
          </g>
          <g id="Group_637559" data-name="Group 637559" transform="translate(9.895 17.242)">
            <path id="Path_6689943" data-name="Path 6689943" d="M36.443,63.292c.011-.023.1-.01.214.049a.5.5,0,0,1,.16.134.355.355,0,0,1,.054.1.321.321,0,0,1,.012.111.329.329,0,0,1-.029.108.264.264,0,0,1-.038.059.212.212,0,0,1-.058.048.243.243,0,0,1-.069.027.349.349,0,0,1-.066.006.385.385,0,0,1-.112-.02c-.131-.044-.205-.118-.194-.14s.109,0,.219.007a.186.186,0,0,0,.126-.028.079.079,0,0,0,.02-.034c0-.007,0-.018.007-.026s0-.016,0-.024a.177.177,0,0,0-.023-.1.545.545,0,0,0-.093-.122C36.5,63.374,36.431,63.316,36.443,63.292Z" transform="translate(-36.316 -63.282)" fill="#76706b"/>
          </g>
          <g id="Group_637560" data-name="Group 637560" transform="translate(10.434 18.4)">
            <path id="Path_6689944" data-name="Path 6689944" d="M38.347,67.547c.008-.023.109-.019.233.032a.519.519,0,0,1,.184.127.373.373,0,0,1,.1.209.413.413,0,0,1,0,.108.242.242,0,0,1-.005.033.208.208,0,0,1-.013.041.205.205,0,0,1-.055.072.255.255,0,0,1-.143.052.458.458,0,0,1-.119-.008c-.143-.029-.236-.089-.229-.113s.116-.014.237-.022a.436.436,0,0,0,.086-.014.1.1,0,0,0,.05-.027c0-.01,0-.007,0-.032a.35.35,0,0,0,0-.067.27.27,0,0,0-.044-.123.543.543,0,0,0-.115-.12C38.423,67.624,38.337,67.572,38.347,67.547Z" transform="translate(-38.296 -67.533)" fill="#76706b"/>
          </g>
          <g id="Group_637561" data-name="Group 637561" transform="translate(11.63 19.721)">
            <path id="Path_6689945" data-name="Path 6689945" d="M42.687,72.407c0-.025.1-.04.212-.014a.6.6,0,0,1,.181.072.365.365,0,0,1,.142.152.259.259,0,0,1,.024.116.267.267,0,0,1-.012.067.381.381,0,0,1-.016.038.217.217,0,0,1-.026.035.2.2,0,0,1-.136.062.364.364,0,0,1-.111-.01c-.129-.033-.207-.1-.2-.119s.106-.01.212-.015a.287.287,0,0,0,.071-.012c.021-.006.028-.017.028-.02s0,0,0,0a.008.008,0,0,1,0-.005.144.144,0,0,0,0-.019.105.105,0,0,0-.011-.036.279.279,0,0,0-.071-.089.83.83,0,0,0-.126-.088C42.763,72.467,42.683,72.433,42.687,72.407Z" transform="translate(-42.687 -72.379)" fill="#76706b"/>
          </g>
          <g id="Group_637562" data-name="Group 637562" transform="translate(15.628 21.814)">
            <path id="Path_6689946" data-name="Path 6689946" d="M57.924,80.089c0-.005.016,0,.034,0a.25.25,0,0,1,.072.044.436.436,0,0,1,.151.248.539.539,0,0,1,.008.184c0,.016,0,.031-.008.047l-.005.023a.288.288,0,0,1-.011.035.645.645,0,0,1-.028.072.112.112,0,0,1-.008.017l-.019,0-.038,0-.039,0-.019,0H58l-.044,0c-.029,0-.057,0-.086,0a.9.9,0,0,1-.159-.022.587.587,0,0,1-.162-.065.4.4,0,0,1-.148-.156c-.008-.017-.015-.035-.022-.053l-.013-.054-.005-.054a.5.5,0,0,1,0-.063.332.332,0,0,1,.02-.062.4.4,0,0,1,.034-.052.558.558,0,0,1,.041-.039c.015-.011.029-.019.044-.028a.639.639,0,0,1,.3-.065c.075,0,.121.014.121.027s-.043.026-.111.047a.793.793,0,0,0-.237.1.119.119,0,0,0-.056.09c0,.009,0,.016,0,.026l.007.034.011.031.014.028a.316.316,0,0,0,.2.12,1,1,0,0,0,.128.021l.074.005h.049s.005,0,.008,0,0,0,0,0l.006-.017c0-.011.007-.023.01-.034a.471.471,0,0,0,.014-.137.445.445,0,0,0-.072-.217c-.015-.028-.032-.048-.041-.064S57.92,80.094,57.924,80.089Z" transform="translate(-57.36 -80.062)" fill="#76706b"/>
          </g>
          <g id="Group_637563" data-name="Group 637563" transform="translate(18.486 23.83)">
            <path id="Path_6689947" data-name="Path 6689947" d="M67.962,88.028c-.021.012-.072-.026-.1-.1a.338.338,0,0,1,.022-.242.465.465,0,0,1,.161-.173c.065-.042.127-.057.142-.036s-.014.072-.046.13-.068.123-.087.163a.661.661,0,0,0-.059.145C67.985,87.962,67.986,88.015,67.962,88.028Z" transform="translate(-67.85 -87.462)" fill="#76706b"/>
          </g>
          <g id="Group_637564" data-name="Group 637564" transform="translate(18.631 24.485)">
            <path id="Path_6689948" data-name="Path 6689948" d="M68.473,90.336c-.021.012-.071-.022-.088-.1a.294.294,0,0,1,.042-.211.413.413,0,0,1,.154-.134c.059-.031.115-.039.129-.017s-.01.067-.04.117l-.083.137a.872.872,0,0,0-.068.11C68.5,90.277,68.5,90.323,68.473,90.336Z" transform="translate(-68.38 -89.864)" fill="#76706b"/>
          </g>
          <g id="Group_637565" data-name="Group 637565" transform="translate(4.313 9.076)">
            <path id="Path_6689949" data-name="Path 6689949" d="M16.8,33.36c0,.017-.023.037-.056.055-.017.008-.036.021-.056.033l-.032.018-.034.023a3.288,3.288,0,0,0-.272.209l-.3.233c-.1.079-.189.142-.217.122s.01-.126.083-.242a1.327,1.327,0,0,1,.27-.311.914.914,0,0,1,.367-.179l.049-.009.047,0a.246.246,0,0,1,.078.007C16.778,33.328,16.8,33.343,16.8,33.36Z" transform="translate(-15.829 -33.31)" fill="#76706b"/>
          </g>
          <g id="Group_637566" data-name="Group 637566" transform="translate(9.094 3.877)">
            <path id="Path_6689950" data-name="Path 6689950" d="M37.832,15.347c-.005,0-.026-.007-.058-.028l-.065-.032-.089-.038a5.212,5.212,0,0,0-.55-.169c-.442-.116-.988-.229-1.375-.311l-1.45-.311a5.257,5.257,0,0,1-.866-.217,4.344,4.344,0,0,1,.889.084c.491.07,1.077.174,1.466.257a12.822,12.822,0,0,1,1.374.369,3.206,3.206,0,0,1,.544.232c.032.021.061.038.086.056l.059.051C37.825,15.323,37.837,15.342,37.832,15.347Z" transform="translate(-33.379 -14.231)" fill="#76706b"/>
          </g>
          <g id="Group_637567" data-name="Group 637567" transform="translate(16.838 3.499)">
            <path id="Path_6689951" data-name="Path 6689951" d="M63.482,12.85a2.85,2.85,0,0,1-.781.416,3.305,3.305,0,0,1-.9.259,3.314,3.314,0,0,1,.832-.436A2.842,2.842,0,0,1,63.482,12.85Z" transform="translate(-61.798 -12.841)" fill="#76706b"/>
          </g>
          <g id="Group_637568" data-name="Group 637568" transform="translate(14.932 4.866)">
            <path id="Path_6689952" data-name="Path 6689952" d="M55.384,17.875c.013.024-.028.071-.078.125s-.114.115-.161.155-.122.1-.188.141-.123.081-.144.065,0-.084.045-.157a.846.846,0,0,1,.163-.195.772.772,0,0,1,.21-.122C55.307,17.859,55.372,17.852,55.384,17.875Z" transform="translate(-54.804 -17.861)" fill="#76706b"/>
          </g>
        </g>
      </g>
    </g>
  </g>
</svg>
