<svg xmlns="http://www.w3.org/2000/svg" width="30" height="30" viewBox="0 0 30 30">
  <g id="Artwork_68" data-name="Artwork 68" transform="translate(19.695 19.695)">
    <g id="Group_611440" data-name="Group 611440" transform="translate(-19.696 -19.695)">
      <g id="Group_611436" data-name="Group 611436" transform="translate(7.818 3.49)">
        <g id="Group_611433" data-name="Group 611433" transform="translate(0 11.391)">
          <path id="Path_6311810" data-name="Path 6311810" d="M51.7,96.3a.458.458,0,0,1-.2-.045l-6.662-3.17a.459.459,0,0,1-.256-.485,18.038,18.038,0,0,1,1.484-4.629,10.382,10.382,0,0,1,1.524-2.33.459.459,0,1,1,.686.61A9.474,9.474,0,0,0,46.9,88.377a17.394,17.394,0,0,0-1.339,4.033l6.15,2.927,6.38-2.929c-.253-1.146-1.219-4.86-3.443-6.738a.459.459,0,1,1,.592-.7c2.893,2.443,3.788,7.415,3.825,7.626a.458.458,0,0,1-.261.5L51.9,96.261A.46.46,0,0,1,51.7,96.3Z" transform="translate(-44.583 -84.86)"/>
        </g>
        <g id="Group_611434" data-name="Group 611434" transform="translate(2.783 5.591)">
          <path id="Path_6311811" data-name="Path 6311811" d="M64.79,58.258c-2.076,0-3.7-2.3-4.32-4.444a.459.459,0,1,1,.881-.257c.536,1.834,1.923,3.783,3.439,3.783,1.957,0,3.58-3.1,3.677-5.117a.459.459,0,1,1,.917.044C69.269,54.653,67.378,58.258,64.79,58.258Z" transform="translate(-60.451 -51.787)"/>
        </g>
        <g id="Group_611435" data-name="Group 611435" transform="translate(1.641)">
          <path id="Path_6311812" data-name="Path 6311812" d="M54.7,27.949a.459.459,0,0,1-.435-.312,7.088,7.088,0,0,1-.325-2.122,5.609,5.609,0,0,1,11.2-.4.46.46,0,0,1-.048.239c-.584,1.163-3.018,1.473-3.5,1.523a.459.459,0,0,1-.491-.575,6.048,6.048,0,0,0,.13-.843,13.456,13.456,0,0,1-6.513,2.495Zm4.851-7.128a4.7,4.7,0,0,0-4.692,4.694A6.517,6.517,0,0,0,55.037,27a12.554,12.554,0,0,0,5.7-2.329,2.185,2.185,0,0,0,.586-.718.459.459,0,0,1,.881.174c0,.346,0,.687-.023,1.014-.018.285-.043.529-.069.729a4.136,4.136,0,0,0,2.1-.84A4.706,4.706,0,0,0,59.55,20.821Z" transform="translate(-53.94 -19.903)"/>
        </g>
      </g>
      <g id="Group_611437" data-name="Group 611437">
        <path id="Path_6311813" data-name="Path 6311813" d="M15,30A15,15,0,1,1,30,15,15.017,15.017,0,0,1,15,30ZM15,.918A14.082,14.082,0,1,0,29.083,15,14.1,14.1,0,0,0,15,.918Z"/>
      </g>
      <g id="Group_611438" data-name="Group 611438" transform="translate(21.677 5.064)">
        <path id="Path_6311814" data-name="Path 6311814" d="M126.187,46.7a.459.459,0,0,1-.357-.747,11.435,11.435,0,0,0,2.514-7.143A11.319,11.319,0,0,0,123.8,29.7a.459.459,0,1,1,.553-.733,12.229,12.229,0,0,1,4.909,9.843,12.353,12.353,0,0,1-2.716,7.718A.458.458,0,0,1,126.187,46.7Z" transform="translate(-123.617 -28.879)"/>
      </g>
      <g id="Group_611439" data-name="Group 611439" transform="translate(2.679 4.603)">
        <path id="Path_6311815" data-name="Path 6311815" d="M18.435,44.641a.457.457,0,0,1-.354-.167,12.324,12.324,0,0,1,2.786-18.148.459.459,0,0,1,.5.768,11.406,11.406,0,0,0-2.579,16.8.459.459,0,0,1-.354.751Z" transform="translate(-15.276 -26.251)"/>
      </g>
    </g>
  </g>
</svg>
