<svg xmlns="http://www.w3.org/2000/svg" xmlns:xlink="http://www.w3.org/1999/xlink" width="30" height="30" viewBox="0 0 30 30">
  <defs>
    <clipPath id="clip-path">
      <rect id="Rectangle_177909" data-name="Rectangle 177909" width="30" height="30" transform="translate(691 9952)" fill="#fff"/>
    </clipPath>
  </defs>
  <g id="Mask_Group_402" data-name="Mask Group 402" transform="translate(-691 -9952)" clip-path="url(#clip-path)">
    <g id="Layer_2" data-name="Layer 2" transform="translate(697.752 9952.014)">
      <g id="Ñëîé_1" data-name="Ñëîé 1" transform="translate(-0.01 -0.014)">
        <path id="Path_5821" data-name="Path 5821" d="M5.034,13.467a.377.377,0,0,1-.4-.243c0-.458,0-.781,0-1.024v-.512A5.234,5.234,0,0,1,6.031,9.8a.4.4,0,1,1,.566.566,6.116,6.116,0,0,0-1.159,1.32,2.937,2.937,0,0,1,0,.4v1.024a.4.4,0,0,1-.377.431Z" transform="translate(7.873 16.452)" fill="#76706b"/>
        <path id="Path_5822" data-name="Path 5822" d="M4.9,13.55h0a.4.4,0,0,1-.35-.431c0-.458,0-.754,0-1v-.431A6.79,6.79,0,0,0,3.34,10.317a.391.391,0,1,1,.539-.566c.566.512,1.455,1.428,1.455,1.94a2.694,2.694,0,0,1,0,.566v.97a.377.377,0,0,1-.431.323Z" transform="translate(5.472 16.369)" fill="#76706b"/>
        <path id="Path_5823" data-name="Path 5823" d="M3.375,8.472A1.913,1.913,0,0,0,3.887,9.6a4.634,4.634,0,0,0,2.991,1.1s-1.159.35-1.32,1.239A2.937,2.937,0,0,1,4.8,13.592,8.407,8.407,0,0,0,3.267,12.11a1.482,1.482,0,0,1-.539-1.832l.647-1.805m0-.808a.835.835,0,0,0-.754.539L2.109,9.981a2.263,2.263,0,0,0,.754,2.694,7.9,7.9,0,0,1,1.374,1.293.728.728,0,0,0,.566.35h0a.727.727,0,0,0,.512-.216A3.691,3.691,0,0,0,6.339,12c0-.323.674-.593.781-.62a.808.808,0,0,0-.242-1.563,3.8,3.8,0,0,1-2.4-.835.97.97,0,0,1-.3-.62A.781.781,0,0,0,3.51,7.61Z" transform="translate(3.308 12.933)" fill="#76706b"/>
        <path id="Path_5824" data-name="Path 5824" d="M8.752,8.455,9.4,10.261a1.482,1.482,0,0,1-.539,1.832,8.407,8.407,0,0,0-1.536,1.482,2.937,2.937,0,0,1-.754-1.644c-.162-.889-1.32-1.239-1.32-1.239a4.634,4.634,0,0,0,3.1-1.1,1.913,1.913,0,0,0,.512-1.132m0-.808H8.617a.781.781,0,0,0-.674.754.97.97,0,0,1-.3.62,3.8,3.8,0,0,1-2.4.835.808.808,0,0,0-.242,1.482.976.976,0,0,1,.754.62,3.826,3.826,0,0,0,1.051,2.1.727.727,0,0,0,.512.216h0a.727.727,0,0,0,.539-.35,9.457,9.457,0,0,1,1.374-1.293,2.263,2.263,0,0,0,.754-2.694l-.62-1.778a.835.835,0,0,0-.754-.539Z" transform="translate(7.847 12.95)" fill="#76706b"/>
        <path id="Path_5825" data-name="Path 5825" d="M.422,11.259a.4.4,0,0,1-.4-.269.377.377,0,0,1,.269-.512l2.1-.862,2.4-.916a.4.4,0,0,1,.62.323.458.458,0,0,1-.35.593c-.62.189-1.509.539-2.371.889l-2.129.727Z" transform="translate(0.01 14.672)" fill="#76706b"/>
        <path id="Path_5826" data-name="Path 5826" d="M11.544,11.132h-.135l-2.1-.808-2.4-.835a.458.458,0,0,1-.242-.512.4.4,0,0,1,.512-.243L9.6,9.65l2.075.781a.377.377,0,0,1,.242.512A.4.4,0,0,1,11.544,11.132Z" transform="translate(11.306 14.799)" fill="#76706b"/>
        <path id="Path_5827" data-name="Path 5827" d="M5.759,9.4H4.3a.4.4,0,0,1,0-.808H5.759a.4.4,0,1,1,0,.808Z" transform="translate(6.637 14.593)" fill="#76706b"/>
        <path id="Path_5828" data-name="Path 5828" d="M9.326,17.419a4.931,4.931,0,0,1-4.958-3.611c-.727-1.724-1.374-2.694-1.913-2.694-1-.242-1.1-3.907-1.1-3.934,0-1.293.485-2.209,1.186-2.209a.889.889,0,0,1,.7.4C3.236,4,3.613,2.68,5.688,2.68a5.389,5.389,0,0,1,2.236.62,6.3,6.3,0,0,0,3.26.727A5.389,5.389,0,0,0,14.687,3a.431.431,0,0,1,.7.269V5.294a.862.862,0,0,1,.727-.458c.7,0,1.186.916,1.186,2.209,0,0,0,3.691-1.1,3.934-.539,0-1.186,1.1-1.913,2.694a4.931,4.931,0,0,1-4.958,3.745ZM2.7,10.224c.835.242,1.563,1.239,2.4,3.287a4.2,4.2,0,0,0,4.23,3.126,4.2,4.2,0,0,0,4.23-3.126c.862-2.048,1.563-3.045,2.4-3.287a8.568,8.568,0,0,0,.62-3.179,1.913,1.913,0,0,0-.4-1.4l-.162.216c-.377.781-.539,1.1-.889,1.1s-.4,0-.458-.539a4.177,4.177,0,0,1,0-.62V4.054a7.3,7.3,0,0,1-3.476.781,7.329,7.329,0,0,1-3.476-.862A4.122,4.122,0,0,0,5.8,3.542c-1.428,0-1.671.566-1.671,1.967s0,1.509-.485,1.509h0c-.323,0-.431-.189-.835-1.051l-.162-.216a1.913,1.913,0,0,0-.4,1.4A8.568,8.568,0,0,0,2.7,10.224Z" transform="translate(2.316 4.579)" fill="#76706b"/>
        <path id="Path_5829" data-name="Path 5829" d="M14.917,11.529c-.485,0-.485-.512-.485-1.159V8.619a7.3,7.3,0,0,1-3.395.781,7.329,7.329,0,0,1-3.476-.862,4.122,4.122,0,0,0-1.913-.431c-1.428,0-1.671.566-1.671,1.967V10.8c0,.162,0,.647-.485.647s-.539-.162-.943-1.024l-.162-.216a.539.539,0,0,1-.35,0,.377.377,0,0,1-.269-.269A10.05,10.05,0,0,1,1.445,7,7.41,7.41,0,0,1,9.178.024a3.853,3.853,0,0,1,3.476,1.32,3.1,3.1,0,0,1,.7,0c2.425,0,3.584,3.449,3.584,5.793a10.077,10.077,0,0,1-.35,2.856.4.4,0,0,1-.162.269.377.377,0,0,1-.377,0,.566.566,0,0,0-.162.216C15.429,11.206,15.267,11.529,14.917,11.529Zm0-4.069h0a.377.377,0,0,1,.269.35V9.832a.889.889,0,0,1,.674-.458,9.781,9.781,0,0,0,.216-2.344c0-2.048-1-5.012-2.694-5.012a2.317,2.317,0,0,0-.754.162.377.377,0,0,1-.512-.189C11.764,1.209,10.767.832,9.178.832A6.628,6.628,0,0,0,2.226,7.056,11.4,11.4,0,0,0,2.441,9.4a.916.916,0,0,1,.647.4c0-1.374.377-2.694,2.452-2.694a5.389,5.389,0,0,1,2.236.62,6.3,6.3,0,0,0,3.26.862,5.389,5.389,0,0,0,3.5-1.024.4.4,0,0,1,.3-.108Z" transform="translate(2.464 0.014)" fill="#76706b"/>
        <path id="Path_5830" data-name="Path 5830" d="M6.48,6.63h0a3.072,3.072,0,0,1-1.7-.593.323.323,0,0,1,0-.35.377.377,0,0,1,.269-.269A3.584,3.584,0,0,0,6.857,4.5a.377.377,0,0,1,.539,0,.4.4,0,0,1,0,.566A3.88,3.88,0,0,1,6.184,5.9h.4a.4.4,0,0,1,0,.781Z" transform="translate(8.044 7.473)" fill="#099143"/>
        <path id="Path_5831" data-name="Path 5831" d="M3.855,6.665a.377.377,0,0,1-.377-.323A.4.4,0,0,1,3.8,5.884h.377a3.476,3.476,0,0,1-1.186-.835.4.4,0,0,1,.566-.566A3.368,3.368,0,0,0,5.337,5.4a.35.35,0,0,1,.269.269.377.377,0,0,1,0,.377,3.045,3.045,0,0,1-1.617.674Z" transform="translate(4.903 7.438)" fill="#099143"/>
        <path id="Path_5832" data-name="Path 5832" d="M4.639,7.141a.35.35,0,0,1-.35-.216.4.4,0,0,1,.162-.539L5.2,6.063a.377.377,0,0,1,.512,0,.4.4,0,0,1-.162.539L4.8,6.979Z" transform="translate(7.218 10.142)" fill="#76706b"/>
        <path id="Path_5833" data-name="Path 5833" d="M5.374,8.094A.4.4,0,0,1,5,7.825L4.269,5.7a.377.377,0,0,1,.242-.512.4.4,0,0,1,.512.242l.727,2.156a.4.4,0,0,1-.242.512Z" transform="translate(7.21 8.784)" fill="#76706b"/>
      </g>
    </g>
  </g>
</svg>
