<svg xmlns="http://www.w3.org/2000/svg" xmlns:xlink="http://www.w3.org/1999/xlink" width="30" height="30" viewBox="0 0 30 30">
  <defs>
    <clipPath id="clip-path">
      <rect id="Rectangle_177912" data-name="Rectangle 177912" width="30" height="30" transform="translate(676 9918)" fill="#fff"/>
    </clipPath>
  </defs>
  <g id="Mask_Group_408" data-name="Mask Group 408" transform="translate(-676 -9918)" clip-path="url(#clip-path)">
    <g id="Group_738923" data-name="Group 738923" transform="translate(679.515 9918)">
      <path id="Path_9573" data-name="Path 9573" d="M51.7,79.184a7.88,7.88,0,0,1-3.53-1.513l-.071-.044a20.721,20.721,0,0,1-2.434-1.7.294.294,0,0,1-.033-.413.29.29,0,0,1,.411-.03A21.029,21.029,0,0,0,48.4,77.13l.071.044c1.469.9,2.855,1.743,3.781,1.312a1.5,1.5,0,0,0,.923-1.888c-.071-.451-.079-.672.062-.828a.43.43,0,0,1,.374-.12.206.206,0,0,0,.137-.022.241.241,0,0,0,.116-.23c-.016-.126-.157-.24-.384-.309a2.24,2.24,0,0,0-.87-.071.29.29,0,0,1-.358-.2.294.294,0,0,1,.2-.358,2.7,2.7,0,0,1,1.187.074.984.984,0,0,1,.8.792.832.832,0,0,1-.392.806.734.734,0,0,1-.336.1c.007.063.018.15.037.273A2.077,2.077,0,0,1,52.5,79.015,1.834,1.834,0,0,1,51.7,79.184Z" transform="translate(-34.555 -56.436)" fill="#76706b"/>
      <path id="Path_9574" data-name="Path 9574" d="M78.22,38.721a2.446,2.446,0,0,1-.514-.073.293.293,0,0,1,.126-.571c.483.109.519.049.554-.005.07-.115.061-.18.029-.355a1.405,1.405,0,0,1-.008-.6c.139-.648.549-.642.944-.637h.133c.437,0,1.008-.2,1.131-.475.092-.213-.1-.484-.28-.678a6.879,6.879,0,0,1-1.657-2.571.6.6,0,0,1,.188-.648.625.625,0,0,0,.21-.41,2.044,2.044,0,0,0-.639-1.716.3.3,0,0,1-.066-.164,6.983,6.983,0,0,0-.725-2.984.292.292,0,0,1,.455-.366,7.211,7.211,0,0,1,.846,3.213,2.562,2.562,0,0,1,.705,2.106,1.21,1.21,0,0,1-.373.735.425.425,0,0,0-.046.049l.006.022a6.392,6.392,0,0,0,1.525,2.339c.537.574.507,1.027.387,1.3a1.871,1.871,0,0,1-1.665.825h-.139a1.052,1.052,0,0,0-.31.019.357.357,0,0,0-.057.159.861.861,0,0,0,.012.374.958.958,0,0,1-.105.762A.721.721,0,0,1,78.22,38.721Z" transform="translate(-58.759 -19.989)" fill="#76706b"/>
      <path id="Path_9575" data-name="Path 9575" d="M22.469,91.677a.274.274,0,0,1-.209-.09c-.07-.068-6.973-7.09-13.673-7.366a.3.3,0,0,1-.23-.129.286.286,0,0,1-.034-.257,24.932,24.932,0,0,1,1-2.344.289.289,0,0,1,.287-.164,19.281,19.281,0,0,1,7.175,2.35,34.835,34.835,0,0,1,3.59,2.393.292.292,0,0,1,.1.158l.975,3.792c.721.645,1.16,1.09,1.228,1.159a.291.291,0,0,1-.007.412A.279.279,0,0,1,22.469,91.677ZM9.006,83.661c4.626.358,9.157,3.579,11.669,5.691l-.74-2.883a34.257,34.257,0,0,0-3.444-2.287,19.175,19.175,0,0,0-6.732-2.254C9.6,82.262,9.257,83,9.006,83.661Z" transform="translate(-6.3 -61.677)" fill="#76706b"/>
      <path id="Path_9576" data-name="Path 9576" d="M.291,93.73a.3.3,0,0,1-.18-.063.293.293,0,0,1-.048-.41,28.966,28.966,0,0,1,2.029-2.29.293.293,0,0,1,.413.415A27.173,27.173,0,0,0,.521,93.618.29.29,0,0,1,.291,93.73Z" transform="translate(0 -68.924)" fill="#76706b"/>
      <path id="Path_9577" data-name="Path 9577" d="M16.663,74.736a.251.251,0,0,1-.044,0,.291.291,0,0,1-.244-.331l.209-1.374a.292.292,0,1,1,.577.087l-.209,1.374A.292.292,0,0,1,16.663,74.736Z" transform="translate(-12.416 -55.195)" fill="#76706b"/>
      <path id="Path_9578" data-name="Path 9578" d="M8.036,18.18c-.225,0-.448-.005-.664-.022a.293.293,0,0,1-.245-.413c.627-1.4.182-2.284-.436-3.511A10.344,10.344,0,0,1,5.464,7.511c.575-4.678,3.62-5.926,5.329-5.926a.787.787,0,0,1,.083,0A6.181,6.181,0,0,1,15.379,0,10.653,10.653,0,0,1,20.92,1.667C23.163,3.044,24.378,3.333,25,3.333a.847.847,0,0,0,.538-.126.267.267,0,0,1,.307-.12.3.3,0,0,1,.216.29,3.682,3.682,0,0,1-2.169,3.339,4.546,4.546,0,0,1-1.839.385,4.921,4.921,0,0,1-1.923-.4,10.69,10.69,0,0,1-.409,1.864c-.422,1.268-1.316,2.577-2.078,2.577h0c-.281,0-.759-.167-.788-1.284a1.375,1.375,0,0,0-1.409-1.44,1.485,1.485,0,0,0-1.292,1.268,5.245,5.245,0,0,0,.6,3.147A2.651,2.651,0,0,1,14,16.192,9.109,9.109,0,0,1,8.036,18.18ZM7.815,17.6a8.762,8.762,0,0,0,5.77-1.814c1.156-1.159.981-1.885.631-2.716a5.911,5.911,0,0,1-.635-3.481A2.058,2.058,0,0,1,15.4,7.842a1.951,1.951,0,0,1,2.04,2.005c.012.522.132.716.2.716.318,0,1.089-.869,1.526-2.181a11.153,11.153,0,0,0,.43-2.145A.3.3,0,0,1,19.759,6a.289.289,0,0,1,.283.011,4.29,4.29,0,0,0,2.014.505,3.964,3.964,0,0,0,1.6-.339,2.975,2.975,0,0,0,1.783-2.309,2.012,2.012,0,0,1-.44.044,9.6,9.6,0,0,1-4.386-1.751A10.087,10.087,0,0,0,15.379.582a5.483,5.483,0,0,0-4.142,1.484.305.305,0,0,1-.262.115,1.209,1.209,0,0,0-.182-.011c-.419,0-4.1.153-4.752,5.413a9.831,9.831,0,0,0,1.172,6.391C7.8,15.137,8.309,16.156,7.815,17.6Z" transform="translate(-4.062)" fill="#76706b"/>
      <path id="Path_9579" data-name="Path 9579" d="M70.809,49.794a.292.292,0,0,1-.115-.56l.594-.254a8.089,8.089,0,0,1-.745-.778.291.291,0,1,1,.44-.38,5.382,5.382,0,0,0,1.036.986.3.3,0,0,1,.13.271.29.29,0,0,1-.176.24l-1.049.451A.287.287,0,0,1,70.809,49.794Z" transform="translate(-53.446 -36.19)" fill="#76706b"/>
      <g id="Group_8925" data-name="Group 8925" transform="translate(20.707 17.423)">
        <path id="Path_9580" data-name="Path 9580" d="M88.946,91.175a1.823,1.823,0,0,1-1.358-.6,1.83,1.83,0,0,1-1.879-1.7,1.767,1.767,0,0,1,.085-.683.291.291,0,1,1,.553.183,1.209,1.209,0,0,0-.056.459,1.247,1.247,0,0,0,1.328,1.159l.022,0a.442.442,0,0,1,.063-.006.293.293,0,0,1,.247.115,1.243,1.243,0,0,0,2.239-.8.287.287,0,0,1,.133-.257,1.245,1.245,0,0,0,.008-2.1.29.29,0,1,1,.317-.486,1.811,1.811,0,0,1,.831,1.4,1.838,1.838,0,0,1-.706,1.574,1.815,1.815,0,0,1-1.7,1.738A1.016,1.016,0,0,1,88.946,91.175Z" transform="translate(-85.705 -82.952)" fill="#099143"/>
        <path id="Path_9581" data-name="Path 9581" d="M88.29,78.724A.293.293,0,0,1,88,78.492l-.953-4.555a.292.292,0,1,1,.571-.12l.954,4.555a.294.294,0,0,1-.225.347A.483.483,0,0,1,88.29,78.724Z" transform="translate(-86.721 -73.229)" fill="#099143"/>
        <path id="Path_9582" data-name="Path 9582" d="M93.651,76.819a.29.29,0,0,1-.258-.159l-2.16-4.125a.291.291,0,0,1,.123-.394.3.3,0,0,1,.393.123l2.16,4.128a.293.293,0,0,1-.123.394A.3.3,0,0,1,93.651,76.819Z" transform="translate(-89.872 -72.11)" fill="#099143"/>
      </g>
    </g>
  </g>
</svg>
