<svg xmlns="http://www.w3.org/2000/svg" xmlns:xlink="http://www.w3.org/1999/xlink" width="30" height="30" viewBox="0 0 30 30">
  <defs>
    <clipPath id="clip-path">
      <rect id="Rectangle_182569" data-name="Rectangle 182569" width="30" height="30" transform="translate(-19127 -21902)" fill="#fff"/>
    </clipPath>
  </defs>
  <g id="Mask_Group_444" data-name="Mask Group 444" transform="translate(19127 21902)" clip-path="url(#clip-path)">
    <g id="Artwork_92" data-name="Artwork 92" transform="translate(-19023.814 -21829.895)">
      <g id="Group_754549" data-name="Group 754549" transform="translate(-103.185 -66.818)">
        <g id="Group_754538" data-name="Group 754538" transform="translate(6.746 3.698)">
          <g id="Group_754537" data-name="Group 754537">
            <g id="Group_754534" data-name="Group 754534" transform="translate(0 5.306)">
              <path id="Path_8158000" data-name="Path 8158000" d="M49.893,67.6a.382.382,0,0,1-.164-.037l-3.1-1.477a.381.381,0,0,1-.213-.4,8.585,8.585,0,0,1,.706-2.2,5,5,0,0,1,.735-1.123.38.38,0,0,1,.568.506,4.241,4.241,0,0,0-.62.952,7.871,7.871,0,0,0-.583,1.711L49.9,66.8l2.777-1.275a5.894,5.894,0,0,0-1.518-2.917.38.38,0,1,1,.491-.581,7.012,7.012,0,0,1,1.838,3.651.38.38,0,0,1-.216.411L50.052,67.57A.38.38,0,0,1,49.893,67.6Z" transform="translate(-46.409 -61.941)"/>
            </g>
            <g id="Group_754535" data-name="Group 754535" transform="translate(1.296 2.604)">
              <path id="Path_8158001" data-name="Path 8158001" d="M57.513,46.705c-1.053,0-1.864-1.135-2.173-2.19a.38.38,0,0,1,.73-.213c.236.807.84,1.642,1.442,1.642.741,0,1.5-1.253,1.546-2.225a.38.38,0,1,1,.76.036C59.762,44.958,58.835,46.705,57.513,46.705Z" transform="translate(-55.325 -43.357)"/>
            </g>
            <g id="Group_754536" data-name="Group 754536" transform="translate(0.765)">
              <path id="Path_8158002" data-name="Path 8158002" d="M52.188,29.523a.38.38,0,0,1-.36-.259,3.48,3.48,0,0,1-.16-1.041,2.779,2.779,0,0,1,5.551-.2.38.38,0,0,1-.04.2c-.3.6-1.425.765-1.762.8a.381.381,0,0,1-.412-.456,6.581,6.581,0,0,1-2.8.958Zm2.26-3.32a2.022,2.022,0,0,0-2.019,2.02,2.823,2.823,0,0,0,.047.506A5.634,5.634,0,0,0,54.891,27.7a.828.828,0,0,0,.229-.274.38.38,0,0,1,.731.143c0,.166,0,.329-.011.485,0,.041-.005.08-.008.118a1.927,1.927,0,0,0,.614-.239A2.026,2.026,0,0,0,54.448,26.2Z" transform="translate(-51.668 -25.442)"/>
            </g>
          </g>
        </g>
        <g id="Group_754545" data-name="Group 754545">
          <g id="Group_754544" data-name="Group 754544">
            <g id="Group_754541" data-name="Group 754541" transform="translate(0 15.651)">
              <g id="Group_754539" data-name="Group 754539">
                <path id="Path_8158003" data-name="Path 8158003" d="M27.695,111.443H2.3a2.307,2.307,0,0,1-2.3-2.3v-1.09a.38.38,0,0,1,.38-.381H29.619a.381.381,0,0,1,.38.381v1.09A2.307,2.307,0,0,1,27.695,111.443ZM.761,108.429v.709A1.545,1.545,0,0,0,2.3,110.682h25.39a1.545,1.545,0,0,0,1.544-1.544v-.709Z" transform="translate(0 -107.668)"/>
              </g>
              <g id="Group_754540" data-name="Group 754540" transform="translate(11.722)">
                <path id="Path_8158004" data-name="Path 8158004" d="M85.842,109.946H81.984a1.35,1.35,0,0,1-1.349-1.349v-.549a.381.381,0,0,1,.381-.381h5.8a.381.381,0,0,1,.381.381v.549A1.35,1.35,0,0,1,85.842,109.946ZM81.4,108.429v.168a.589.589,0,0,0,.588.588h3.858a.589.589,0,0,0,.588-.588v-.168Z" transform="translate(-80.635 -107.668)"/>
              </g>
            </g>
            <g id="Group_754542" data-name="Group 754542" transform="translate(2.379)">
              <path id="Path_8158005" data-name="Path 8158005" d="M41.226,16.413a.381.381,0,0,1-.381-.381V2.3A1.545,1.545,0,0,0,39.3.761H18.669A1.545,1.545,0,0,0,17.125,2.3V16.032a.381.381,0,0,1-.761,0V2.3a2.307,2.307,0,0,1,2.3-2.3H39.3a2.307,2.307,0,0,1,2.3,2.3V16.032A.381.381,0,0,1,41.226,16.413Z" transform="translate(-16.364 0)"/>
            </g>
            <g id="Group_754543" data-name="Group 754543" transform="translate(3.849 1.55)">
              <path id="Path_8158006" data-name="Path 8158006" d="M48.4,25.525H26.856a.381.381,0,0,1-.38-.381v-14.1a.38.38,0,0,1,.38-.38H48.4a.38.38,0,0,1,.381.38v14.1A.381.381,0,0,1,48.4,25.525Zm-21.161-.761h20.78V11.424H27.237Z" transform="translate(-26.476 -10.663)"/>
            </g>
          </g>
        </g>
        <path id="Path_8158007" data-name="Path 8158007" d="M125.514,23.92h-1.274V22.646h-1.478V23.92h-1.274V25.4h1.274v1.274h1.478V25.4h1.274Z" transform="translate(-103.827 -19.354)"/>
        <g id="Group_754546" data-name="Group 754546" transform="translate(15.655 8.89)">
          <path id="Path_8158008" data-name="Path 8158008" d="M115.809,61.914h-7.737a.38.38,0,1,1,0-.761h7.737a.38.38,0,0,1,0,.761Z" transform="translate(-107.692 -61.153)"/>
        </g>
        <g id="Group_754547" data-name="Group 754547" transform="translate(15.655 10.593)">
          <path id="Path_8158009" data-name="Path 8158009" d="M115.809,73.63h-7.737a.38.38,0,1,1,0-.761h7.737a.38.38,0,0,1,0,.761Z" transform="translate(-107.692 -72.869)"/>
        </g>
        <g id="Group_754548" data-name="Group 754548" transform="translate(15.655 12.571)">
          <path id="Path_8158010" data-name="Path 8158010" d="M115.809,87.241h-7.737a.381.381,0,1,1,0-.761h7.737a.381.381,0,0,1,0,.761Z" transform="translate(-107.692 -86.48)"/>
        </g>
      </g>
    </g>
  </g>
</svg>
