<svg xmlns="http://www.w3.org/2000/svg" xmlns:xlink="http://www.w3.org/1999/xlink" width="30" height="30" viewBox="0 0 30 30">
  <defs>
    <clipPath id="clip-path">
      <rect id="Rectangle_180773" data-name="Rectangle 180773" width="30" height="30" transform="translate(-17270 -23423)" fill="#fff"/>
    </clipPath>
  </defs>
  <g id="Mask_Group_425" data-name="Mask Group 425" transform="translate(17270 23423)" clip-path="url(#clip-path)">
    <g id="Group_749049" data-name="Group 749049" transform="translate(-25.998 -323.972)">
      <g id="Artwork_77" data-name="Artwork 77" transform="translate(-17244.002 -23095)">
        <g id="Group_749048" data-name="Group 749048" transform="translate(0 0)">
          <g id="Group_749026" data-name="Group 749026">
            <path id="Path_8102689" data-name="Path 8102689" d="M25.281,21.945H1.774A1.776,1.776,0,0,1,0,20.171V1.774A1.776,1.776,0,0,1,1.774,0H25.281a1.776,1.776,0,0,1,1.774,1.774V7.006a.347.347,0,1,1-.694,0V1.774A1.081,1.081,0,0,0,25.281.694H1.774A1.081,1.081,0,0,0,.694,1.774v18.4a1.081,1.081,0,0,0,1.08,1.08H25.281a1.081,1.081,0,0,0,1.079-1.08V19.035a.347.347,0,1,1,.694,0v1.136A1.776,1.776,0,0,1,25.281,21.945Z" transform="translate(0 0)" fill="#fff"/>
          </g>
          <g id="Group_749027" data-name="Group 749027" transform="translate(0 3.75)">
            <path id="Path_8102690" data-name="Path 8102690" d="M26.707,23.312H.347a.347.347,0,1,1,0-.694h26.36a.347.347,0,0,1,0,.694Z" transform="translate(0 -22.618)" fill="#fff"/>
          </g>
          <g id="Group_749028" data-name="Group 749028" transform="translate(3.267 1.089)">
            <path id="Path_8102691" data-name="Path 8102691" d="M20.822,8.8a1.115,1.115,0,1,1,1.114-1.115A1.116,1.116,0,0,1,20.822,8.8Zm0-1.534a.42.42,0,1,0,.42.42A.42.42,0,0,0,20.822,7.266Z" transform="translate(-19.707 -6.571)" fill="#fff"/>
          </g>
          <g id="Group_749029" data-name="Group 749029" transform="translate(5.927 1.089)">
            <path id="Path_8102692" data-name="Path 8102692" d="M36.869,8.8a1.115,1.115,0,1,1,1.114-1.115A1.116,1.116,0,0,1,36.869,8.8Zm0-1.534a.42.42,0,1,0,.42.42A.42.42,0,0,0,36.869,7.266Z" transform="translate(-35.754 -6.571)" fill="#fff"/>
          </g>
          <g id="Group_749030" data-name="Group 749030" transform="translate(8.69 1.089)">
            <path id="Path_8102693" data-name="Path 8102693" d="M53.532,8.8a1.115,1.115,0,1,1,1.115-1.115A1.116,1.116,0,0,1,53.532,8.8Zm0-1.534a.42.42,0,1,0,.42.42A.42.42,0,0,0,53.532,7.266Z" transform="translate(-52.417 -6.571)" fill="#fff"/>
          </g>
          <g id="Group_749035" data-name="Group 749035" transform="translate(2.953 5.586)">
            <g id="Group_749031" data-name="Group 749031" transform="translate(0 5.569)">
              <path id="Path_8102694" data-name="Path 8102694" d="M18.158,70.844a.347.347,0,0,1-.34-.42,8.539,8.539,0,0,1,.649-1.914,4.928,4.928,0,0,1,.726-1.11.347.347,0,0,1,.519.462,4.257,4.257,0,0,0-.622.954,7.826,7.826,0,0,0-.592,1.753A.348.348,0,0,1,18.158,70.844Z" transform="translate(-17.811 -67.283)" fill="#fff"/>
            </g>
            <g id="Group_749032" data-name="Group 749032" transform="translate(4.539 5.278)">
              <path id="Path_8102695" data-name="Path 8102695" d="M47.147,69.228a.347.347,0,0,1-.336-.263,5.837,5.837,0,0,0-1.5-2.824.347.347,0,0,1,.448-.531A6.369,6.369,0,0,1,47.484,68.8a.348.348,0,0,1-.337.432Z" transform="translate(-45.19 -65.528)" fill="#fff"/>
            </g>
            <g id="Group_749033" data-name="Group 749033" transform="translate(1.241 2.591)">
              <path id="Path_8102696" data-name="Path 8102696" d="M27.444,52.589c-1.031,0-1.827-1.118-2.13-2.156a.347.347,0,0,1,.666-.194c.238.814.85,1.656,1.464,1.656.753,0,1.522-1.263,1.569-2.243a.352.352,0,0,1,.364-.33.347.347,0,0,1,.33.364C29.651,50.841,28.72,52.589,27.444,52.589Z" transform="translate(-25.299 -49.322)" fill="#fff"/>
            </g>
            <g id="Group_749034" data-name="Group 749034" transform="translate(0.712)">
              <path id="Path_8102697" data-name="Path 8102697" d="M22.594,37.69a.347.347,0,0,1-.329-.236,3.441,3.441,0,0,1-.157-1.026,2.733,2.733,0,0,1,5.459-.2.346.346,0,0,1-.036.181c-.295.586-1.4.745-1.728.779a.347.347,0,0,1-.371-.435s0-.019.012-.056a6.489,6.489,0,0,1-2.833.99Zm2.247-3.3A2.042,2.042,0,0,0,22.8,36.428a2.865,2.865,0,0,0,.053.539,5.647,5.647,0,0,0,2.448-1.03.853.853,0,0,0,.236-.284.347.347,0,0,1,.666.131c0,.164,0,.326-.011.48,0,.057-.008.111-.012.161a1.876,1.876,0,0,0,.68-.267A2.046,2.046,0,0,0,24.842,34.387Z" transform="translate(-22.108 -33.693)" fill="#fff"/>
            </g>
          </g>
          <g id="Group_749036" data-name="Group 749036" transform="translate(1.91 6.047)">
            <path id="Path_8102698" data-name="Path 8102698" d="M20.642,45.146H11.867a.347.347,0,0,1,0-.694H20.3V36.826a.347.347,0,1,1,.694,0V44.8A.347.347,0,0,1,20.642,45.146Z" transform="translate(-11.52 -36.479)" fill="#fff"/>
          </g>
          <g id="Group_749037" data-name="Group 749037" transform="translate(1.91 15.878)">
            <path id="Path_8102699" data-name="Path 8102699" d="M16.626,96.475H11.867a.347.347,0,0,1,0-.695h4.759a.347.347,0,0,1,0,.695Z" transform="translate(-11.52 -95.78)" fill="#fff"/>
          </g>
          <g id="Group_749038" data-name="Group 749038" transform="translate(1.91 17.588)">
            <path id="Path_8102700" data-name="Path 8102700" d="M16.626,106.787H11.867a.347.347,0,1,1,0-.694h4.759a.347.347,0,1,1,0,.694Z" transform="translate(-11.52 -106.093)" fill="#fff"/>
          </g>
          <g id="Group_749039" data-name="Group 749039" transform="translate(1.868 19.297)">
            <path id="Path_8102701" data-name="Path 8102701" d="M16.373,117.1H11.614a.347.347,0,0,1,0-.694h4.759a.347.347,0,0,1,0,.694Z" transform="translate(-11.267 -116.405)" fill="#fff"/>
          </g>
          <g id="Group_749044" data-name="Group 749044" transform="translate(17.975 6.425)">
            <g id="Group_749042" data-name="Group 749042" transform="translate(2.413 2.34)">
              <g id="Group_749040" data-name="Group 749040">
                <path id="Path_8102702" data-name="Path 8102702" d="M127.72,59.2a8.928,8.928,0,0,1-1.167-.092l-.068-.009a1,1,0,0,1-.448-.212c-.231-.162-.342-.228-.561-.111a.346.346,0,0,1-.164.041h-1.539a.348.348,0,0,1-.292-.16,3.332,3.332,0,0,1-.5-1.565,2.967,2.967,0,0,1,.509-1.515.347.347,0,0,1,.284-.147h1.147a.191.191,0,1,0,.361-.111,1.806,1.806,0,0,0,.34-.6A9.308,9.308,0,0,0,125.9,53.2a.347.347,0,0,1,.278-.306,1.207,1.207,0,0,1,1.282.6,2.078,2.078,0,0,1,.038,1.382c.774-.145,2-.252,2.49.376.4.514.08,1.369-.286,2.2-.067.153-.123.285-.172.4a4.131,4.131,0,0,1-.469.906C128.854,59.059,128.425,59.2,127.72,59.2Zm-2.049-1.177a1.325,1.325,0,0,1,.763.3,1.031,1.031,0,0,0,.149.095l.062.007c1.634.219,1.849-.052,1.857-.063a3.461,3.461,0,0,0,.393-.769c.05-.121.107-.256.176-.413.369-.839.5-1.341.375-1.494-.287-.365-1.582-.214-2.367,0a.348.348,0,0,1-.415-.464,2.31,2.31,0,0,0,.187-1.4.457.457,0,0,0-.295-.235,8.449,8.449,0,0,1-.277,1.35,2.506,2.506,0,0,1-.471.835.347.347,0,0,1-.489.04.357.357,0,0,1-.054-.058c0,.009,0,.018,0,.026a.347.347,0,0,1-.347.347h-.953a2.114,2.114,0,0,0-.292.968,2.417,2.417,0,0,0,.3,1.03h1.257A1.061,1.061,0,0,1,125.671,58.025Z" transform="translate(-122.98 -52.873)" fill="#fff"/>
              </g>
              <g id="Group_749041" data-name="Group 749041" transform="translate(1.81 3.977)">
                <path id="Path_8102703" data-name="Path 8102703" d="M134.251,78.83a.347.347,0,0,1-.347-.345L133.9,77.21a.347.347,0,0,1,.345-.349h0a.347.347,0,0,1,.347.345l.007,1.274a.347.347,0,0,1-.345.349Z" transform="translate(-133.897 -76.861)" fill="#fff"/>
              </g>
            </g>
            <g id="Group_749043" data-name="Group 749043">
              <path id="Path_8102704" data-name="Path 8102704" d="M114.44,50.783a6.013,6.013,0,1,1,6.012-6.013A6.019,6.019,0,0,1,114.44,50.783Zm0-11.331a5.318,5.318,0,1,0,5.318,5.319A5.325,5.325,0,0,0,114.44,39.452Z" transform="translate(-108.427 -38.758)" fill="#fff"/>
            </g>
          </g>
          <g id="Group_749047" data-name="Group 749047" transform="translate(11.935 6.047)">
            <g id="Group_749045" data-name="Group 749045" transform="translate(1.654)">
              <path id="Path_8102705" data-name="Path 8102705" d="M82.322,40.586a.347.347,0,0,1-.347-.347V36.826a.347.347,0,1,1,.694,0v3.412A.347.347,0,0,1,82.322,40.586Z" transform="translate(-81.975 -36.479)" fill="#fff"/>
            </g>
            <g id="Group_749046" data-name="Group 749046" transform="translate(0 1.706)">
              <path id="Path_8102706" data-name="Path 8102706" d="M75.651,47.465H72.342a.347.347,0,0,1,0-.695h3.309a.347.347,0,0,1,0,.695Z" transform="translate(-71.995 -46.77)" fill="#fff"/>
            </g>
          </g>
        </g>
      </g>
    </g>
  </g>
</svg>
