<svg xmlns="http://www.w3.org/2000/svg" xmlns:xlink="http://www.w3.org/1999/xlink" width="30" height="30" viewBox="0 0 30 30">
  <defs>
    <clipPath id="clip-path">
      <rect id="Rectangle_184348" data-name="Rectangle 184348" width="30" height="30" transform="translate(-19487 -21974)" fill="#fff" opacity="0.3"/>
    </clipPath>
  </defs>
  <g id="Mask_Group_447" data-name="Mask Group 447" transform="translate(19487 21974)" clip-path="url(#clip-path)">
    <g id="Artwork_20" data-name="Artwork 20" transform="translate(-19459.707 -21947.289)">
      <g id="Group_760109" data-name="Group 760109" transform="translate(-27.292 -26.003)">
        <g id="Group_760100" data-name="Group 760100">
          <path id="Path_8213275" data-name="Path 8213275" d="M5.5,28.582a.318.318,0,0,1-.118-.023.308.308,0,0,1-.19-.285V23.307A12.666,12.666,0,0,1,0,13.27C0,5.953,6.729,0,15,0S30,5.953,30,13.27,23.27,26.542,15,26.542a16.517,16.517,0,0,1-6.162-1.171L5.716,28.492A.309.309,0,0,1,5.5,28.582ZM15,.617C7.069.617.617,6.293.617,13.27a12.079,12.079,0,0,0,5.066,9.636.309.309,0,0,1,.124.247v4.376L8.546,24.79a.308.308,0,0,1,.336-.067A15.9,15.9,0,0,0,15,25.924c7.931,0,14.382-5.676,14.382-12.654S22.93.617,15,.617Z" fill="#262626"/>
        </g>
        <g id="Group_760108" data-name="Group 760108" transform="translate(7.943 5.403)">
          <g id="Group_760103" data-name="Group 760103" transform="translate(2.696)">
            <g id="Group_760101" data-name="Group 760101" transform="translate(0 0)">
              <path id="Path_8213276" data-name="Path 8213276" d="M23.659,12.645a.309.309,0,0,1-.3-.259,3.337,3.337,0,0,0-.392-1.167,1.613,1.613,0,0,0-2.971,1.073.309.309,0,0,1-.611.089A2.23,2.23,0,0,1,23.488,10.9a3.964,3.964,0,0,1,.476,1.391.309.309,0,0,1-.256.354A.3.3,0,0,1,23.659,12.645Z" transform="translate(-19.357 -9.83)" fill="#262626"/>
            </g>
            <g id="Group_760102" data-name="Group 760102" transform="translate(4.109)">
              <path id="Path_8213277" data-name="Path 8213277" d="M27.143,12.645a.3.3,0,0,1-.049,0,.309.309,0,0,1-.256-.354,3.96,3.96,0,0,1,.476-1.392,2.231,2.231,0,0,1,4.109,1.485.309.309,0,0,1-.611-.087,1.614,1.614,0,0,0-2.973-1.074,3.344,3.344,0,0,0-.393,1.167A.308.308,0,0,1,27.143,12.645Z" transform="translate(-26.834 -9.83)" fill="#262626"/>
            </g>
          </g>
          <g id="Group_760104" data-name="Group 760104" transform="translate(0 4.181)">
            <path id="Path_8213278" data-name="Path 8213278" d="M27.408,20.213h-11.8a1.159,1.159,0,0,1-1.157-1.157V18.6a1.159,1.159,0,0,1,1.157-1.157h11.8A1.159,1.159,0,0,1,28.566,18.6v.46A1.159,1.159,0,0,1,27.408,20.213Zm-11.8-2.158a.541.541,0,0,0-.54.54v.46a.541.541,0,0,0,.54.54h11.8a.541.541,0,0,0,.54-.54V18.6a.541.541,0,0,0-.54-.54Z" transform="translate(-14.452 -17.438)" fill="#262626"/>
          </g>
          <g id="Group_760107" data-name="Group 760107" transform="translate(1.363 8.322)">
            <g id="Group_760105" data-name="Group 760105" transform="translate(0 0)">
              <path id="Path_8213279" data-name="Path 8213279" d="M27.1,32.385H18.155a1.224,1.224,0,0,1-1.223-1.223V25.28a.309.309,0,0,1,.617,0v5.882a.607.607,0,0,0,.606.606H27.1a.607.607,0,0,0,.606-.606V25.28a.308.308,0,0,1,.617,0v5.882A1.224,1.224,0,0,1,27.1,32.385Z" transform="translate(-16.932 -24.972)" fill="#262626"/>
            </g>
            <g id="Group_760106" data-name="Group 760106" transform="translate(5.385 0)">
              <path id="Path_8213280" data-name="Path 8213280" d="M27.039,32.385a.308.308,0,0,1-.308-.308v-6.8a.308.308,0,0,1,.617,0v6.8A.308.308,0,0,1,27.039,32.385Z" transform="translate(-26.731 -24.972)" fill="#262626"/>
            </g>
          </g>
        </g>
      </g>
    </g>
  </g>
</svg>
