<svg xmlns="http://www.w3.org/2000/svg" xmlns:xlink="http://www.w3.org/1999/xlink" width="30" height="30" viewBox="0 0 30 30">
  <defs>
    <clipPath id="clip-path">
      <rect id="Rectangle_182554" data-name="Rectangle 182554" width="30" height="30" transform="translate(-17690 -21979)" fill="#fff"/>
    </clipPath>
  </defs>
  <g id="Mask_Group_431" data-name="Mask Group 431" transform="translate(17690 21979)" clip-path="url(#clip-path)">
    <g id="Artwork_264" data-name="Artwork 264" transform="translate(-17645.986 -21944.664)">
      <g id="Group_754464" data-name="Group 754464" transform="translate(-44.014 -29.333)">
        <g id="Group_754462" data-name="Group 754462">
          <path id="Path_8157853" data-name="Path 8157853" d="M8.066,20.119H2.989C1.09,20.119,0,18.958,0,16.934S1.09,13.75,2.989,13.75H8.066a.256.256,0,0,1,.256.256v5.857A.255.255,0,0,1,8.066,20.119ZM2.989,14.261c-2.048,0-2.478,1.454-2.478,2.673s.43,2.673,2.478,2.673H7.81V14.261Z" transform="translate(0 -9.064)"/>
          <path id="Path_8157854" data-name="Path 8157854" d="M12.175,36.525H11.3a.993.993,0,0,1-.992-.991V31.193a.256.256,0,0,1,.256-.256h2.343a.256.256,0,0,1,.256.256v4.341A.992.992,0,0,1,12.175,36.525Zm-1.352-5.077v4.085a.481.481,0,0,0,.481.48h.871a.48.48,0,0,0,.48-.48V31.448Z" transform="translate(-6.798 -20.394)"/>
          <path id="Path_8157855" data-name="Path 8157855" d="M55.132,15.741c-1.581,0-1.818-4.931-1.818-7.87S53.55,0,55.132,0s1.818,4.931,1.818,7.87S56.713,15.741,55.132,15.741Zm0-15.229c-.629,0-1.306,2.3-1.306,7.359s.678,7.359,1.306,7.359,1.307-2.3,1.307-7.359S55.761.511,55.132.511Z" transform="translate(-35.144)"/>
          <path id="Path_8157856" data-name="Path 8157856" d="M23,5.292h0a.256.256,0,0,1,0-.511h0c1.382,0,8.849-3.356,11.61-4.649a.256.256,0,0,1,.217.463C34.423.787,24.784,5.292,23,5.292Z" transform="translate(-14.995 -0.071)"/>
          <path id="Path_8157857" data-name="Path 8157857" d="M34.586,36a.254.254,0,0,1-.113-.027c-.094-.046-9.482-4.67-11.6-4.673a.256.256,0,0,1,0-.511h0c2.233,0,11.432,4.533,11.822,4.726a.255.255,0,0,1-.113.485Z" transform="translate(-14.912 -20.297)"/>
          <path id="Path_8157858" data-name="Path 8157858" d="M54.428,21.65h-.456a.256.256,0,0,1,0-.511h.456a1.111,1.111,0,0,0,0-2.222h-.521a.256.256,0,0,1,0-.511h.521a1.622,1.622,0,0,1,0,3.245Z" transform="translate(-35.367 -12.133)"/>
        </g>
        <g id="Group_754463" data-name="Group 754463" transform="translate(17.059 8.009)">
          <path id="Path_8157859" data-name="Path 8157859" d="M59.054,48.888H51.746a1.692,1.692,0,0,1-1.69-1.69v-3.11a.256.256,0,0,1,.511,0V47.2a1.18,1.18,0,0,0,1.178,1.179h7.308a.256.256,0,1,1,0,.511Z" transform="translate(-50.056 -36.903)"/>
          <path id="Path_8157860" data-name="Path 8157860" d="M71.176,35.485a1.692,1.692,0,0,1-1.69-1.69V24.011h-4.2a.256.256,0,0,1,0-.511h4.459a.256.256,0,0,1,.256.256V33.795a1.178,1.178,0,1,0,2.357,0v-5H71.176a.256.256,0,0,1,0-.511H72.61a.256.256,0,0,1,.256.256v5.259A1.692,1.692,0,0,1,71.176,35.485Z" transform="translate(-59.925 -23.5)"/>
          <path id="Path_8157861" data-name="Path 8157861" d="M81.65,39.338a.256.256,0,0,1-.256-.256V32.428h-.222a.256.256,0,1,1,0-.511h.478a.256.256,0,0,1,.256.256v6.91A.256.256,0,0,1,81.65,39.338Z" transform="translate(-70.399 -29.048)"/>
          <path id="Path_8157862" data-name="Path 8157862" d="M67.8,35.344H65.131a.256.256,0,1,1,0-.511H67.8a.256.256,0,1,1,0,.511Z" transform="translate(-59.825 -30.971)"/>
          <path id="Path_8157863" data-name="Path 8157863" d="M66.933,42.3h-3.01a.256.256,0,0,1,0-.511h3.01a.256.256,0,0,1,0,.511Z" transform="translate(-59.028 -35.558)"/>
          <path id="Path_8157864" data-name="Path 8157864" d="M61.659,49.261H55.923a.256.256,0,0,1,0-.511h5.737a.256.256,0,0,1,0,.511Z" transform="translate(-53.755 -40.145)"/>
        </g>
      </g>
    </g>
  </g>
</svg>
