<svg xmlns="http://www.w3.org/2000/svg" xmlns:xlink="http://www.w3.org/1999/xlink" width="30" height="30" viewBox="0 0 30 30">
  <defs>
    <clipPath id="clip-path">
      <rect id="Rectangle_173823" data-name="Rectangle 173823" width="30" height="30" transform="translate(-22377 -9145)"/>
    </clipPath>
  </defs>
  <g id="Mask_Group_374" data-name="Mask Group 374" transform="translate(22377 9145)" clip-path="url(#clip-path)">
    <g id="Artwork_485" data-name="Artwork 485" transform="translate(-22362.643 -9130.924)">
      <g id="Group_119720" data-name="Group 119720" transform="translate(-13.829 -14.076)">
        <g id="Group_119708" data-name="Group 119708">
          <g id="Group_119705" data-name="Group 119705" transform="translate(0 7.124)">
            <path id="Path_303818" data-name="Path 303818" d="M4.629,46.648a.463.463,0,0,1-.251-.074L.213,43.9a.463.463,0,0,1-.207-.461A11.468,11.468,0,0,1,.949,40.49a6.7,6.7,0,0,1,.979-1.5.463.463,0,1,1,.692.616,5.8,5.8,0,0,0-.84,1.29,10.686,10.686,0,0,0-.8,2.388l3.657,2.35,3.794-2.352a8.068,8.068,0,0,0-2.073-4.022.463.463,0,0,1,.6-.708C8.81,40.123,9.381,43.294,9.4,43.428a.464.464,0,0,1-.212.473L4.873,46.579A.461.461,0,0,1,4.629,46.648Z" transform="translate(0 -38.445)"/>
          </g>
          <g id="Group_119706" data-name="Group 119706" transform="translate(1.74 3.496)">
            <path id="Path_303819" data-name="Path 303819" d="M12.28,23.27c-1.389,0-2.462-1.507-2.871-2.906a.463.463,0,1,1,.889-.26c.322,1.1,1.151,2.239,1.982,2.239,1.019,0,2.06-1.708,2.123-3.032a.463.463,0,1,1,.925.044C15.253,20.914,14,23.27,12.28,23.27Z" transform="translate(-9.39 -18.87)"/>
          </g>
          <g id="Group_119707" data-name="Group 119707" transform="translate(1.026)">
            <path id="Path_303820" data-name="Path 303820" d="M6.189,5.384a.464.464,0,0,1-.439-.315,4.625,4.625,0,0,1-.212-1.383A3.684,3.684,0,0,1,12.9,3.421a.463.463,0,0,1-.048.241c-.4.789-1.882,1-2.328,1.049a.463.463,0,0,1-.5-.581s.008-.03.019-.089A8.735,8.735,0,0,1,6.211,5.384ZM9.222.926a2.762,2.762,0,0,0-2.758,2.76,3.9,3.9,0,0,0,.073.733A7.622,7.622,0,0,0,9.848,3.027a1.152,1.152,0,0,0,.32-.385.463.463,0,0,1,.89.175c0,.222,0,.439-.015.646,0,.08-.011.155-.017.224a2.531,2.531,0,0,0,.929-.365A2.767,2.767,0,0,0,9.222.926Z" transform="translate(-5.538)"/>
          </g>
        </g>
        <g id="Group_119712" data-name="Group 119712" transform="translate(20.061)">
          <g id="Group_119709" data-name="Group 119709" transform="translate(0 7.123)">
            <path id="Path_303821" data-name="Path 303821" d="M112.895,46.648a.463.463,0,0,1-.251-.074L108.478,43.9a.464.464,0,0,1-.208-.461,11.468,11.468,0,0,1,.944-2.946,6.711,6.711,0,0,1,.979-1.5.463.463,0,1,1,.692.616,5.789,5.789,0,0,0-.84,1.29,10.676,10.676,0,0,0-.8,2.388l3.657,2.35,3.794-2.352a8.065,8.065,0,0,0-2.073-4.022.463.463,0,1,1,.6-.708c1.858,1.569,2.429,4.739,2.452,4.873a.464.464,0,0,1-.212.473l-4.319,2.678A.461.461,0,0,1,112.895,46.648Z" transform="translate(-108.265 -38.444)"/>
          </g>
          <g id="Group_119710" data-name="Group 119710" transform="translate(1.74 3.496)">
            <path id="Path_303822" data-name="Path 303822" d="M120.545,23.27c-1.389,0-2.462-1.507-2.871-2.906a.463.463,0,1,1,.889-.26c.322,1.1,1.151,2.239,1.982,2.239,1.019,0,2.06-1.708,2.123-3.032a.463.463,0,1,1,.925.044C123.519,20.914,122.265,23.27,120.545,23.27Z" transform="translate(-117.655 -18.87)"/>
          </g>
          <g id="Group_119711" data-name="Group 119711" transform="translate(1.026)">
            <path id="Path_303823" data-name="Path 303823" d="M114.453,5.384a.464.464,0,0,1-.439-.315,4.62,4.62,0,0,1-.212-1.383,3.684,3.684,0,0,1,7.358-.266.461.461,0,0,1-.048.241c-.4.789-1.883,1-2.328,1.049a.463.463,0,0,1-.5-.581s.008-.03.019-.087a8.747,8.747,0,0,1-3.832,1.342ZM117.487.926a2.762,2.762,0,0,0-2.758,2.76,3.885,3.885,0,0,0,.072.733,7.624,7.624,0,0,0,3.311-1.393,1.154,1.154,0,0,0,.321-.385.463.463,0,0,1,.89.175c0,.222,0,.439-.015.646,0,.08-.011.155-.017.224a2.526,2.526,0,0,0,.929-.365A2.767,2.767,0,0,0,117.487.926Z" transform="translate(-113.803)"/>
          </g>
        </g>
        <g id="Group_119716" data-name="Group 119716" transform="translate(9.829 14.674)">
          <g id="Group_119713" data-name="Group 119713" transform="translate(0 7.123)">
            <path id="Path_303824" data-name="Path 303824" d="M57.679,125.84a.464.464,0,0,1-.251-.073l-4.166-2.678a.464.464,0,0,1-.207-.461A11.437,11.437,0,0,1,54,119.682a6.675,6.675,0,0,1,.98-1.5.463.463,0,1,1,.692.616,5.76,5.76,0,0,0-.841,1.289,10.613,10.613,0,0,0-.8,2.388l3.657,2.35,3.794-2.352a8.063,8.063,0,0,0-2.073-4.022.463.463,0,1,1,.6-.708c1.858,1.568,2.428,4.739,2.452,4.873a.464.464,0,0,1-.212.473l-4.319,2.678A.461.461,0,0,1,57.679,125.84Z" transform="translate(-53.049 -117.637)"/>
          </g>
          <g id="Group_119714" data-name="Group 119714" transform="translate(1.74 3.496)">
            <path id="Path_303825" data-name="Path 303825" d="M65.329,102.46c-1.389,0-2.462-1.506-2.871-2.906a.463.463,0,1,1,.889-.26c.322,1.1,1.151,2.239,1.982,2.239,1.018,0,2.059-1.708,2.123-3.032a.463.463,0,1,1,.925.045C68.3,100.1,67.048,102.46,65.329,102.46Z" transform="translate(-62.439 -98.06)"/>
          </g>
          <g id="Group_119715" data-name="Group 119715" transform="translate(1.026)">
            <path id="Path_303826" data-name="Path 303826" d="M59.238,84.577a.464.464,0,0,1-.439-.315,4.63,4.63,0,0,1-.212-1.383,3.684,3.684,0,0,1,7.358-.265.465.465,0,0,1-.048.241c-.4.789-1.882,1-2.329,1.049a.468.468,0,0,1-.4-.16.463.463,0,0,1-.1-.421s.008-.03.019-.088a8.742,8.742,0,0,1-3.832,1.342Zm3.034-4.458a2.762,2.762,0,0,0-2.758,2.759,3.889,3.889,0,0,0,.073.734A7.63,7.63,0,0,0,62.9,82.219a1.155,1.155,0,0,0,.319-.385.463.463,0,0,1,.89.174c0,.217,0,.435-.015.648,0,.08-.011.155-.017.224a2.533,2.533,0,0,0,.929-.365A2.767,2.767,0,0,0,62.273,80.119Z" transform="translate(-58.588 -79.193)"/>
          </g>
        </g>
        <g id="Group_119717" data-name="Group 119717" transform="translate(8.86 2.776)">
          <path id="Path_303827" data-name="Path 303827" d="M48.28,17.334a.463.463,0,0,1-.237-.862,10.707,10.707,0,0,1,10.71-.109.463.463,0,1,1-.456.806,9.78,9.78,0,0,0-9.781.1A.462.462,0,0,1,48.28,17.334Z" transform="translate(-47.816 -14.982)"/>
        </g>
        <g id="Group_119718" data-name="Group 119718" transform="translate(18.913 15.831)">
          <path id="Path_303828" data-name="Path 303828" d="M102.538,92.558a.463.463,0,0,1-.22-.871,9.828,9.828,0,0,0,4.768-5.91.463.463,0,1,1,.891.255,10.759,10.759,0,0,1-5.22,6.471A.46.46,0,0,1,102.538,92.558Z" transform="translate(-102.074 -85.441)"/>
        </g>
        <g id="Group_119719" data-name="Group 119719" transform="translate(4.296 16.033)">
          <path id="Path_303829" data-name="Path 303829" d="M28.426,93.358A.463.463,0,0,1,28.2,93.3a10.662,10.662,0,0,1-4.992-6.169.463.463,0,0,1,.885-.274,9.738,9.738,0,0,0,4.56,5.635.463.463,0,0,1-.227.867Z" transform="translate(-23.187 -86.53)"/>
        </g>
      </g>
    </g>
  </g>
</svg>
