<svg xmlns="http://www.w3.org/2000/svg" xmlns:xlink="http://www.w3.org/1999/xlink" width="30" height="30" viewBox="0 0 30 30">
  <defs>
    <clipPath id="clip-path">
      <rect id="Rectangle_177905" data-name="Rectangle 177905" width="30" height="30" transform="translate(674 9610)" fill="#fff"/>
    </clipPath>
  </defs>
  <g id="Mask_Group_401" data-name="Mask Group 401" transform="translate(-674 -9610)" clip-path="url(#clip-path)">
    <g id="Layer_2" data-name="Layer 2" transform="translate(683.148 9610)">
      <g id="Ñëîé_1" data-name="Ñëîé 1" transform="translate(0 0)">
        <path id="Path_5845" data-name="Path 5845" d="M5.2,14.811a.349.349,0,0,1-.349-.3v-1.35a4.338,4.338,0,0,1,1.21-1.606.326.326,0,0,1,.489,0,.349.349,0,0,1,0,.489,6.772,6.772,0,0,0-1,1.14,3.072,3.072,0,0,1,0,.372c0,.186,0,.465,0,.861a.372.372,0,0,1-.326.4Z" transform="translate(6.437 15.187)" fill="#76706b"/>
        <path id="Path_5846" data-name="Path 5846" d="M4.833,14.817h0a.349.349,0,0,1-.3-.4c0-.4,0-.675,0-.861v-.372a5.236,5.236,0,0,0-1.047-1.164.338.338,0,1,1,.465-.489c.489.442,1.257,1.233,1.257,1.652a2.025,2.025,0,0,1,0,.465v.884A.349.349,0,0,1,4.833,14.817Z" transform="translate(4.476 15.181)" fill="#76706b"/>
        <path id="Path_5847" data-name="Path 5847" d="M3.419,10.128a1.722,1.722,0,0,0,.442.977,4.1,4.1,0,0,0,2.583.931s-1,.326-1.117,1.094a2.63,2.63,0,0,1-.675,1.4A6.982,6.982,0,0,0,3.326,13.27a1.28,1.28,0,0,1-.465-1.583l.559-1.559m0-.7a.721.721,0,0,0-.652.465l-.535,1.513a1.978,1.978,0,0,0,.652,2.327,6.819,6.819,0,0,1,1.187,1.117.7.7,0,0,0,.489.3h0A.628.628,0,0,0,5,14.969a2.932,2.932,0,0,0,.908-1.792c0-.3.559-.512.652-.559a.649.649,0,0,0-.023-1.257,3.281,3.281,0,0,1-2.164-.605A1,1,0,0,1,4.21,10.1a.7.7,0,0,0-.605-.652Z" transform="translate(2.771 12.516)" fill="#76706b"/>
        <path id="Path_5848" data-name="Path 5848" d="M8.406,10.128l.559,1.559A1.28,1.28,0,0,1,8.5,13.27a6.982,6.982,0,0,0-1.327,1.257,2.537,2.537,0,0,1-.652-1.4c-.14-.768-1.14-1.094-1.14-1.094a4.073,4.073,0,0,0,2.583-.931,1.722,1.722,0,0,0,.442-.977m0-.7h0a.675.675,0,0,0-.559.652,1.117,1.117,0,0,1-.279.535,3.188,3.188,0,0,1-2.071.745.675.675,0,0,0-.209,1.327.873.873,0,0,1,.652.559,3.072,3.072,0,0,0,.908,1.792.628.628,0,0,0,.442.186h0a.7.7,0,0,0,.489-.3,6.819,6.819,0,0,1,1.187-1.117,1.978,1.978,0,0,0,.652-2.327L9.08,9.965A.721.721,0,0,0,8.429,9.5Z" transform="translate(6.349 12.516)" fill="#76706b"/>
        <path id="Path_5849" data-name="Path 5849" d="M.541,12.649a.349.349,0,0,1-.326-.233.326.326,0,0,1,.209-.442l1.815-.7L4.4,10.484a.349.349,0,0,1,.233.652l-2.048.791-1.839.7Z" transform="translate(0.25 13.905)" fill="#76706b"/>
        <path id="Path_5850" data-name="Path 5850" d="M11,12.644h-.116l-1.815-.7-1.932-.815a.326.326,0,0,1-.209-.442.349.349,0,0,1,.209-.209l2.071.791,1.815.7a.326.326,0,0,1,.209.442.349.349,0,0,1-.233.233Z" transform="translate(9.156 13.91)" fill="#76706b"/>
        <path id="Path_5851" data-name="Path 5851" d="M5.719,11.065H4.439a.338.338,0,1,1,0-.675h1.28a.349.349,0,0,1,.326.349A.326.326,0,0,1,5.719,11.065Z" transform="translate(5.429 13.79)" fill="#76706b"/>
        <path id="Path_5852" data-name="Path 5852" d="M8.429,17.34A4.259,4.259,0,0,1,4.147,14.1c-.628-1.513-1.187-2.327-1.652-2.327C1.633,11.545,1.54,8.4,1.54,8.357c0-1.094.419-1.885,1.024-1.885a.791.791,0,0,1,.605.326c0-1.164.326-2.327,2.118-2.327a4.259,4.259,0,0,1,1.978.512A5.725,5.725,0,0,0,9.918,5.7a4.655,4.655,0,0,0,3.142-.931.349.349,0,0,1,.372,0,.372.372,0,0,1,.233.326V6.844a.745.745,0,0,1,.582-.489c.605,0,1.024.791,1.024,1.885,0,0,0,3.188-.954,3.421-.465.116-1.024.931-1.652,2.327A4.259,4.259,0,0,1,8.429,17.34ZM2.611,11.01c.721.209,1.35,1.047,2.071,2.839a3.631,3.631,0,0,0,3.747,2.7,3.631,3.631,0,0,0,3.654-2.7c.721-1.769,1.373-2.63,2.071-2.839a7.447,7.447,0,0,0,.489-2.769,1.629,1.629,0,0,0-.4-1.187v.186c-.349.675-.489.954-.791.954s-.349,0-.4-.489a3.3,3.3,0,0,1,0-.535V5.7a6,6,0,0,1-3.049.7,6.33,6.33,0,0,1-3.1-.7,3.607,3.607,0,0,0-1.629-.489c-1.233,0-1.443.512-1.443,1.722s0,1.3-.419,1.3h0c-.279-.093-.349-.209-.815-1,0,0-.116-.186-.14-.186A1.629,1.629,0,0,0,2.122,8.24a7.959,7.959,0,0,0,.489,2.769Z" transform="translate(2.044 5.933)" fill="#76706b"/>
        <path id="Path_5853" data-name="Path 5853" d="M13.241,11.755c-.419,0-.419-.442-.419-1.024V9.265a6,6,0,0,1-3.049.7,6.33,6.33,0,0,1-3-.7,3.607,3.607,0,0,0-1.629-.489C3.909,8.776,3.7,9.288,3.7,10.5v.745c0,.14,0,.559-.419.559s-.349-.209-.815-1v-.186a.349.349,0,0,1-.3,0,.3.3,0,0,1-.233-.209,9.8,9.8,0,0,1-.279-2.537A6.4,6.4,0,0,1,8.284,1.818a3.4,3.4,0,0,1,3,1.117,2.676,2.676,0,0,1,.605,0c2.095,0,3.1,3,3.1,5.027a8.8,8.8,0,0,1-.3,2.467.419.419,0,0,1-.209.233.512.512,0,0,1-.326,0v.186C13.683,11.592,13.544,11.755,13.241,11.755Zm0-3.537h.116a.372.372,0,0,1,.233.326v1.745a.721.721,0,0,1,.512-.372,8.564,8.564,0,0,0,.186-2.025c0-1.769-.861-4.329-2.327-4.329a1.513,1.513,0,0,0-.628.116.349.349,0,0,1-.442-.186c-.3-.652-1.164-1-2.537-1a5.725,5.725,0,0,0-6.074,5.4,9.844,9.844,0,0,0,.186,2.025.745.745,0,0,1,.559.326c0-1.187.326-2.327,2.118-2.327a4.259,4.259,0,0,1,1.978.628,5.725,5.725,0,0,0,2.653.721,4.655,4.655,0,0,0,3.142-.931.372.372,0,0,1,.256-.116Z" transform="translate(2.189 2.372)" fill="#76706b"/>
        <path id="Path_5854" data-name="Path 5854" d="M6.391,8.151h0a2.863,2.863,0,0,1-1.4-.605.326.326,0,0,1,0-.326.349.349,0,0,1,.07-.163,3.3,3.3,0,0,0,1.559-.815.3.3,0,0,1,.465,0,.349.349,0,0,1,0,.489,3.747,3.747,0,0,1-1.047.7h.349a.3.3,0,0,1,.256.4A.326.326,0,0,1,6.391,8.151Z" transform="translate(6.572 8.14)" fill="#76706b"/>
        <path id="Path_5855" data-name="Path 5855" d="M3.868,8.1a.349.349,0,0,1,0-.675h.326a3.3,3.3,0,0,1-1.024-.7.349.349,0,0,1,.489-.489,3.1,3.1,0,0,0,1.536.768.3.3,0,0,1,.233.209.326.326,0,0,1,0,.326,2.863,2.863,0,0,1-1.4.605Z" transform="translate(4.115 8.189)" fill="#76706b"/>
        <path id="Path_5856" data-name="Path 5856" d="M2.327,5.048H.349a.349.349,0,1,1,0-.7H2.327a.349.349,0,1,1,0,.7Z" transform="translate(0 5.774)" fill="#099143"/>
        <path id="Path_5857" data-name="Path 5857" d="M2.577,3.74H2.391L.762,2.786a.349.349,0,0,1-.14-.465.349.349,0,0,1,.465,0l1.652.931a.372.372,0,0,1,.116.489.326.326,0,0,1-.279,0Z" transform="translate(0.774 2.962)" fill="#099143"/>
        <path id="Path_5858" data-name="Path 5858" d="M3.484,2.9a.349.349,0,0,1-.3-.163L2.251,1.088a.349.349,0,0,1,0-.465.349.349,0,0,1,.465.14L3.67,2.391a.349.349,0,0,1,0,.465.279.279,0,0,1-.186.047Z" transform="translate(2.869 0.774)" fill="#099143"/>
        <path id="Path_5859" data-name="Path 5859" d="M4.7,2.583a.349.349,0,0,1-.349-.256V.349a.349.349,0,1,1,.7,0V2.327a.349.349,0,0,1-.349.256Z" transform="translate(5.774 0)" fill="#099143"/>
        <path id="Path_5860" data-name="Path 5860" d="M6.465,2.948a.186.186,0,0,1-.163,0,.349.349,0,0,1-.14-.465L7.117.853a.349.349,0,1,1,.605.279L6.767,2.785a.349.349,0,0,1-.3.163Z" transform="translate(8.127 0.729)" fill="#099143"/>
        <path id="Path_5861" data-name="Path 5861" d="M7.795,3.84a.372.372,0,0,1-.3-.163.372.372,0,0,1,0-.489l1.652-.931a.349.349,0,1,1,.349.582l-1.652.954Z" transform="translate(9.823 2.863)" fill="#099143"/>
        <path id="Path_5862" data-name="Path 5862" d="M10.177,5.048H8.2a.349.349,0,1,1,0-.7h1.885a.349.349,0,0,1,0,.7Z" transform="translate(10.419 5.774)" fill="#099143"/>
      </g>
    </g>
  </g>
</svg>
