<svg xmlns="http://www.w3.org/2000/svg" xmlns:xlink="http://www.w3.org/1999/xlink" width="30" height="30" viewBox="0 0 30 30">
  <defs>
    <clipPath id="clip-path">
      <rect id="Rectangle_177908" data-name="Rectangle 177908" width="30" height="30" transform="translate(676 9714)" fill="#fff"/>
    </clipPath>
  </defs>
  <g id="Mask_Group_404" data-name="Mask Group 404" transform="translate(-676 -9714)" clip-path="url(#clip-path)">
    <g id="Artwork_107" data-name="Artwork 107" transform="translate(693.943 9731.597)">
      <g id="Group_306247" data-name="Group 306247" transform="translate(-16.843 -17.319)">
        <path id="Path_2788177" data-name="Path 2788177" d="M135.921,134.409v-6.447a2.084,2.084,0,0,0-1.64-2.036L127,124.338" transform="translate(-107.285 -104.964)" fill="none" stroke="#76706b" stroke-linecap="round" stroke-linejoin="round" stroke-width="0.54"/>
        <path id="Path_2788178" data-name="Path 2788178" d="M55.091,11.7a16.447,16.447,0,0,1-.54-4.032,5.9,5.9,0,1,1,11.783,0s.1,6.079-3.327,8.717a4.179,4.179,0,0,1-5.129,0,6.132,6.132,0,0,1-.908-.865" transform="translate(-46.092 -1.5)" fill="none" stroke="#76706b" stroke-linecap="round" stroke-linejoin="round" stroke-width="0.54"/>
        <path id="Path_2788179" data-name="Path 2788179" d="M65.62,101.641a8.1,8.1,0,0,1-1.4,3.284" transform="translate(-54.597 -86.208)" fill="none" stroke="#76706b" stroke-linecap="round" stroke-linejoin="round" stroke-width="0.54"/>
        <path id="Path_2788180" data-name="Path 2788180" d="M118.73,104.395s-1.44-2.06-1.4-3.374" transform="translate(-99.556 -85.68)" fill="none" stroke="#76706b" stroke-linecap="round" stroke-linejoin="round" stroke-width="0.54"/>
        <g id="Group_306245" data-name="Group 306245" transform="translate(2.644 10.683)">
          <line id="Line_3840" data-name="Line 3840" x1="4.199" y1="0.363" transform="translate(4.6 1.344)" fill="none" stroke="#099143" stroke-linecap="round" stroke-linejoin="round" stroke-width="0.54"/>
          <line id="Line_3841" data-name="Line 3841" x1="1.079" y2="0.154" transform="translate(4.6 3.315)" fill="none" stroke="#099143" stroke-linecap="round" stroke-linejoin="round" stroke-width="0.54"/>
          <path id="Path_2788181" data-name="Path 2788181" d="M33.4,82.356a1.343,1.343,0,0,0,.656.8" transform="translate(-31.434 -80.624)" fill="none" stroke="#099143" stroke-linecap="round" stroke-linejoin="round" stroke-width="0.54"/>
          <path id="Path_2788182" data-name="Path 2788182" d="M35.619,70.793a1.342,1.342,0,0,1,2.309.932" transform="translate(-33.327 -70.382)" fill="none" stroke="#099143" stroke-linecap="round" stroke-linejoin="round" stroke-width="0.54"/>
          <path id="Path_2788183" data-name="Path 2788183" d="M20.794,80.722a1.062,1.062,0,0,1,.047-2.124" transform="translate(-19.778 -77.409)" fill="none" stroke="#099143" stroke-linecap="round" stroke-linejoin="round" stroke-width="0.54"/>
          <path id="Path_2788184" data-name="Path 2788184" d="M31.348,94.091a1.691,1.691,0,0,0,2.693-1.963" transform="translate(-29.674 -88.982)" fill="none" stroke="#099143" stroke-linecap="round" stroke-linejoin="round" stroke-width="0.54"/>
          <line id="Line_3842" data-name="Line 3842" x1="1.646" transform="translate(6.362 2.549)" fill="none" stroke="#099143" stroke-linecap="round" stroke-linejoin="round" stroke-width="0.54"/>
          <path id="Path_2788185" data-name="Path 2788185" d="M24.2,95.083a.89.89,0,0,1-.255.036.967.967,0,0,1-.414-1.842" transform="translate(-22.513 -89.965)" fill="none" stroke="#099143" stroke-linecap="round" stroke-linejoin="round" stroke-width="0.54"/>
          <path id="Path_2788186" data-name="Path 2788186" d="M28.356,72.224a.753.753,0,1,0-.476,1.336.8.8,0,0,0,.155-.016" transform="translate(-26.065 -71.813)" fill="none" stroke="#099143" stroke-linecap="round" stroke-linejoin="round" stroke-width="0.54"/>
        </g>
        <ellipse id="Ellipse_20192" data-name="Ellipse 20192" cx="1.137" cy="0.775" rx="1.137" ry="0.775" transform="translate(13.045 11.892)" fill="none" stroke="#099143" stroke-linecap="round" stroke-linejoin="round" stroke-width="0.54"/>
        <g id="Group_306246" data-name="Group 306246" transform="translate(10.529 6.482)">
          <path id="Path_2788187" data-name="Path 2788187" d="M68.961,44.558l2.1-.756.292.756" transform="translate(-68.961 -43.802)" fill="none" stroke="#76706b" stroke-linecap="round" stroke-linejoin="round" stroke-width="0.54"/>
          <path id="Path_2788188" data-name="Path 2788188" d="M105.287,44.558l-2.1-.756-.292.756" transform="translate(-97.986 -43.802)" fill="none" stroke="#76706b" stroke-linecap="round" stroke-linejoin="round" stroke-width="0.54"/>
        </g>
        <path id="Path_2788189" data-name="Path 2788189" d="M15.487,133.42h.506a.494.494,0,0,1,.494.494h0a.5.5,0,0,1-.494.494H2.787A1.287,1.287,0,0,1,1.5,133.122v-4.774a2.084,2.084,0,0,1,1.549-2.014l7.524-2h0a6.237,6.237,0,0,0,4.409,2.045,6.277,6.277,0,0,0,4.672-2.045" transform="translate(-1.5 -104.964)" fill="none" stroke="#76706b" stroke-linecap="round" stroke-linejoin="round" stroke-width="0.54"/>
        <path id="Path_2788190" data-name="Path 2788190" d="M89.133,179.574h.709a.546.546,0,0,1,.546.546h0a.546.546,0,0,1-.546.546H86.733" transform="translate(-73.582 -152.209)" fill="none" stroke="#76706b" stroke-linecap="round" stroke-linejoin="round" stroke-width="0.54"/>
        <path id="Path_2788191" data-name="Path 2788191" d="M93.259,172.03h.709a.546.546,0,0,1,.546.546h0a.546.546,0,0,1-.546.546H90.924" transform="translate(-77.128 -145.757)" fill="none" stroke="#76706b" stroke-linecap="round" stroke-linejoin="round" stroke-width="0.54"/>
        <path id="Path_2788192" data-name="Path 2788192" d="M40.443,150.178H42.95a.546.546,0,0,0,.546-.546h0a.546.546,0,0,0-.546-.546l-4.272.025a.753.753,0,0,1-.292-.057l-.005,0a.847.847,0,0,1-.236-1.4h0a1.066,1.066,0,0,1,.682-.289l.3-.014c.207-.024.466-.012.611-.19a.264.264,0,0,0-.069-.433s-.533-.1-.993-.207a1.449,1.449,0,0,0-1.027.133l-.886.476a3.366,3.366,0,0,0-.55.37l-.59.634a3.156,3.156,0,0,1-1.72.951l-1.862.355" transform="translate(-27.178 -123.905)" fill="none" stroke="#76706b" stroke-linecap="round" stroke-linejoin="round" stroke-width="0.54"/>
      </g>
    </g>
  </g>
</svg>
