<svg xmlns="http://www.w3.org/2000/svg" xmlns:xlink="http://www.w3.org/1999/xlink" width="30" height="30" viewBox="0 0 30 30">
  <defs>
    <clipPath id="clip-path">
      <rect id="Rectangle_186988" data-name="Rectangle 186988" width="30" height="30" transform="translate(-19569 -21904)" fill="#fff"/>
    </clipPath>
  </defs>
  <g id="Mask_Group_448" data-name="Mask Group 448" transform="translate(19569 21904)" clip-path="url(#clip-path)">
    <g id="Artwork_6" data-name="Artwork 6" transform="translate(-19497.803 -21829.672)">
      <g id="Group_768961" data-name="Group 768961" transform="translate(-70.407 -74.329)">
        <g id="Group_768957" data-name="Group 768957">
          <g id="Group_768953" data-name="Group 768953" transform="translate(0 15.874)">
            <path id="Path_8276901" data-name="Path 8276901" d="M9.328,92.783a.529.529,0,0,1-.227-.051L.3,88.544a.527.527,0,0,1-.295-.558,23.721,23.721,0,0,1,1.953-6.092,13.644,13.644,0,0,1,2-3.061.528.528,0,1,1,.789.7A12.588,12.588,0,0,0,2.908,82.36a23.143,23.143,0,0,0-1.787,5.4l8.211,3.907,7.363-3.381a.528.528,0,1,1,.441.96L9.548,92.735A.531.531,0,0,1,9.328,92.783Z" transform="translate(0 -78.656)"/>
          </g>
          <g id="Group_768954" data-name="Group 768954" transform="translate(15.414 17.614)">
            <path id="Path_8276902" data-name="Path 8276902" d="M76.378,87.282" transform="translate(-76.378 -87.282)"/>
          </g>
          <g id="Group_768955" data-name="Group 768955" transform="translate(3.339 7.399)">
            <path id="Path_8276903" data-name="Path 8276903" d="M22.536,45.04c-3.363,0-5.83-4.708-5.987-7.822a.528.528,0,0,1,1.055-.053c.135,2.682,2.314,6.819,4.932,6.819,2.085,0,3.952-2.661,4.65-5.166A.528.528,0,0,1,28.2,39.1C27.381,42.053,25.17,45.04,22.536,45.04Z" transform="translate(-16.548 -36.663)"/>
          </g>
          <g id="Group_768956" data-name="Group 768956" transform="translate(1.706)">
            <path id="Path_8276904" data-name="Path 8276904" d="M23.068,10.471h-.024a19.35,19.35,0,0,1-9.251-3.383l-.084-.07a8.267,8.267,0,0,0,.208,1.363.529.529,0,0,1-.56.67c-.668-.066-4.039-.467-4.839-1.957a.525.525,0,0,1-.061-.29A7.638,7.638,0,0,1,16.227,0,7.583,7.583,0,0,1,24.02,7.335a8.785,8.785,0,0,1-.455,2.787A.528.528,0,0,1,23.068,10.471ZM13.131,4.982a.528.528,0,0,1,.481.311,3.007,3.007,0,0,0,.849.977,18.542,18.542,0,0,0,8.228,3.117,8.121,8.121,0,0,0,.274-2.051,6.526,6.526,0,0,0-6.736-6.278,6.6,6.6,0,0,0-6.7,5.653c.457.565,1.954.994,3.223,1.2-.043-.282-.085-.64-.113-1.068S12.6,5.96,12.6,5.5a.528.528,0,0,1,.528-.521Z" transform="translate(-8.455)"/>
          </g>
        </g>
        <g id="Group_768960" data-name="Group 768960" transform="translate(14.088 13.809)">
          <g id="Group_768958" data-name="Group 768958">
            <path id="Path_8276905" data-name="Path 8276905" d="M76.977,82.75a7.176,7.176,0,0,1-7.06-8.409.528.528,0,0,1,1.041.184,6.105,6.105,0,1,0,1.478-3.033.528.528,0,1,1-.785-.707A7.165,7.165,0,0,1,83.67,78.129a7.179,7.179,0,0,1-6.692,4.621Z" transform="translate(-69.808 -68.424)"/>
          </g>
          <g id="Group_768959" data-name="Group 768959" transform="translate(2.61 4.351)">
            <path id="Path_8276906" data-name="Path 8276906" d="M86.111,96.348a.529.529,0,0,1-.385-.167l-2.843-3.028a.528.528,0,0,1,.77-.723l2.441,2.6,4.184-4.86a.528.528,0,0,1,.8.689l-4.567,5.306a.527.527,0,0,1-.389.183Z" transform="translate(-82.74 -89.985)"/>
          </g>
        </g>
      </g>
    </g>
  </g>
</svg>
