<svg xmlns="http://www.w3.org/2000/svg" xmlns:xlink="http://www.w3.org/1999/xlink" width="30" height="30" viewBox="0 0 30 30">
  <defs>
    <clipPath id="clip-path">
      <rect id="Rectangle_182550" data-name="Rectangle 182550" width="30" height="30" transform="translate(-17550 -22469)"/>
    </clipPath>
  </defs>
  <g id="Mask_Group_427" data-name="Mask Group 427" transform="translate(17549.999 22468.999)" clip-path="url(#clip-path)">
    <g id="Artwork_485" data-name="Artwork 485" transform="translate(-17527.27 -22446.4)">
      <g id="Group_754438" data-name="Group 754438" transform="translate(-22.201 -22.599)">
        <g id="Group_754426" data-name="Group 754426">
          <g id="Group_754423" data-name="Group 754423" transform="translate(0 7.123)">
            <path id="Path_8157805" data-name="Path 8157805" d="M4.629,46.648a.463.463,0,0,1-.251-.074L.213,43.9a.463.463,0,0,1-.207-.461A11.468,11.468,0,0,1,.949,40.49a6.7,6.7,0,0,1,.979-1.5.463.463,0,1,1,.692.616,5.8,5.8,0,0,0-.84,1.29,10.686,10.686,0,0,0-.8,2.388l3.657,2.35,3.794-2.352a8.068,8.068,0,0,0-2.073-4.022.463.463,0,0,1,.6-.708C8.81,40.123,9.381,43.293,9.4,43.428a.463.463,0,0,1-.212.473L4.873,46.579A.461.461,0,0,1,4.629,46.648Z" transform="translate(0 -38.445)"/>
          </g>
          <g id="Group_754424" data-name="Group 754424" transform="translate(1.74 3.496)">
            <path id="Path_8157806" data-name="Path 8157806" d="M12.28,23.27c-1.389,0-2.462-1.507-2.871-2.906a.463.463,0,1,1,.889-.26c.322,1.1,1.151,2.239,1.982,2.239,1.019,0,2.059-1.708,2.123-3.032a.463.463,0,1,1,.925.044C15.253,20.914,14,23.27,12.28,23.27Z" transform="translate(-9.39 -18.87)"/>
          </g>
          <g id="Group_754425" data-name="Group 754425" transform="translate(1.026)">
            <path id="Path_8157807" data-name="Path 8157807" d="M6.189,5.384a.464.464,0,0,1-.439-.315,4.625,4.625,0,0,1-.212-1.383A3.684,3.684,0,0,1,12.9,3.421a.463.463,0,0,1-.048.241c-.4.789-1.882,1-2.328,1.049a.463.463,0,0,1-.5-.581s.008-.03.019-.089A8.735,8.735,0,0,1,6.211,5.384ZM9.222.926a2.762,2.762,0,0,0-2.758,2.76,3.9,3.9,0,0,0,.073.733A7.622,7.622,0,0,0,9.848,3.026a1.152,1.152,0,0,0,.32-.385.463.463,0,0,1,.89.175c0,.222,0,.439-.015.646,0,.08-.011.155-.017.224a2.531,2.531,0,0,0,.929-.365A2.767,2.767,0,0,0,9.222.926Z" transform="translate(-5.538)"/>
          </g>
        </g>
        <g id="Group_754430" data-name="Group 754430" transform="translate(20.06)">
          <g id="Group_754427" data-name="Group 754427" transform="translate(0 7.123)">
            <path id="Path_8157808" data-name="Path 8157808" d="M112.895,46.648a.463.463,0,0,1-.251-.074L108.478,43.9a.464.464,0,0,1-.208-.461,11.468,11.468,0,0,1,.943-2.946,6.711,6.711,0,0,1,.979-1.5.463.463,0,1,1,.692.616,5.79,5.79,0,0,0-.84,1.29,10.675,10.675,0,0,0-.8,2.388l3.657,2.35,3.794-2.352a8.065,8.065,0,0,0-2.073-4.022.463.463,0,1,1,.6-.708c1.858,1.569,2.429,4.739,2.452,4.873a.464.464,0,0,1-.212.473l-4.319,2.678A.462.462,0,0,1,112.895,46.648Z" transform="translate(-108.265 -38.444)"/>
          </g>
          <g id="Group_754428" data-name="Group 754428" transform="translate(1.74 3.496)">
            <path id="Path_8157809" data-name="Path 8157809" d="M120.545,23.27c-1.389,0-2.462-1.507-2.871-2.906a.463.463,0,1,1,.889-.26c.322,1.1,1.151,2.239,1.982,2.239,1.019,0,2.059-1.708,2.123-3.032a.463.463,0,1,1,.925.044C123.519,20.914,122.265,23.27,120.545,23.27Z" transform="translate(-117.655 -18.87)"/>
          </g>
          <g id="Group_754429" data-name="Group 754429" transform="translate(1.026)">
            <path id="Path_8157810" data-name="Path 8157810" d="M114.453,5.384a.464.464,0,0,1-.439-.315,4.621,4.621,0,0,1-.212-1.383,3.684,3.684,0,0,1,7.358-.266.462.462,0,0,1-.048.241c-.4.789-1.883,1-2.328,1.049a.463.463,0,0,1-.5-.581s.008-.03.019-.087a8.747,8.747,0,0,1-3.832,1.342ZM117.487.926a2.762,2.762,0,0,0-2.758,2.76,3.885,3.885,0,0,0,.072.733,7.623,7.623,0,0,0,3.311-1.393,1.153,1.153,0,0,0,.321-.385.463.463,0,0,1,.89.175c0,.222,0,.439-.015.646,0,.08-.011.155-.017.224a2.527,2.527,0,0,0,.929-.365A2.767,2.767,0,0,0,117.487.926Z" transform="translate(-113.803)"/>
          </g>
        </g>
        <g id="Group_754434" data-name="Group 754434" transform="translate(9.829 14.673)">
          <g id="Group_754431" data-name="Group 754431" transform="translate(0 7.123)">
            <path id="Path_8157811" data-name="Path 8157811" d="M57.679,125.84a.464.464,0,0,1-.251-.073l-4.166-2.678a.464.464,0,0,1-.207-.461A11.437,11.437,0,0,1,54,119.682a6.676,6.676,0,0,1,.98-1.5.463.463,0,1,1,.692.616,5.761,5.761,0,0,0-.841,1.289,10.614,10.614,0,0,0-.8,2.388l3.657,2.35,3.794-2.352a8.063,8.063,0,0,0-2.073-4.022.463.463,0,1,1,.6-.708c1.858,1.568,2.428,4.739,2.452,4.873a.464.464,0,0,1-.212.473l-4.318,2.678A.461.461,0,0,1,57.679,125.84Z" transform="translate(-53.049 -117.637)"/>
          </g>
          <g id="Group_754432" data-name="Group 754432" transform="translate(1.74 3.496)">
            <path id="Path_8157812" data-name="Path 8157812" d="M65.329,102.46c-1.389,0-2.462-1.506-2.871-2.906a.463.463,0,1,1,.889-.26c.322,1.1,1.151,2.239,1.982,2.239,1.018,0,2.059-1.708,2.123-3.032a.463.463,0,1,1,.925.045C68.3,100.1,67.048,102.46,65.329,102.46Z" transform="translate(-62.439 -98.06)"/>
          </g>
          <g id="Group_754433" data-name="Group 754433" transform="translate(1.026)">
            <path id="Path_8157813" data-name="Path 8157813" d="M59.238,84.577a.464.464,0,0,1-.439-.315,4.63,4.63,0,0,1-.212-1.383,3.684,3.684,0,0,1,7.358-.265.465.465,0,0,1-.048.241c-.4.789-1.882,1-2.329,1.049a.469.469,0,0,1-.4-.16.463.463,0,0,1-.1-.421s.008-.03.019-.088a8.742,8.742,0,0,1-3.832,1.342Zm3.034-4.457a2.762,2.762,0,0,0-2.758,2.759,3.889,3.889,0,0,0,.073.734A7.63,7.63,0,0,0,62.9,82.219a1.155,1.155,0,0,0,.319-.385.463.463,0,0,1,.89.174c0,.217,0,.435-.015.648,0,.08-.011.155-.017.224a2.533,2.533,0,0,0,.929-.365A2.767,2.767,0,0,0,62.272,80.119Z" transform="translate(-58.588 -79.193)"/>
          </g>
        </g>
        <g id="Group_754435" data-name="Group 754435" transform="translate(8.86 2.776)">
          <path id="Path_8157814" data-name="Path 8157814" d="M48.28,17.334a.463.463,0,0,1-.237-.862,10.707,10.707,0,0,1,10.71-.109.463.463,0,1,1-.456.806,9.78,9.78,0,0,0-9.781.1A.462.462,0,0,1,48.28,17.334Z" transform="translate(-47.816 -14.982)"/>
        </g>
        <g id="Group_754436" data-name="Group 754436" transform="translate(18.913 15.831)">
          <path id="Path_8157815" data-name="Path 8157815" d="M102.538,92.558a.463.463,0,0,1-.22-.871,9.828,9.828,0,0,0,4.768-5.91.463.463,0,1,1,.891.255,10.758,10.758,0,0,1-5.22,6.471A.46.46,0,0,1,102.538,92.558Z" transform="translate(-102.074 -85.441)"/>
        </g>
        <g id="Group_754437" data-name="Group 754437" transform="translate(4.296 16.033)">
          <path id="Path_8157816" data-name="Path 8157816" d="M28.426,93.358A.462.462,0,0,1,28.2,93.3a10.661,10.661,0,0,1-4.992-6.169.463.463,0,0,1,.885-.274,9.738,9.738,0,0,0,4.56,5.635.463.463,0,0,1-.227.867Z" transform="translate(-23.187 -86.53)"/>
        </g>
      </g>
    </g>
  </g>
</svg>
