<svg xmlns="http://www.w3.org/2000/svg" xmlns:xlink="http://www.w3.org/1999/xlink" width="30" height="30" viewBox="0 0 30 30">
  <defs>
    <clipPath id="clip-path">
      <rect id="Rectangle_175861" data-name="Rectangle 175861" width="30" height="30" transform="translate(-17405 -22461)" fill="none" stroke="#000" stroke-width="1"/>
    </clipPath>
  </defs>
  <g id="Mask_Group_383" data-name="Mask Group 383" transform="translate(17405 22461)" clip-path="url(#clip-path)">
    <g id="Artwork_413" data-name="Artwork 413" transform="translate(-17378.563 -22437.797)">
      <g id="Group_126796" data-name="Group 126796" transform="translate(-26 -18.648)">
        <path id="Path_320869" data-name="Path 320869" d="M84.276,11.039l.723.579.723-.579c.494-.43,2.881-2.414,3.281-2.771A3.688,3.688,0,0,0,90.3,4.8,2.779,2.779,0,0,0,85,4.331a2.8,2.8,0,0,0-5.3.471A3.688,3.688,0,0,0,81,8.268c.4.357,2.787,2.341,3.281,2.771" transform="translate(-70.437 -2.575)" fill="none" stroke="#000" stroke-linecap="round" stroke-miterlimit="10" stroke-width="0.65"/>
        <g id="Group_126795" data-name="Group 126795" transform="translate(0 1.642)">
          <g id="Group_126793" data-name="Group 126793">
            <path id="Path_320870" data-name="Path 320870" d="M17.328,17.008l.935-.185a.945.945,0,0,1,1.126.762c.219,1.236.719,4.161.919,5.292l.705.9" transform="translate(-15.566 -16.747)" fill="none" stroke="#000" stroke-linecap="round" stroke-linejoin="round" stroke-width="0.65"/>
            <path id="Path_320871" data-name="Path 320871" d="M34.341,20.175l.506-.1a.945.945,0,0,1,1.126.762c.274,1.547.479,2.974.713,4.228l.7.985" transform="translate(-30.547 -19.61)" fill="none" stroke="#000" stroke-linecap="round" stroke-linejoin="round" stroke-width="0.65"/>
            <path id="Path_320872" data-name="Path 320872" d="M50.013,29.743l.4-.079a.945.945,0,0,1,1.126.762c.274,1.546.691,3.73.691,3.73" transform="translate(-44.347 -28.054)" fill="none" stroke="#000" stroke-linecap="round" stroke-linejoin="round" stroke-width="0.65"/>
            <path id="Path_320873" data-name="Path 320873" d="M12.268,79.3a4.7,4.7,0,0,0-4.991-.8,2.113,2.113,0,0,1-.46.163c-1.117.222-1.329-.719-1.656-1.426a3.3,3.3,0,0,0-1.607-1.47.676.676,0,0,0-.941.821,23.073,23.073,0,0,0,1.28,3.051,5.066,5.066,0,0,0,1.035,1.5,6.811,6.811,0,0,0,3.311,1.213,3.91,3.91,0,0,1,2.93,1.8v3.519" transform="translate(-2.575 -68.608)" fill="none" stroke="#000" stroke-linecap="round" stroke-linejoin="round" stroke-width="0.65"/>
            <path id="Path_320874" data-name="Path 320874" d="M66.219,75.8c1.483.354,3.287.573,4.46,2.448a7.481,7.481,0,0,1,1.087,3.166v6.528" transform="translate(-58.618 -68.693)" fill="none" stroke="#000" stroke-linecap="round" stroke-linejoin="round" stroke-width="0.65"/>
            <path id="Path_320875" data-name="Path 320875" d="M5.447,23.442l-.8-6.111a.91.91,0,0,1,.735-.991h0a.833.833,0,0,1,.984.686l.969,5.987.852,1.013" transform="translate(-4.394 -16.326)" fill="none" stroke="#000" stroke-linecap="round" stroke-linejoin="round" stroke-width="0.65"/>
          </g>
          <g id="Group_126794" data-name="Group 126794" transform="translate(15.975)">
            <path id="Path_320876" data-name="Path 320876" d="M204.492,17.008l-.935-.185a.945.945,0,0,0-1.126.762c-.219,1.236-.719,4.161-.919,5.292l-.705.9" transform="translate(-193.106 -16.747)" fill="none" stroke="#000" stroke-linecap="round" stroke-linejoin="round" stroke-width="0.65"/>
            <path id="Path_320877" data-name="Path 320877" d="M192.194,20.175l-.506-.1a.944.944,0,0,0-1.126.762c-.274,1.547-.479,2.974-.713,4.228l-.7.985" transform="translate(-182.84 -19.61)" fill="none" stroke="#000" stroke-linecap="round" stroke-linejoin="round" stroke-width="0.65"/>
            <path id="Path_320878" data-name="Path 320878" d="M182.631,29.743l-.4-.079a.945.945,0,0,0-1.126.762c-.274,1.546-.691,3.73-.691,3.73" transform="translate(-175.149 -28.054)" fill="none" stroke="#000" stroke-linecap="round" stroke-linejoin="round" stroke-width="0.65"/>
            <path id="Path_320879" data-name="Path 320879" d="M165.261,79.3a4.7,4.7,0,0,1,4.991-.8,2.113,2.113,0,0,0,.46.163c1.117.222,1.329-.719,1.656-1.426a3.3,3.3,0,0,1,1.607-1.47.676.676,0,0,1,.941.821,23.056,23.056,0,0,1-1.28,3.051,5.066,5.066,0,0,1-1.035,1.5,6.811,6.811,0,0,1-3.31,1.213,3.91,3.91,0,0,0-2.93,1.8v3.519" transform="translate(-161.806 -68.608)" fill="none" stroke="#000" stroke-linecap="round" stroke-linejoin="round" stroke-width="0.65"/>
            <path id="Path_320880" data-name="Path 320880" d="M141.88,75.8c-1.483.354-3.287.573-4.46,2.448a7.483,7.483,0,0,0-1.087,3.166v6.528" transform="translate(-136.334 -68.693)" fill="none" stroke="#000" stroke-linecap="round" stroke-linejoin="round" stroke-width="0.65"/>
            <path id="Path_320881" data-name="Path 320881" d="M217.393,23.442l.8-6.111a.91.91,0,0,0-.735-.991h0a.833.833,0,0,0-.984.686l-.969,5.987-.852,1.013" transform="translate(-205.298 -16.326)" fill="none" stroke="#000" stroke-linecap="round" stroke-linejoin="round" stroke-width="0.65"/>
          </g>
        </g>
        <path id="Path_320882" data-name="Path 320882" d="M135.528,13.724a1.65,1.65,0,0,0-1.169-.827,1.542,1.542,0,0,0-.252-.022c-.9,0-1.39,1.016-1.395,1.026l-.162.363a1.6,1.6,0,0,1,1.23.052,1.8,1.8,0,0,1,.808,1.847,2.969,2.969,0,0,1-.118.517c.138-.117.244-.209.3-.259a2.477,2.477,0,0,0,.923-2.252A1.721,1.721,0,0,0,135.528,13.724Z" transform="translate(-117.028 -11.645)" fill="none" stroke="#000" stroke-width="1"/>
      </g>
    </g>
  </g>
</svg>
