<svg xmlns="http://www.w3.org/2000/svg" xmlns:xlink="http://www.w3.org/1999/xlink" width="30" height="30" viewBox="0 0 30 30">
  <defs>
    <clipPath id="clip-path">
      <rect id="Rectangle_182562" data-name="Rectangle 182562" width="30" height="30" transform="translate(-5495 -3188)"/>
    </clipPath>
  </defs>
  <g id="Mask_Group_439" data-name="Mask Group 439" transform="translate(5495 3188)" clip-path="url(#clip-path)">
    <g id="Artwork_231" data-name="Artwork 231" transform="translate(-5480.281 -3173.955)">
      <g id="Group_754518" data-name="Group 754518" transform="translate(-13.451 -14.045)">
        <g id="Group_754517" data-name="Group 754517" transform="translate(7.183 8.451)">
          <path id="Path_8157923" data-name="Path 8157923" d="M24.183,47.07a.423.423,0,0,1-.189-.044l-6.761-3.38A.423.423,0,0,1,17,43.268V42h.845v1.006l6.338,3.169,6.338-3.169V42h.845v1.268a.423.423,0,0,1-.234.378l-6.761,3.38A.423.423,0,0,1,24.183,47.07Z" transform="translate(-17 -32.704)"/>
          <path id="Path_8157924" data-name="Path 8157924" d="M24.183,39.07a.423.423,0,0,1-.189-.044l-6.761-3.38A.423.423,0,0,1,17,35.268V34h.845v1.006l6.338,3.169,6.338-3.169V34h.845v1.268a.423.423,0,0,1-.234.378l-6.761,3.38A.423.423,0,0,1,24.183,39.07Z" transform="translate(-17 -28.085)"/>
          <path id="Path_8157925" data-name="Path 8157925" d="M24.183,27.606a.423.423,0,0,1-.189-.044l-6.761-3.38a.423.423,0,0,1,0-.756l6.761-3.38a.422.422,0,0,1,.378,0l6.761,3.38a.423.423,0,0,1,0,.756l-6.761,3.38A.423.423,0,0,1,24.183,27.606Zm-5.816-3.8,5.816,2.908L30,23.8,24.183,20.9Z" transform="translate(-17 -20)"/>
        </g>
        <path id="Path_8157926" data-name="Path 8157926" d="M9.845,35.422H9a10.809,10.809,0,0,1,.062-1.154l.84.091A9.88,9.88,0,0,0,9.845,35.422Z" transform="translate(-5.197 -19.788)"/>
        <path id="Path_8157927" data-name="Path 8157927" d="M10.656,26.79l-.817-.217a10.489,10.489,0,0,1,1.274-2.913l.714.452A9.658,9.658,0,0,0,10.656,26.79Z" transform="translate(-5.682 -13.663)"/>
        <path id="Path_8157928" data-name="Path 8157928" d="M23.154,33.127v-.845a9.718,9.718,0,1,0-7.3-16.132l-.635-.558a10.563,10.563,0,1,1,7.936,17.535Z" transform="translate(-8.788 -6.929)"/>
        <path id="Path_8157929" data-name="Path 8157929" d="M66.606,38.741l-.839-.1a13.613,13.613,0,0,0,.1-1.639h.845A14.527,14.527,0,0,1,66.606,38.741Z" transform="translate(-37.978 -21.366)"/>
        <path id="Path_8157930" data-name="Path 8157930" d="M63.305,47.416l-.753-.382A13.442,13.442,0,0,0,63.7,43.79l.826.178A14.269,14.269,0,0,1,63.305,47.416Z" transform="translate(-36.122 -25.287)"/>
        <path id="Path_8157931" data-name="Path 8157931" d="M14.366,31.732A14.366,14.366,0,1,1,14.366,3v.845A13.521,13.521,0,1,0,25.673,24.784l.706.464A14.34,14.34,0,0,1,14.366,31.732Z" transform="translate(0 -1.732)"/>
        <path id="Path_8157932" data-name="Path 8157932" d="M30.422,3.451a.423.423,0,0,1-.307-.713L31.1,1.7,30.124.721a.422.422,0,1,1,.6-.6l1.268,1.268A.422.422,0,0,1,32,1.981L30.729,3.319A.422.422,0,0,1,30.422,3.451Z" transform="translate(-17.324 0)"/>
        <path id="Path_8157933" data-name="Path 8157933" d="M34.565,60.472a.422.422,0,0,1-.307-.132L32.991,59A.422.422,0,0,1,33,58.412l1.268-1.268a.422.422,0,0,1,.6.6l-.977.977.985,1.039a.423.423,0,0,1-.307.713Z" transform="translate(-18.984 -32.927)"/>
      </g>
    </g>
  </g>
</svg>
