<svg xmlns="http://www.w3.org/2000/svg" xmlns:xlink="http://www.w3.org/1999/xlink" width="30" height="30" viewBox="0 0 30 30">
  <defs>
    <clipPath id="clip-path">
      <rect id="Rectangle_182551" data-name="Rectangle 182551" width="30" height="30" transform="translate(-17545 -22292)"/>
    </clipPath>
  </defs>
  <g id="Mask_Group_428" data-name="Mask Group 428" transform="translate(17545 22292.001)" clip-path="url(#clip-path)">
    <g id="Layer_2" data-name="Layer 2" transform="translate(-17538 -22292)">
      <g id="_ÎÓÈ_1" data-name="—ÎÓÈ_1">
        <path id="Path_8157817" data-name="Path 8157817" d="M31.952,24.621H24.64a.31.31,0,0,1,0-.621h7.312a.31.31,0,1,1,0,.621Z" transform="translate(-14.262 -14.069)"/>
        <path id="Path_8157818" data-name="Path 8157818" d="M31.952,45.951H24.64a.31.31,0,0,1,0-.621h7.312a.31.31,0,1,1,0,.621Z" transform="translate(-14.262 -26.573)"/>
        <path id="Path_8157819" data-name="Path 8157819" d="M31.952,35.291H24.64a.31.31,0,1,1,0-.621h7.312a.31.31,0,1,1,0,.621Z" transform="translate(-14.262 -20.324)"/>
        <path id="Path_8157820" data-name="Path 8157820" d="M31.952,56.621H24.64a.31.31,0,0,1,0-.621h7.312a.31.31,0,1,1,0,.621Z" transform="translate(-14.262 -32.828)"/>
        <path id="Path_8157821" data-name="Path 8157821" d="M23.517,32.621H5.31A.314.314,0,0,1,5,32.31v-24A.314.314,0,0,1,5.31,8H9.829a.31.31,0,0,1,0,.621H5.621V32H23.207V8.621H19.069a.31.31,0,1,1,0-.621h4.448a.314.314,0,0,1,.31.31v24A.314.314,0,0,1,23.517,32.621Z" transform="translate(-2.931 -4.69)"/>
        <path id="Path_8157822" data-name="Path 8157822" d="M25.414,5.172h-9.1a.314.314,0,0,1-.31-.31V.31A.314.314,0,0,1,16.31,0h9.1a.314.314,0,0,1,.31.31V4.862A.314.314,0,0,1,25.414,5.172Zm-8.793-.621H25.1V.621H16.621Z" transform="translate(-9.379)"/>
        <path id="Path_8157823" data-name="Path 8157823" d="M22.655,31.759H.31a.314.314,0,0,1-.31-.31V3.31A.314.314,0,0,1,.31,3H6.931a.31.31,0,1,1,0,.621H.621V31.138H22.345V3.621h-6.31a.31.31,0,0,1,0-.621h6.621a.314.314,0,0,1,.31.31V31.448A.314.314,0,0,1,22.655,31.759Z" transform="translate(0 -1.759)"/>
        <path id="Path_8157824" data-name="Path 8157824" d="M12.691,33.953a.3.3,0,0,1-.24-.116L11,32.078a.306.306,0,0,1,.041-.414.31.31,0,0,1,.439.041l1.171,1.419,1.241-2a.31.31,0,0,1,.414-.108.319.319,0,0,1,.1.414l-1.448,2.379a.314.314,0,0,1-.244.145Z" transform="translate(-6.413 -18.158)"/>
        <path id="Path_8157825" data-name="Path 8157825" d="M12.676,55.248a.31.31,0,0,1-.24-.112l-1.448-1.75a.31.31,0,0,1,.041-.439.314.314,0,0,1,.439.041l1.171,1.423L13.88,52.4a.31.31,0,1,1,.53.323l-1.448,2.379a.319.319,0,0,1-.244.149Z" transform="translate(-6.399 -30.627)"/>
      </g>
    </g>
  </g>
</svg>
