<svg xmlns="http://www.w3.org/2000/svg" xmlns:xlink="http://www.w3.org/1999/xlink" width="30" height="30" viewBox="0 0 30 30">
  <defs>
    <clipPath id="clip-path">
      <rect id="Rectangle_173829" data-name="Rectangle 173829" width="30" height="30" transform="translate(-21891 -9149)"/>
    </clipPath>
  </defs>
  <g id="Mask_Group_379" data-name="Mask Group 379" transform="translate(21891 9149)" clip-path="url(#clip-path)">
    <g id="Artwork_138" data-name="Artwork 138" transform="translate(-21874.607 -9132.709)">
      <g id="Group_119682" data-name="Group 119682" transform="translate(-16.298 -15.629)">
        <g id="Group_119681" data-name="Group 119681" transform="translate(0 12.838)">
          <path id="Path_303712" data-name="Path 303712" d="M.26,49.132a.26.26,0,0,1-.184-.444l2.936-2.957a3.848,3.848,0,0,1,1.181-2.785l5.6-5.62A1.3,1.3,0,0,1,11,37.1a.26.26,0,1,1-.133.5.823.823,0,0,0-.7.09l-5.6,5.622a3.334,3.334,0,0,0-1.028,2.431.26.26,0,0,1,0,.043l-.02.13a.256.256,0,0,1-.073.144L.444,49.056A.258.258,0,0,1,.26,49.132Z" transform="translate(0 -37.047)"/>
          <path id="Path_303713" data-name="Path 303713" d="M25.607,45.73a.26.26,0,0,1-.184-.444l1.927-1.929a.26.26,0,0,1,.368.367L25.79,45.654A.259.259,0,0,1,25.607,45.73Z" transform="translate(-16.562 -41.119)"/>
          <path id="Path_303714" data-name="Path 303714" d="M29.542,50.969a.26.26,0,0,1-.184-.443l1.278-1.286a.26.26,0,0,1,.369.366l-1.278,1.286A.259.259,0,0,1,29.542,50.969Z" transform="translate(-19.134 -44.963)"/>
          <path id="Path_303715" data-name="Path 303715" d="M33.313,54.039a.249.249,0,0,1-.178-.074.27.27,0,0,1-.009-.375l1.6-1.607a.26.26,0,0,1,.369.367l-1.561,1.57a.266.266,0,0,1-.22.12Z" transform="translate(-21.599 -46.755)"/>
          <path id="Path_303716" data-name="Path 303716" d="M34.029,59.15a.26.26,0,0,1-.183-.444l3-2.969a.26.26,0,1,1,.366.369L34.9,58.395l1.237-.324a1.066,1.066,0,0,1,1.074.356.26.26,0,0,1-.394.34.551.551,0,0,0-.549-.193l-2.173.568A.251.251,0,0,1,34.029,59.15Z" transform="translate(-22.065 -49.209)"/>
          <path id="Path_303717" data-name="Path 303717" d="M10.539,72.442A.26.26,0,0,1,10.355,72l2.964-2.964a.261.261,0,0,1,.168-.076l.2-.012a.207.207,0,0,1,.049,0,3.4,3.4,0,0,0,1.785-.241.207.207,0,0,1,.038-.013l5.685-1.487a.489.489,0,0,0,.239-.147.26.26,0,1,1,.385.349,1.02,1.02,0,0,1-.492.3L15.71,69.191a3.922,3.922,0,0,1-2.014.275l-.078,0-2.894,2.895A.259.259,0,0,1,10.539,72.442Z" transform="translate(-6.717 -56.601)"/>
          <path id="Path_303718" data-name="Path 303718" d="M64.848,49.129a.258.258,0,0,1-.184-.076L61.672,46.06a.257.257,0,0,1-.073-.144l-.02-.13a.27.27,0,0,1,0-.044,3.334,3.334,0,0,0-1.026-2.43L54.944,37.69a.845.845,0,0,0-.736-.08.26.26,0,0,1-.151-.5,1.3,1.3,0,0,1,1.255.21l5.6,5.622A3.849,3.849,0,0,1,62.1,45.728l0,.025,2.932,2.932a.26.26,0,0,1-.184.444Z" transform="translate(-35.202 -37.043)"/>
          <path id="Path_303719" data-name="Path 303719" d="M56.248,45.752a.259.259,0,0,1-.185-.077L54.2,43.787a.26.26,0,0,1,.37-.366l1.864,1.888a.26.26,0,0,1-.185.443Z" transform="translate(-35.367 -41.16)"/>
          <path id="Path_303720" data-name="Path 303720" d="M50.95,48.591a.259.259,0,0,1-.183-.076l-2.556-2.548a.26.26,0,0,1,.367-.368l2.556,2.549a.26.26,0,0,1-.184.444Z" transform="translate(-31.452 -42.584)"/>
          <path id="Path_303721" data-name="Path 303721" d="M47.695,52.75a.259.259,0,0,1-.184-.076l-2.288-2.288a.26.26,0,0,1,.368-.368l2.288,2.288a.26.26,0,0,1-.184.444Z" transform="translate(-29.501 -45.472)"/>
          <path id="Path_303722" data-name="Path 303722" d="M51.692,62.983a.259.259,0,0,1-.184-.076l-2.895-2.894-.078-.005a3.9,3.9,0,0,1-2.014-.274l-5.666-1.482A1.165,1.165,0,0,1,41.444,56l1.238.324-3.414-3.386a.26.26,0,1,1,.366-.369l4.1,4.066a.26.26,0,0,1-.249.436l-2.173-.569a.648.648,0,0,0-.325,1.241l5.685,1.486a.263.263,0,0,1,.038.014,3.391,3.391,0,0,0,1.784.24.261.261,0,0,1,.049,0l.2.013a.261.261,0,0,1,.167.076l2.964,2.964a.26.26,0,0,1-.184.444Z" transform="translate(-25.608 -47.142)"/>
        </g>
        <path id="Path_303723" data-name="Path 303723" d="M28.964,18.648a1.1,1.1,0,0,1-1.172-.994v-.347a1.526,1.526,0,0,1-.771.22c-.616,0-1.305-.44-1.305-1.03l.023-5.345-.646,1.1a1.165,1.165,0,0,1-2-1.172L26.046,6.03a3.917,3.917,0,0,1,1.23-1.618l.052-.059V.26a.26.26,0,0,1,.52,0V4.452a.262.262,0,0,1-.065.172l-.133.15a.276.276,0,0,1-.036.034A3.4,3.4,0,0,0,26.522,6.24a.266.266,0,0,1-.017.036l-2.969,5.072a.648.648,0,0,0,1.108.646l1.134-1.938a.26.26,0,0,1,.484.132l-.027,6.31c0,.222.381.509.785.509a.853.853,0,0,0,.771-.44V11.893a.26.26,0,0,1,.26-.26.27.27,0,0,1,.272.26v4.6a.748.748,0,0,1-.012.131v1.026c0,.257.3.474.652.474s.652-.213.652-.474V11.893a.258.258,0,0,1,.018-.094.276.276,0,0,1,.294-.173.252.252,0,0,1,.217.243l.016,4.822c0,.239.409.577.791.577.354,0,.652-.217.652-.474V14.256l-.028-2.36a.261.261,0,0,1,.075-.186.291.291,0,0,1,.472.183l.012,3.4a.849.849,0,0,0,.744.682.888.888,0,0,0,.784-.668l-.012-7.938a3.336,3.336,0,0,0-.993-2.445.236.236,0,0,1-.029-.033l-.078-.106a.259.259,0,0,1-.051-.154V.4a.26.26,0,0,1,.52,0l.015,4.167a3.851,3.851,0,0,1,1.135,2.8l.012,7.936a1.394,1.394,0,0,1-1.3,1.188,1.226,1.226,0,0,1-.756-.287v.591a1.1,1.1,0,0,1-1.172.994,1.423,1.423,0,0,1-.816-.28v.146A1.1,1.1,0,0,1,28.964,18.648Z" transform="translate(-14.997)"/>
      </g>
    </g>
  </g>
</svg>
