<svg xmlns="http://www.w3.org/2000/svg" xmlns:xlink="http://www.w3.org/1999/xlink" width="30" height="30" viewBox="0 0 30 30">
  <defs>
    <clipPath id="clip-path">
      <rect id="Rectangle_177943" data-name="Rectangle 177943" width="30" height="30" transform="translate(-17706 -22365)" fill="#fff"/>
    </clipPath>
  </defs>
  <g id="Mask_Group_418" data-name="Mask Group 418" transform="translate(17706 22365)" clip-path="url(#clip-path)">
    <g id="Group_739454" data-name="Group 739454" transform="translate(116.213 20.396)">
      <g id="Artwork_7" data-name="Artwork 7" transform="translate(-17819.502 -22385.043)">
        <g id="Group_739450" data-name="Group 739450" transform="translate(0 0)">
          <line id="Line_7138" data-name="Line 7138" x2="2.609" transform="translate(8.302 1.601)" fill="none" stroke="#000" stroke-linecap="round" stroke-miterlimit="10" stroke-width="0.65"/>
          <path id="Path_7992968" data-name="Path 7992968" d="M45.3,8.556h6.092a.962.962,0,0,1,.962.962V34.963a.962.962,0,0,1-.962.962h-15.9" transform="translate(-27.777 -6.955)" fill="none" stroke="#000" stroke-linecap="round" stroke-miterlimit="10" stroke-width="0.65"/>
          <line id="Line_7139" data-name="Line 7139" x2="10.903" transform="translate(10.911 24.552)" fill="none" stroke="#000" stroke-linecap="round" stroke-miterlimit="10" stroke-width="0.65"/>
          <line id="Line_7140" data-name="Line 7140" x2="10.903" transform="translate(10.911 22.723)" fill="none" stroke="#000" stroke-linecap="round" stroke-miterlimit="10" stroke-width="0.65"/>
          <line id="Line_7141" data-name="Line 7141" x2="10.902" transform="translate(10.911 13.734)" fill="none" stroke="#000" stroke-linecap="round" stroke-miterlimit="10" stroke-width="0.65"/>
          <line id="Line_7142" data-name="Line 7142" x2="10.902" transform="translate(10.911 11.905)" fill="none" stroke="#000" stroke-linecap="round" stroke-miterlimit="10" stroke-width="0.65"/>
          <path id="Path_7992969" data-name="Path 7992969" d="M49.576,1.95v3.4a.582.582,0,0,0,.582.582h.234a.582.582,0,0,0,.577-.507l.01-.072A2.038,2.038,0,0,1,53,3.581h0a2.038,2.038,0,0,1,2.021,1.775l.009.072a.582.582,0,0,0,.577.507h0a.582.582,0,0,0,.582-.582V1.95a.45.45,0,0,0-.45-.45H50.026A.45.45,0,0,0,49.576,1.95Z" transform="translate(-38.665 -1.5)" fill="none" stroke="#000" stroke-linecap="round" stroke-miterlimit="10" stroke-width="0.65"/>
          <path id="Path_7992970" data-name="Path 7992970" d="M72.038,78.936l-1.8,1.9-.869-.869" transform="translate(-53.969 -61.361)" fill="none" stroke="#000" stroke-linecap="round" stroke-miterlimit="10" stroke-width="0.65"/>
          <g id="Group_739448" data-name="Group 739448" transform="translate(15.666 7.589)">
            <line id="Line_7143" data-name="Line 7143" y1="2.142" x2="2.142" fill="none" stroke="#000" stroke-linecap="round" stroke-miterlimit="10" stroke-width="0.65"/>
            <line id="Line_7144" data-name="Line 7144" x1="2.142" y1="2.142" fill="none" stroke="#000" stroke-linecap="round" stroke-miterlimit="10" stroke-width="0.65"/>
          </g>
          <path id="Path_7992971" data-name="Path 7992971" d="M5.357,32.411h0A3.857,3.857,0,0,1,1.5,28.554V7.45A3.857,3.857,0,0,1,5.357,3.593h0A3.857,3.857,0,0,1,9.214,7.45v21.1A3.857,3.857,0,0,1,5.357,32.411Z" transform="translate(-1.5 -3.118)" fill="none" stroke="#000" stroke-miterlimit="10" stroke-width="0.65"/>
          <path id="Path_7992972" data-name="Path 7992972" d="M16.362,110.162a.887.887,0,1,0-.887.887A.887.887,0,0,0,16.362,110.162Z" transform="translate(-11.618 -84.815)"/>
          <g id="Group_739449" data-name="Group 739449" transform="translate(3.403 3.125)">
            <path id="Path_7992973" data-name="Path 7992973" d="M16.949,34.939a.454.454,0,0,1-.454-.454V15.721a.454.454,0,1,1,.908,0V34.485A.454.454,0,0,1,16.949,34.939Z" transform="translate(-16.495 -15.267)"/>
          </g>
          <line id="Line_7145" data-name="Line 7145" x1="2.073" transform="translate(5.642 22.342)" fill="none" stroke="#000" stroke-linecap="round" stroke-linejoin="round" stroke-width="0.65"/>
          <line id="Line_7146" data-name="Line 7146" x1="1.131" transform="translate(6.584 19.993)" fill="none" stroke="#000" stroke-linecap="round" stroke-linejoin="round" stroke-width="0.65"/>
          <line id="Line_7147" data-name="Line 7147" x2="2.073" transform="translate(5.642 17.644)" fill="none" stroke="#000" stroke-linecap="round" stroke-linejoin="round" stroke-width="0.65"/>
          <line id="Line_7148" data-name="Line 7148" x1="1.131" transform="translate(6.584 15.295)" fill="none" stroke="#000" stroke-linecap="round" stroke-linejoin="round" stroke-width="0.65"/>
          <line id="Line_7149" data-name="Line 7149" x2="2.073" transform="translate(5.642 12.945)" fill="none" stroke="#000" stroke-linecap="round" stroke-linejoin="round" stroke-width="0.65"/>
          <line id="Line_7150" data-name="Line 7150" x1="1.131" transform="translate(6.584 10.596)" fill="none" stroke="#000" stroke-linecap="round" stroke-linejoin="round" stroke-width="0.65"/>
          <line id="Line_7151" data-name="Line 7151" x2="2.073" transform="translate(5.642 8.247)" fill="none" stroke="#000" stroke-linecap="round" stroke-linejoin="round" stroke-width="0.65"/>
          <line id="Line_7152" data-name="Line 7152" x1="1.131" transform="translate(6.584 5.898)" fill="none" stroke="#000" stroke-linecap="round" stroke-linejoin="round" stroke-width="0.65"/>
        </g>
      </g>
    </g>
  </g>
</svg>
