<svg xmlns="http://www.w3.org/2000/svg" xmlns:xlink="http://www.w3.org/1999/xlink" width="30" height="30" viewBox="0 0 30 30">
  <defs>
    <clipPath id="clip-path">
      <rect id="Rectangle_182549" data-name="Rectangle 182549" width="30" height="30" transform="translate(-17545 -22342)"/>
    </clipPath>
  </defs>
  <g id="Mask_Group_426" data-name="Mask Group 426" transform="translate(17545 22341.999)" clip-path="url(#clip-path)">
    <g id="Artwork_370" data-name="Artwork 370" transform="translate(-17520.074 -22317.244)">
      <g id="Group_754422" data-name="Group 754422" transform="translate(-24.925 -24.5)">
        <g id="Group_754413" data-name="Group 754413">
          <g id="Group_754411" data-name="Group 754411" transform="translate(0 9.842)">
            <path id="Path_8157797" data-name="Path 8157797" d="M.333,67.262A.333.333,0,0,1,0,66.928V57.922a4.783,4.783,0,0,1,4.776-4.779H9.443a4.758,4.758,0,0,1,4.711,3.982.333.333,0,1,1-.658.11A4.094,4.094,0,0,0,9.443,53.81H4.776a4.115,4.115,0,0,0-4.11,4.112v9.007A.333.333,0,0,1,.333,67.262Z" transform="translate(0 -53.143)"/>
          </g>
          <g id="Group_754412" data-name="Group 754412" transform="translate(2.999)">
            <path id="Path_8157798" data-name="Path 8157798" d="M20.305,8.222a4.111,4.111,0,1,1,4.111-4.111A4.116,4.116,0,0,1,20.305,8.222Zm0-7.556A3.444,3.444,0,1,0,23.75,4.111,3.448,3.448,0,0,0,20.305.667Z" transform="translate(-16.194)"/>
          </g>
        </g>
        <g id="Group_754417" data-name="Group 754417" transform="translate(15.839)">
          <g id="Group_754414" data-name="Group 754414" transform="translate(0 9.842)">
            <path id="Path_8157799" data-name="Path 8157799" d="M99.35,62.864a.333.333,0,0,1-.333-.333V57.922A4.117,4.117,0,0,0,94.9,53.81H90.238a4.1,4.1,0,0,0-4.054,3.425.333.333,0,0,1-.658-.111,4.762,4.762,0,0,1,4.711-3.981H94.9a4.784,4.784,0,0,1,4.779,4.779v4.609A.333.333,0,0,1,99.35,62.864Z" transform="translate(-85.522 -53.143)"/>
          </g>
          <g id="Group_754415" data-name="Group 754415" transform="translate(13.494 21.038)">
            <path id="Path_8157800" data-name="Path 8157800" d="M158.718,116.519a.333.333,0,0,1-.333-.333v-2.256a.333.333,0,0,1,.667,0v2.256A.333.333,0,0,1,158.718,116.519Z" transform="translate(-158.385 -113.596)"/>
          </g>
          <g id="Group_754416" data-name="Group 754416" transform="translate(2.938)">
            <path id="Path_8157801" data-name="Path 8157801" d="M105.5,8.222a4.111,4.111,0,1,1,4.111-4.111A4.116,4.116,0,0,1,105.5,8.222Zm0-7.556a3.444,3.444,0,1,0,3.445,3.445A3.448,3.448,0,0,0,105.5.667Z" transform="translate(-101.387)"/>
          </g>
        </g>
        <g id="Group_754421" data-name="Group 754421" transform="translate(3 17.907)">
          <g id="Group_754418" data-name="Group 754418">
            <path id="Path_8157802" data-name="Path 8157802" d="M21.262,108.273a.671.671,0,0,1-.5-.228l-4.268-4.794a1.157,1.157,0,0,1,0-1.539l4.268-4.792a.677.677,0,0,1,1.182.45v1.008H24.5a.333.333,0,0,1,0,.667H21.608a.333.333,0,0,1-.333-.333V97.37l-4.285,4.786a.49.49,0,0,0,0,.652l4.268,4.794.017-1.348a.333.333,0,0,1,.333-.333h5.355a.333.333,0,0,1,0,.667H21.941v1.008a.672.672,0,0,1-.436.632A.679.679,0,0,1,21.262,108.273Z" transform="translate(-16.199 -96.693)"/>
          </g>
          <g id="Group_754419" data-name="Group 754419" transform="translate(12.899 0)">
            <path id="Path_8157803" data-name="Path 8157803" d="M91.886,108.273a.682.682,0,0,1-.243-.045.671.671,0,0,1-.436-.632v-1.008H86.182a.333.333,0,1,1,0-.667H91.54a.333.333,0,0,1,.333.333v1.341l4.285-4.787a.49.49,0,0,0,0-.652l-4.268-4.792-.018,1.348a.333.333,0,0,1-.333.333H88.648a.333.333,0,0,1,0-.667h2.558V97.37a.677.677,0,0,1,1.182-.45l4.268,4.792a1.157,1.157,0,0,1,0,1.539l-4.268,4.794A.671.671,0,0,1,91.886,108.273Z" transform="translate(-85.849 -96.693)"/>
          </g>
          <g id="Group_754420" data-name="Group 754420" transform="translate(10.432 1.686)">
            <path id="Path_8157804" data-name="Path 8157804" d="M75.329,106.462H72.863a.333.333,0,0,1,0-.667h2.468a.333.333,0,0,1,0,.667Z" transform="translate(-72.529 -105.795)"/>
          </g>
        </g>
      </g>
    </g>
  </g>
</svg>
